G04 Layer: TopLayer*
G04 EasyEDA Pro v2.2.40.8, 2025-10-31 20:07:01*
G04 Gerber Generator version 0.3*
G04 Scale: 100 percent, Rotated: No, Reflected: No*
G04 Dimensions in millimeters*
G04 Leading zeros omitted, absolute positions, 4 integers and 5 decimals*
G04 Generated by one-click*
%FSLAX45Y45*%
%MOMM*%
%ADD10C,0.2032*%
%ADD11C,0.254*%
%ADD12C,1.8796*%
%ADD13R,1.7X1.7*%
%ADD14C,1.7*%
%ADD15C,2.0*%
%ADD16C,0.6100*%
%ADD17C,0.61*%
G75*


G04 Copper Start*
G36*
G01X-1828800Y294894D02*
G01X-1851158Y292954D01*
G01X-1872848Y287191D01*
G01X-1893220Y277779D01*
G01X-1911667Y264997D01*
G01X-1927637Y249230D01*
G01X-1940651Y230947D01*
G01X-1950322Y210695D01*
G01X-1956359Y189081D01*
G01X-1958584Y166749D01*
G01X-1956928Y144368D01*
G01X-1951441Y122607D01*
G01X-1942288Y102116D01*
G01X-1929742Y83509D01*
G01X-1914179Y67340D01*
G01X-1896063Y54094D01*
G01X-2408034Y54094D01*
G01X-2408034Y214264D01*
G01X-2390522Y214264D01*
G01X-2388669Y191910D01*
G01X-2383163Y170165D01*
G01X-2374152Y149624D01*
G01X-2361884Y130845D01*
G01X-2346692Y114343D01*
G01X-2328991Y100565D01*
G01X-2309263Y89889D01*
G01X-2288048Y82606D01*
G01X-2265923Y78914D01*
G01X-2243492Y78914D01*
G01X-2221367Y82606D01*
G01X-2200152Y89889D01*
G01X-2180425Y100565D01*
G01X-2162724Y114343D01*
G01X-2147532Y130845D01*
G01X-2135263Y149624D01*
G01X-2126253Y170165D01*
G01X-2120746Y191910D01*
G01X-2118894Y214264D01*
G01X-2120746Y236618D01*
G01X-2126253Y258363D01*
G01X-2135263Y278904D01*
G01X-2147532Y297683D01*
G01X-2162724Y314185D01*
G01X-2180425Y327963D01*
G01X-2200152Y338639D01*
G01X-2221367Y345922D01*
G01X-2243492Y349614D01*
G01X-2265923Y349614D01*
G01X-2288048Y345922D01*
G01X-2309263Y338639D01*
G01X-2328991Y327963D01*
G01X-2346692Y314185D01*
G01X-2361884Y297683D01*
G01X-2374152Y278904D01*
G01X-2383163Y258363D01*
G01X-2388669Y236618D01*
G01X-2390522Y214264D01*
G01X-2390522Y214264D01*
G01X-2408034Y214264D01*
G01X-2408034Y732700D01*
G01X-2394114Y732700D01*
G01X-2394114Y562700D01*
G01X-2392361Y551633D01*
G01X-2387274Y541649D01*
G01X-2379351Y533726D01*
G01X-2369367Y528639D01*
G01X-2358300Y526886D01*
G01X-2188300Y526886D01*
G01X-2177233Y528639D01*
G01X-2167249Y533726D01*
G01X-2159326Y541649D01*
G01X-2154239Y551633D01*
G01X-2152486Y562700D01*
G01X-2152486Y732700D01*
G01X-2152486Y732700D01*
G01X-2154239Y743767D01*
G01X-2159326Y753751D01*
G01X-2167249Y761674D01*
G01X-2177233Y766761D01*
G01X-2188300Y768514D01*
G01X-2358300Y768514D01*
G01X-2369367Y766761D01*
G01X-2379351Y761674D01*
G01X-2387274Y753751D01*
G01X-2392361Y743767D01*
G01X-2394114Y732700D01*
G01X-2408034Y732700D01*
G01X-2408034Y901700D01*
G01X-2394114Y901700D01*
G01X-2392278Y880721D01*
G01X-2386828Y860379D01*
G01X-2377928Y841293D01*
G01X-2365849Y824042D01*
G01X-2350958Y809151D01*
G01X-2333707Y797072D01*
G01X-2314621Y788172D01*
G01X-2294279Y782722D01*
G01X-2273300Y780886D01*
G01X-2273300Y780886D01*
G01X-2252321Y782722D01*
G01X-2231979Y788172D01*
G01X-2212893Y797072D01*
G01X-2195642Y809151D01*
G01X-2180751Y824042D01*
G01X-2168672Y841293D01*
G01X-2159772Y860379D01*
G01X-2154322Y880721D01*
G01X-2152486Y901700D01*
G01X-2154322Y922679D01*
G01X-2159772Y943021D01*
G01X-2168672Y962107D01*
G01X-2180751Y979358D01*
G01X-2195642Y994249D01*
G01X-2212893Y1006328D01*
G01X-2231979Y1015228D01*
G01X-2252321Y1020678D01*
G01X-2273300Y1022514D01*
G01X-2294279Y1020678D01*
G01X-2314621Y1015228D01*
G01X-2333707Y1006328D01*
G01X-2350958Y994249D01*
G01X-2365849Y979358D01*
G01X-2377928Y962107D01*
G01X-2386828Y943021D01*
G01X-2392278Y922679D01*
G01X-2394114Y901700D01*
G01X-2408034Y901700D01*
G01X-2408034Y1155700D01*
G01X-2394114Y1155700D01*
G01X-2392278Y1134721D01*
G01X-2386828Y1114379D01*
G01X-2377928Y1095293D01*
G01X-2365849Y1078042D01*
G01X-2350958Y1063151D01*
G01X-2333707Y1051072D01*
G01X-2314621Y1042172D01*
G01X-2294279Y1036722D01*
G01X-2273300Y1034886D01*
G01X-2273300Y1034886D01*
G01X-2252321Y1036722D01*
G01X-2231979Y1042172D01*
G01X-2212893Y1051072D01*
G01X-2195642Y1063151D01*
G01X-2180751Y1078042D01*
G01X-2168672Y1095293D01*
G01X-2159772Y1114379D01*
G01X-2154322Y1134721D01*
G01X-2152486Y1155700D01*
G01X-2154322Y1176679D01*
G01X-2159772Y1197021D01*
G01X-2168672Y1216107D01*
G01X-2180751Y1233358D01*
G01X-2195642Y1248249D01*
G01X-2212893Y1260328D01*
G01X-2231979Y1269228D01*
G01X-2252321Y1274678D01*
G01X-2273300Y1276514D01*
G01X-2294279Y1274678D01*
G01X-2314621Y1269228D01*
G01X-2333707Y1260328D01*
G01X-2350958Y1248249D01*
G01X-2365849Y1233358D01*
G01X-2377928Y1216107D01*
G01X-2386828Y1197021D01*
G01X-2392278Y1176679D01*
G01X-2394114Y1155700D01*
G01X-2408034Y1155700D01*
G01X-2408034Y2072267D01*
G01X-2079446Y2072267D01*
G01X-2097212Y2059430D01*
G01X-2112566Y2043787D01*
G01X-2125068Y2025783D01*
G01X-2134362Y2005931D01*
G01X-2140183Y1984799D01*
G01X-2142365Y1962989D01*
G01X-2140846Y1941123D01*
G01X-2135669Y1919824D01*
G01X-2126982Y1899700D01*
G01X-2149890Y1899904D01*
G01X-2172478Y1896076D01*
G01X-2194041Y1888337D01*
G01X-2213907Y1876928D01*
G01X-2231458Y1862203D01*
G01X-2246147Y1844622D01*
G01X-2257516Y1824732D01*
G01X-2265210Y1803153D01*
G01X-2268991Y1780557D01*
G01X-2268740Y1757649D01*
G01X-2264465Y1735142D01*
G01X-2256300Y1713737D01*
G01X-2244498Y1694101D01*
G01X-2229428Y1676845D01*
G01X-2211559Y1662509D01*
G01X-2191447Y1651537D01*
G01X-2169720Y1644272D01*
G01X-2147054Y1640941D01*
G01X-2124155Y1641646D01*
G01X-2101737Y1646367D01*
G01X-2080498Y1654955D01*
G01X-2061100Y1667144D01*
G01X-2061100Y1364886D01*
G01X-2059447Y1352330D01*
G01X-2054600Y1340629D01*
G01X-2046891Y1330581D01*
G01X-1948231Y1231921D01*
G01X-1954055Y1215126D01*
G01X-1957529Y1197692D01*
G01X-1958589Y1179947D01*
G01X-1957214Y1162223D01*
G01X-2160757Y1365767D01*
G01X-2154667Y1386849D01*
G01X-2152490Y1408686D01*
G01X-2154300Y1430556D01*
G01X-2160036Y1451738D01*
G01X-2169508Y1471533D01*
G01X-2182405Y1489287D01*
G01X-2198301Y1504416D01*
G01X-2216672Y1516420D01*
G01X-2236911Y1524903D01*
G01X-2258350Y1529585D01*
G01X-2280283Y1530312D01*
G01X-2301985Y1527059D01*
G01X-2322741Y1519934D01*
G01X-2341866Y1509172D01*
G01X-2358728Y1495128D01*
G01X-2372772Y1478266D01*
G01X-2383534Y1459141D01*
G01X-2390659Y1438385D01*
G01X-2393912Y1416683D01*
G01X-2393185Y1394750D01*
G01X-2388503Y1373311D01*
G01X-2380020Y1353072D01*
G01X-2368016Y1334701D01*
G01X-2352887Y1318805D01*
G01X-2335133Y1305908D01*
G01X-2315338Y1296436D01*
G01X-2294156Y1290700D01*
G01X-2272286Y1288890D01*
G01X-2250449Y1291067D01*
G01X-2229367Y1297157D01*
G01X-1952005Y1019795D01*
G01X-1941957Y1012086D01*
G01X-1930256Y1007239D01*
G01X-1917700Y1005586D01*
G01X-1762771Y1005586D01*
G01X-1750215Y1007239D01*
G01X-1738514Y1012086D01*
G01X-1728467Y1019795D01*
G01X-1564874Y1183388D01*
G01X-1563399Y1161457D01*
G01X-1558244Y1140088D01*
G01X-1549558Y1119896D01*
G01X-1537588Y1101459D01*
G01X-1522679Y1085307D01*
G01X-1505258Y1071902D01*
G01X-1485825Y1061629D01*
G01X-1464937Y1054782D01*
G01X-1443194Y1051559D01*
G01X-1421218Y1052051D01*
G01X-1399640Y1056244D01*
G01X-1379079Y1064018D01*
G01X-1360125Y1075151D01*
G01X-1343322Y1089322D01*
G01X-1329151Y1106125D01*
G01X-1318018Y1125079D01*
G01X-1310244Y1145640D01*
G01X-1306051Y1167218D01*
G01X-1305740Y1181100D01*
G01X-1171194Y1181100D01*
G01X-1169222Y1158562D01*
G01X-1163366Y1136708D01*
G01X-1153805Y1116203D01*
G01X-1140828Y1097670D01*
G01X-1124830Y1081672D01*
G01X-1106297Y1068695D01*
G01X-1085792Y1059134D01*
G01X-1063938Y1053278D01*
G01X-1041400Y1051306D01*
G01X-1018862Y1053278D01*
G01X-997008Y1059134D01*
G01X-976503Y1068695D01*
G01X-957970Y1081672D01*
G01X-941972Y1097670D01*
G01X-928995Y1116203D01*
G01X-919434Y1136708D01*
G01X-913578Y1158562D01*
G01X-911606Y1181100D01*
G01X-802894Y1181100D01*
G01X-800922Y1158562D01*
G01X-795066Y1136708D01*
G01X-785505Y1116203D01*
G01X-772528Y1097670D01*
G01X-756530Y1081672D01*
G01X-737997Y1068695D01*
G01X-717492Y1059134D01*
G01X-695638Y1053278D01*
G01X-673100Y1051306D01*
G01X-650562Y1053278D01*
G01X-628708Y1059134D01*
G01X-608203Y1068695D01*
G01X-589670Y1081672D01*
G01X-573672Y1097670D01*
G01X-560695Y1116203D01*
G01X-551134Y1136708D01*
G01X-545278Y1158562D01*
G01X-543306Y1181100D01*
G01X-545278Y1203638D01*
G01X-551134Y1225492D01*
G01X-560695Y1245997D01*
G01X-573672Y1264530D01*
G01X-589670Y1280528D01*
G01X-608203Y1293505D01*
G01X-628708Y1303066D01*
G01X-650562Y1308922D01*
G01X-673100Y1310894D01*
G01X-673100Y1310894D01*
G01X-695638Y1308922D01*
G01X-717492Y1303066D01*
G01X-737997Y1293505D01*
G01X-756530Y1280528D01*
G01X-772528Y1264530D01*
G01X-785505Y1245997D01*
G01X-795066Y1225492D01*
G01X-800922Y1203638D01*
G01X-802894Y1181100D01*
G01X-911606Y1181100D01*
G01X-913578Y1203638D01*
G01X-919434Y1225492D01*
G01X-928995Y1245997D01*
G01X-941972Y1264530D01*
G01X-957970Y1280528D01*
G01X-976503Y1293505D01*
G01X-997008Y1303066D01*
G01X-1018862Y1308922D01*
G01X-1041400Y1310894D01*
G01X-1041400Y1310894D01*
G01X-1063938Y1308922D01*
G01X-1085792Y1303066D01*
G01X-1106297Y1293505D01*
G01X-1124830Y1280528D01*
G01X-1140828Y1264530D01*
G01X-1153805Y1245997D01*
G01X-1163366Y1225492D01*
G01X-1169222Y1203638D01*
G01X-1171194Y1181100D01*
G01X-1305740Y1181100D01*
G01X-1305559Y1189194D01*
G01X-1308782Y1210937D01*
G01X-1315629Y1231825D01*
G01X-1325902Y1251258D01*
G01X-1339307Y1268679D01*
G01X-1355459Y1283588D01*
G01X-1373896Y1295558D01*
G01X-1394088Y1304244D01*
G01X-1415457Y1309399D01*
G01X-1437388Y1310874D01*
G01X-1345048Y1403215D01*
G01X-799729Y1403215D01*
G01X-789622Y1383281D01*
G01X-776244Y1365377D01*
G01X-759994Y1350033D01*
G01X-741352Y1337705D01*
G01X-720871Y1328758D01*
G01X-699159Y1323456D01*
G01X-676860Y1321958D01*
G01X-654634Y1324308D01*
G01X-633141Y1330436D01*
G01X-613017Y1340161D01*
G01X-594861Y1353193D01*
G01X-579209Y1369147D01*
G01X-566526Y1387550D01*
G01X-557189Y1407855D01*
G01X-551473Y1429462D01*
G01X-549549Y1451729D01*
G01X-551473Y1473995D01*
G01X-557189Y1495602D01*
G01X-566526Y1515907D01*
G01X-579209Y1534310D01*
G01X-594861Y1550264D01*
G01X-613017Y1563297D01*
G01X-633141Y1573021D01*
G01X-654634Y1579149D01*
G01X-676860Y1581499D01*
G01X-699159Y1580001D01*
G01X-720871Y1574700D01*
G01X-741352Y1565752D01*
G01X-759994Y1553424D01*
G01X-776244Y1538080D01*
G01X-789622Y1520176D01*
G01X-799729Y1500243D01*
G01X-1365143Y1500243D01*
G01X-1377699Y1498590D01*
G01X-1389400Y1493743D01*
G01X-1399447Y1486033D01*
G01X-1699113Y1186368D01*
G01X-1701636Y1207095D01*
G01X-1707449Y1227149D01*
G01X-1716403Y1246011D01*
G01X-1728266Y1263194D01*
G01X-1742731Y1278252D01*
G01X-1759422Y1290796D01*
G01X-1777910Y1300501D01*
G01X-1797714Y1307116D01*
G01X-1818323Y1310470D01*
G01X-1839203Y1310476D01*
G01X-1859813Y1307134D01*
G01X-1879621Y1300531D01*
G01X-1964072Y1384981D01*
G01X-1964072Y1451729D01*
G01X-1825137Y1451729D01*
G01X-1823165Y1429190D01*
G01X-1817309Y1407336D01*
G01X-1807748Y1386832D01*
G01X-1794771Y1368299D01*
G01X-1778773Y1352301D01*
G01X-1760240Y1339324D01*
G01X-1739735Y1329762D01*
G01X-1717881Y1323906D01*
G01X-1695343Y1321935D01*
G01X-1672804Y1323906D01*
G01X-1650951Y1329762D01*
G01X-1630446Y1339324D01*
G01X-1611913Y1352301D01*
G01X-1595915Y1368299D01*
G01X-1582938Y1386832D01*
G01X-1573376Y1407336D01*
G01X-1567521Y1429190D01*
G01X-1565549Y1451729D01*
G01X-1565549Y1451729D01*
G01X-1567521Y1474267D01*
G01X-1573376Y1496121D01*
G01X-1582938Y1516626D01*
G01X-1595915Y1535159D01*
G01X-1611913Y1551157D01*
G01X-1630446Y1564134D01*
G01X-1650951Y1573695D01*
G01X-1672804Y1579551D01*
G01X-1695343Y1581523D01*
G01X-1717881Y1579551D01*
G01X-1739735Y1573695D01*
G01X-1760240Y1564134D01*
G01X-1778773Y1551157D01*
G01X-1794771Y1535159D01*
G01X-1807748Y1516626D01*
G01X-1817309Y1496121D01*
G01X-1823165Y1474267D01*
G01X-1825137Y1451729D01*
G01X-1964072Y1451729D01*
G01X-1964072Y1667144D01*
G01X-1944674Y1654955D01*
G01X-1923435Y1646367D01*
G01X-1901017Y1641646D01*
G01X-1878118Y1640941D01*
G01X-1855452Y1644272D01*
G01X-1833725Y1651537D01*
G01X-1813613Y1662509D01*
G01X-1795744Y1676845D01*
G01X-1780674Y1694101D01*
G01X-1768872Y1713737D01*
G01X-1760707Y1735142D01*
G01X-1756432Y1757649D01*
G01X-1756181Y1780557D01*
G01X-1759962Y1803153D01*
G01X-1767656Y1824732D01*
G01X-1779025Y1844622D01*
G01X-1793714Y1862203D01*
G01X-1811264Y1876928D01*
G01X-1831131Y1888337D01*
G01X-1852694Y1896076D01*
G01X-1875281Y1899904D01*
G01X-1898190Y1899700D01*
G01X-1889503Y1919824D01*
G01X-1884326Y1941123D01*
G01X-1882807Y1962989D01*
G01X-1884989Y1984799D01*
G01X-1890810Y2005931D01*
G01X-1900104Y2025783D01*
G01X-1912606Y2043787D01*
G01X-1927959Y2059430D01*
G01X-1945726Y2072267D01*
G01X-554063Y2072267D01*
G01X-573602Y2062519D01*
G01X-591230Y2049634D01*
G01X-606448Y2033976D01*
G01X-618826Y2015989D01*
G01X-628014Y1996180D01*
G01X-633751Y1975113D01*
G01X-635876Y1953381D01*
G01X-634327Y1931601D01*
G01X-629149Y1910389D01*
G01X-620489Y1890344D01*
G01X-643431Y1890545D01*
G01X-666049Y1886704D01*
G01X-687638Y1878940D01*
G01X-707523Y1867497D01*
G01X-725082Y1852731D01*
G01X-739767Y1835104D01*
G01X-751119Y1815167D01*
G01X-758783Y1793543D01*
G01X-762521Y1770907D01*
G01X-762214Y1747966D01*
G01X-757873Y1725438D01*
G01X-749634Y1704026D01*
G01X-737753Y1684400D01*
G01X-722602Y1667172D01*
G01X-704655Y1652880D01*
G01X-684471Y1641972D01*
G01X-662683Y1634788D01*
G01X-639970Y1631552D01*
G01X-617042Y1632366D01*
G01X-594615Y1637205D01*
G01X-573391Y1645916D01*
G01X-554032Y1658228D01*
G01X-537143Y1673756D01*
G01X-523252Y1692016D01*
G01X-512794Y1712436D01*
G01X-506093Y1734378D01*
G01X-499393Y1712436D01*
G01X-488934Y1692016D01*
G01X-475043Y1673756D01*
G01X-458155Y1658228D01*
G01X-438796Y1645916D01*
G01X-417572Y1637205D01*
G01X-395145Y1632366D01*
G01X-372217Y1631552D01*
G01X-349504Y1634788D01*
G01X-327715Y1641972D01*
G01X-307532Y1652880D01*
G01X-289584Y1667172D01*
G01X-274434Y1684400D01*
G01X-262553Y1704026D01*
G01X-254313Y1725438D01*
G01X-249972Y1747966D01*
G01X-249666Y1770907D01*
G01X-253403Y1793543D01*
G01X-261068Y1815167D01*
G01X-272420Y1835104D01*
G01X-287105Y1852731D01*
G01X-304664Y1867497D01*
G01X-324549Y1878940D01*
G01X-346137Y1886704D01*
G01X-368756Y1890545D01*
G01X-391698Y1890344D01*
G01X-386526Y1901165D01*
G01X-382375Y1912417D01*
G01X-344930Y1912417D01*
G01X-166044Y1733531D01*
G01X-166044Y1517692D01*
G01X-169000Y1517814D01*
G01X-339000Y1517814D01*
G01X-350067Y1516061D01*
G01X-360051Y1510974D01*
G01X-367974Y1503051D01*
G01X-373061Y1493067D01*
G01X-374814Y1482000D01*
G01X-374814Y1312000D01*
G01X-373719Y1303213D01*
G01X-370502Y1294964D01*
G01X-1381952Y283514D01*
G01X-1402464Y290724D01*
G01X-1423891Y294409D01*
G01X-1445632Y294466D01*
G01X-1467078Y290893D01*
G01X-1487627Y283790D01*
G01X-1506702Y273357D01*
G01X-1523768Y259887D01*
G01X-1538346Y243756D01*
G01X-1550027Y225419D01*
G01X-1558483Y205389D01*
G01X-1563477Y184229D01*
G01X-1564869Y162532D01*
G01X-1562619Y140907D01*
G01X-1556792Y119961D01*
G01X-1547550Y100281D01*
G01X-1535153Y82420D01*
G01X-1519948Y66879D01*
G01X-1502363Y54094D01*
G01X-1761537Y54094D01*
G01X-1743421Y67340D01*
G01X-1727858Y83509D01*
G01X-1715312Y102116D01*
G01X-1706159Y122607D01*
G01X-1700672Y144368D01*
G01X-1699016Y166749D01*
G01X-1701241Y189081D01*
G01X-1707278Y210695D01*
G01X-1716949Y230947D01*
G01X-1729963Y249230D01*
G01X-1745933Y264997D01*
G01X-1764380Y277779D01*
G01X-1784752Y287191D01*
G01X-1806442Y292954D01*
G01X-1828800Y294894D01*
G37*
G36*
G01X-123139Y1249795D02*
G01X-110644Y1262291D01*
G01X-110644Y54094D01*
G01X-605837Y54094D01*
G01X-587721Y67340D01*
G01X-572158Y83509D01*
G01X-559612Y102116D01*
G01X-550459Y122607D01*
G01X-544972Y144368D01*
G01X-543316Y166749D01*
G01X-545541Y189081D01*
G01X-551578Y210695D01*
G01X-554264Y216320D01*
G01X-386017Y216320D01*
G01X-384165Y193965D01*
G01X-378658Y172221D01*
G01X-369648Y151679D01*
G01X-357379Y132901D01*
G01X-342187Y116398D01*
G01X-324486Y102621D01*
G01X-304759Y91945D01*
G01X-283544Y84662D01*
G01X-261419Y80970D01*
G01X-238988Y80970D01*
G01X-216863Y84662D01*
G01X-195647Y91945D01*
G01X-175920Y102621D01*
G01X-158219Y116398D01*
G01X-143027Y132901D01*
G01X-130759Y151679D01*
G01X-121748Y172221D01*
G01X-116242Y193965D01*
G01X-114389Y216320D01*
G01X-116242Y238674D01*
G01X-121748Y260418D01*
G01X-130759Y280960D01*
G01X-143027Y299738D01*
G01X-158219Y316241D01*
G01X-175920Y330018D01*
G01X-195647Y340694D01*
G01X-216863Y347978D01*
G01X-238988Y351670D01*
G01X-261419Y351670D01*
G01X-283544Y347978D01*
G01X-304759Y340694D01*
G01X-324486Y330018D01*
G01X-342187Y316241D01*
G01X-357379Y299738D01*
G01X-369648Y280960D01*
G01X-378658Y260418D01*
G01X-384165Y238674D01*
G01X-386017Y216320D01*
G01X-386017Y216320D01*
G01X-554264Y216320D01*
G01X-561249Y230947D01*
G01X-574263Y249230D01*
G01X-590233Y264997D01*
G01X-608680Y277779D01*
G01X-629052Y287191D01*
G01X-650742Y292954D01*
G01X-673100Y294894D01*
G01X-695458Y292954D01*
G01X-717148Y287191D01*
G01X-737520Y277779D01*
G01X-755967Y264997D01*
G01X-771937Y249230D01*
G01X-784951Y230947D01*
G01X-794622Y210695D01*
G01X-800659Y189081D01*
G01X-802884Y166749D01*
G01X-801228Y144368D01*
G01X-795741Y122607D01*
G01X-786588Y102116D01*
G01X-774042Y83509D01*
G01X-758479Y67340D01*
G01X-740363Y54094D01*
G01X-974137Y54094D01*
G01X-956021Y67340D01*
G01X-940458Y83509D01*
G01X-927912Y102116D01*
G01X-918759Y122607D01*
G01X-913272Y144368D01*
G01X-911616Y166749D01*
G01X-913841Y189081D01*
G01X-919878Y210695D01*
G01X-929549Y230947D01*
G01X-942563Y249230D01*
G01X-958533Y264997D01*
G01X-976980Y277779D01*
G01X-997352Y287191D01*
G01X-1019042Y292954D01*
G01X-1041400Y294894D01*
G01X-1063758Y292954D01*
G01X-1085448Y287191D01*
G01X-1105820Y277779D01*
G01X-1124267Y264997D01*
G01X-1140237Y249230D01*
G01X-1153251Y230947D01*
G01X-1162922Y210695D01*
G01X-1168959Y189081D01*
G01X-1171184Y166749D01*
G01X-1169528Y144368D01*
G01X-1164041Y122607D01*
G01X-1154888Y102116D01*
G01X-1142342Y83509D01*
G01X-1126779Y67340D01*
G01X-1108663Y54094D01*
G01X-1367837Y54094D01*
G01X-1349433Y67593D01*
G01X-1333677Y84107D01*
G01X-1321058Y103126D01*
G01X-1311965Y124061D01*
G01X-1306680Y146265D01*
G01X-1305366Y169051D01*
G01X-1308064Y191716D01*
G01X-1314691Y213557D01*
G01X-893248Y635000D01*
G01X-374814Y635000D01*
G01X-372978Y614021D01*
G01X-367528Y593679D01*
G01X-358628Y574593D01*
G01X-346549Y557342D01*
G01X-331658Y542451D01*
G01X-314407Y530372D01*
G01X-295321Y521472D01*
G01X-274979Y516022D01*
G01X-254000Y514186D01*
G01X-233021Y516022D01*
G01X-212679Y521472D01*
G01X-193593Y530372D01*
G01X-176342Y542451D01*
G01X-161451Y557342D01*
G01X-149372Y574593D01*
G01X-140472Y593679D01*
G01X-135022Y614021D01*
G01X-133186Y635000D01*
G01X-135022Y655979D01*
G01X-140472Y676321D01*
G01X-149372Y695407D01*
G01X-161451Y712658D01*
G01X-176342Y727549D01*
G01X-193593Y739628D01*
G01X-212679Y748528D01*
G01X-233021Y753978D01*
G01X-254000Y755814D01*
G01X-254000Y755814D01*
G01X-274979Y753978D01*
G01X-295321Y748528D01*
G01X-314407Y739628D01*
G01X-331658Y727549D01*
G01X-346549Y712658D01*
G01X-358628Y695407D01*
G01X-367528Y676321D01*
G01X-372978Y655979D01*
G01X-374814Y635000D01*
G01X-893248Y635000D01*
G01X-639248Y889000D01*
G01X-374814Y889000D01*
G01X-372978Y868021D01*
G01X-367528Y847679D01*
G01X-358628Y828593D01*
G01X-346549Y811342D01*
G01X-331658Y796451D01*
G01X-314407Y784372D01*
G01X-295321Y775472D01*
G01X-274979Y770022D01*
G01X-254000Y768186D01*
G01X-233021Y770022D01*
G01X-212679Y775472D01*
G01X-193593Y784372D01*
G01X-176342Y796451D01*
G01X-161451Y811342D01*
G01X-149372Y828593D01*
G01X-140472Y847679D01*
G01X-135022Y868021D01*
G01X-133186Y889000D01*
G01X-135022Y909979D01*
G01X-140472Y930321D01*
G01X-149372Y949407D01*
G01X-161451Y966658D01*
G01X-176342Y981549D01*
G01X-193593Y993628D01*
G01X-212679Y1002528D01*
G01X-233021Y1007978D01*
G01X-254000Y1009814D01*
G01X-254000Y1009814D01*
G01X-274979Y1007978D01*
G01X-295321Y1002528D01*
G01X-314407Y993628D01*
G01X-331658Y981549D01*
G01X-346549Y966658D01*
G01X-358628Y949407D01*
G01X-367528Y930321D01*
G01X-372978Y909979D01*
G01X-374814Y889000D01*
G01X-639248Y889000D01*
G01X-374318Y1153929D01*
G01X-374423Y1133289D01*
G01X-371012Y1112932D01*
G01X-364186Y1093453D01*
G01X-354144Y1075420D01*
G01X-341179Y1059359D01*
G01X-325669Y1045740D01*
G01X-308067Y1034960D01*
G01X-288887Y1027333D01*
G01X-268689Y1023082D01*
G01X-248062Y1022332D01*
G01X-227609Y1025104D01*
G01X-207925Y1031317D01*
G01X-189587Y1040790D01*
G01X-173128Y1053246D01*
G01X-159030Y1068322D01*
G01X-147705Y1085578D01*
G01X-139481Y1104510D01*
G01X-134601Y1124565D01*
G01X-133205Y1145159D01*
G01X-135336Y1165689D01*
G01X-140930Y1185557D01*
G01X-149824Y1204183D01*
G01X-161759Y1221023D01*
G01X-176387Y1235586D01*
G01X-157444Y1235586D01*
G01X-144887Y1237239D01*
G01X-133187Y1242086D01*
G01X-123139Y1249795D01*
G37*
G36*
G01X-110644Y2072267D02*
G01X-110644Y1815350D01*
G01X-290530Y1995236D01*
G01X-300577Y2002945D01*
G01X-312278Y2007792D01*
G01X-324834Y2009445D01*
G01X-389871Y2009445D01*
G01X-399526Y2025757D01*
G01X-411454Y2040489D01*
G01X-425401Y2053326D01*
G01X-441069Y2063994D01*
G01X-458123Y2072267D01*
G01X-110644Y2072267D01*
G37*
G54D10*
G01X-1828800Y294894D02*
G03X-1896063Y54094I0J-129794D01*
G01X-2408034Y54094D01*
G01X-2408034Y2072267D01*
G01X-2079446Y2072267D01*
G03X-2126982Y1899700I66860J-111248D01*
G03X-2264465Y1735142I-12604J-129180D01*
G03X-2061100Y1667144I124879J35378D01*
G01X-2061100Y1364886D01*
G03X-2046891Y1330581I48514J0D01*
G01X-1948231Y1231921D01*
G03X-1957214Y1162223I119431J-50821D01*
G01X-2160757Y1365767D01*
G03X-2358728Y1495128I-112543J43933D01*
G03X-2229367Y1297157I85428J-85428D01*
G01X-1952005Y1019795D01*
G03X-1917700Y1005586I34305J34305D01*
G01X-1762771Y1005586D01*
G03X-1728467Y1019795I0J48514D01*
G01X-1564874Y1183388D01*
G03X-1343322Y1089322I129774J-2288D01*
G03X-1437388Y1310874I-91778J91778D01*
G01X-1345048Y1403215D01*
G01X-799729Y1403215D01*
G03X-549549Y1451729I120386J48514D01*
G03X-799729Y1500243I-129794J0D01*
G01X-1365143Y1500243D01*
G03X-1399447Y1486033I0J-48514D01*
G01X-1699113Y1186368D01*
G03X-1759422Y1290796I-129687J-5268D01*
G03X-1879621Y1300531I-69378J-109696D01*
G01X-1964072Y1384981D01*
G01X-1964072Y1667144D01*
G03X-1760707Y1735142I78486J103375D01*
G03X-1898190Y1899700I-124879J35378D01*
G03X-1945726Y2072267I-114396J61319D01*
G01X-554063Y2072267D01*
G03X-628014Y1996180I47970J-120604D01*
G03X-620489Y1890344I121921J-44517D01*
G03X-737753Y1684400I-12604J-129180D01*
G03X-506093Y1734378I104660J76764D01*
G03X-274434Y1684400I127000J26786D01*
G03X-391698Y1890344I-104660J76764D01*
G03X-382375Y1912417I-114396J61319D01*
G01X-344930Y1912417D01*
G01X-166044Y1733531D01*
G01X-166044Y1517692D01*
G03X-169000Y1517814I-2956J-35692D01*
G01X-339000Y1517814D01*
G03X-374814Y1482000I0J-35814D01*
G01X-374814Y1312000D01*
G03X-370502Y1294964I35814J0D01*
G01X-1381952Y283514D01*
G03X-1550027Y225419I-53148J-118414D01*
G03X-1502363Y54094I114927J-60319D01*
G01X-1761537Y54094D01*
G03X-1828800Y294894I-67263J111006D01*
G01X-2152486Y732700D02*
G03X-2188300Y768514I-35814J0D01*
G01X-2358300Y768514D01*
G03X-2394114Y732700I0J-35814D01*
G01X-2394114Y562700D01*
G03X-2358300Y526886I35814J0D01*
G01X-2188300Y526886D01*
G03X-2152486Y562700I0J35814D01*
G01X-2152486Y732700D01*
G01X-2273300Y1034886D02*
G03X-2273300Y1276514I0J120814D01*
G03X-2273300Y1034886I0J-120814D01*
G01X-2273300Y780886D02*
G03X-2273300Y1022514I0J120814D01*
G03X-2273300Y780886I0J-120814D01*
G01X-2390522Y214264D02*
G03X-2118894Y214264I135814J0D01*
G03X-2390522Y214264I-135814J0D01*
G01X-1565549Y1451729D02*
G03X-1825137Y1451729I-129794J0D01*
G03X-1565549Y1451729I129794J0D01*
G01X-1041400Y1310894D02*
G03X-1041400Y1051306I0J-129794D01*
G03X-1041400Y1310894I0J129794D01*
G01X-673100Y1310894D02*
G03X-673100Y1051306I0J-129794D01*
G03X-673100Y1310894I0J129794D01*
G01X-123139Y1249795D02*
G01X-110644Y1262291D01*
G01X-110644Y54094D01*
G01X-605837Y54094D01*
G03X-673100Y294894I-67263J111006D01*
G03X-740363Y54094I0J-129794D01*
G01X-974137Y54094D01*
G03X-1041400Y294894I-67263J111006D01*
G03X-1108663Y54094I0J-129794D01*
G01X-1367837Y54094D01*
G03X-1314691Y213557I-67263J111006D01*
G01X-374318Y1153929D01*
G03X-207925Y1031317I120318J-10929D01*
G03X-176387Y1235586I-46075J111683D01*
G01X-157444Y1235586D01*
G03X-123139Y1249795I0J48514D01*
G01X-386017Y216320D02*
G03X-114389Y216320I135814J0D01*
G03X-386017Y216320I-135814J0D01*
G01X-254000Y1009814D02*
G03X-254000Y768186I0J-120814D01*
G03X-254000Y1009814I0J120814D01*
G01X-254000Y755814D02*
G03X-254000Y514186I0J-120814D01*
G03X-254000Y755814I0J120814D01*
G01X-110644Y2072267D02*
G01X-110644Y1815350D01*
G01X-290530Y1995236D01*
G03X-324834Y2009445I-34305J-34305D01*
G01X-389871Y2009445D01*
G03X-458123Y2072267I-116223J-57782D01*
G01X-110644Y2072267D01*
G54D11*
G01X-2273300Y816954D02*
G01X-2273300Y791046D01*
G01X-2273300Y986446D02*
G01X-2273300Y1012354D01*
G01X-2358046Y901700D02*
G01X-2383954Y901700D01*
G01X-2188554Y901700D02*
G01X-2162646Y901700D01*
G01X-2354454Y214264D02*
G01X-2380362Y214264D01*
G01X-2154962Y214264D02*
G01X-2129054Y214264D01*
G01X-2254708Y314010D02*
G01X-2254708Y339918D01*
G01X-2254708Y114518D02*
G01X-2254708Y88610D01*
G01X-2233311Y1770519D02*
G01X-2259219Y1770519D01*
G01X-2139586Y1864245D02*
G01X-2139586Y1890153D01*
G01X-2139586Y1676794D02*
G01X-2139586Y1650886D01*
G01X-726819Y1761164D02*
G01X-752727Y1761164D01*
G01X-633093Y1854890D02*
G01X-633093Y1880798D01*
G01X-633093Y1667438D02*
G01X-633093Y1641530D01*
G01X-254000Y1481746D02*
G01X-254000Y1507654D01*
G01X-338746Y1397000D02*
G01X-364654Y1397000D01*
G04 Copper End*

G04 Pad Start*
G54D12*
G01X-1828800Y165100D03*
G01X-1828800Y1181100D03*
G01X-673100Y1181100D03*
G01X-673100Y165100D03*
G01X-679343Y1451729D03*
G01X-1695343Y1451729D03*
G01X-1041400Y1181100D03*
G01X-1041400Y165100D03*
G01X-1435100Y1181100D03*
G01X-1435100Y165100D03*
G54D13*
G01X-2273300Y647700D03*
G54D14*
G01X-2273300Y901700D03*
G01X-2273300Y1155700D03*
G01X-2273300Y1409700D03*
G54D13*
G01X-254000Y1397000D03*
G54D14*
G01X-254000Y1143000D03*
G01X-254000Y889000D03*
G01X-254000Y635000D03*
G54D15*
G01X-250203Y216320D03*
G01X-2254708Y214264D03*
G54D12*
G01X-1885586Y1770519D03*
G01X-2012586Y1961019D03*
G01X-2139586Y1770519D03*
G01X-379093Y1761164D03*
G01X-506093Y1951663D03*
G01X-633093Y1761164D03*
G04 Pad End*

G04 Via Start*
G54D17*
G01X-1897202Y1571668D03*
G01X-1897202Y555668D03*
G01X-1389202Y1571668D03*
G01X-1389202Y555668D03*
G01X-881202Y1063668D03*
G01X-881202Y1571668D03*
G01X-881202Y555668D03*
G01X-170504Y1956666D03*
G01X-506536Y567399D03*
G04 Via End*

G04 Track Start*
G54D11*
G01X-1828800Y1181100D02*
G01X-2012586Y1364886D01*
G01X-2012586Y1961019D01*
G01X-679343Y1451729D02*
G01X-1365143Y1451729D01*
G01X-1762771Y1054100D01*
G01X-1917700Y1054100D01*
G01X-2273300Y1409700D01*
G01X-2273300Y901700D02*
G01X-2273300Y876300D01*
G01X-254000Y1397000D02*
G01X-259892Y1391108D01*
G01X-1435100Y165100D02*
G01X-1431757Y165100D01*
G01X-496825Y1960932D02*
G01X-506093Y1951664D01*
G01X-1431757Y165100D02*
G01X-312757Y1284100D01*
G01X-157444Y1284100D01*
G01X-117530Y1324014D01*
G01X-117530Y1753627D01*
G01X-324834Y1960931D01*
G01X-496825Y1960932D01*
G01X-529502Y1414513D02*
G01X-529502Y1657573D01*
G01X-633093Y1761164D01*
G01X-2120382Y723382D02*
G01X-2120382Y348589D01*
G01X-2254708Y214264D01*
G01X-536864Y1391108D02*
G01X-535192Y1392780D01*
G01X-546558Y1397458D02*
G01X-529502Y1414513D01*
G01X-546558Y1397458D02*
G01X-552908Y1391108D01*
G01X-2273300Y876300D02*
G01X-2123015Y726015D01*
G01X-2120382Y723382D01*
G01X-2123015Y738715D02*
G01X-1284690Y738715D01*
G01X-794980Y1228425D01*
G01X-794980Y1264346D01*
G01X-743646Y1315680D01*
G01X-600912Y1315680D01*
G01X-549564Y1367028D01*
G01X-549564Y1391108D01*
G01X-546558Y1397458D02*
G01X-531985Y1382885D01*
G01X-530211Y1381111D01*
G01X-531985Y1395962D02*
G01X-524554Y1403393D01*
G01X-531985Y1382885D02*
G01X-531985Y1391108D01*
G01X-531985Y1395962D01*
G01X-259892Y1391108D02*
G01X-531985Y1391108D01*
G01X-536864Y1391108D01*
G04 Track End*

M02*

