G04 Layer: BottomLayer*
G04 EasyEDA Pro v2.2.40.8, 2025-10-31 20:07:01*
G04 Gerber Generator version 0.3*
G04 Scale: 100 percent, Rotated: No, Reflected: No*
G04 Dimensions in millimeters*
G04 Leading zeros omitted, absolute positions, 4 integers and 5 decimals*
G04 Generated by one-click*
%FSLAX45Y45*%
%MOMM*%
%ADD10C,0.2032*%
%ADD11C,0.254*%
%ADD12C,1.8796*%
%ADD13R,1.7X1.7*%
%ADD14C,1.7*%
%ADD15C,2.0060*%
%ADD16C,2.0*%
%ADD17C,0.61*%
G75*


G04 Copper Start*
G36*
G01X-2408034Y2062722D02*
G01X-2093226Y2062722D01*
G01X-2109621Y2047220D01*
G01X-2123083Y2029113D01*
G01X-2133206Y2008949D01*
G01X-2139684Y1987336D01*
G01X-2142321Y1964927D01*
G01X-2141038Y1942401D01*
G01X-2135872Y1920437D01*
G01X-2126982Y1899700D01*
G01X-2149923Y1899901D01*
G01X-2172542Y1896060D01*
G01X-2194131Y1888296D01*
G01X-2214015Y1876852D01*
G01X-2231574Y1862086D01*
G01X-2246260Y1844459D01*
G01X-2257612Y1824522D01*
G01X-2265276Y1802898D01*
G01X-2269013Y1780262D01*
G01X-2268707Y1757322D01*
G01X-2264366Y1734794D01*
G01X-2256126Y1713382D01*
G01X-2244246Y1693755D01*
G01X-2229095Y1676527D01*
G01X-2211147Y1662236D01*
G01X-2190964Y1651328D01*
G01X-2169175Y1644143D01*
G01X-2146462Y1640908D01*
G01X-2123534Y1641722D01*
G01X-2101108Y1646560D01*
G01X-2079883Y1655272D01*
G01X-2060525Y1667584D01*
G01X-2043636Y1683112D01*
G01X-2029745Y1701371D01*
G01X-2019286Y1721791D01*
G01X-2012586Y1743733D01*
G01X-2006179Y1722521D01*
G01X-1996257Y1702708D01*
G01X-1983110Y1684871D01*
G01X-1967120Y1669531D01*
G01X-1948754Y1657134D01*
G01X-1928547Y1648042D01*
G01X-1907087Y1642519D01*
G01X-1885001Y1640727D01*
G01X-1862932Y1642718D01*
G01X-1841524Y1648434D01*
G01X-1821399Y1657708D01*
G01X-1803146Y1670270D01*
G01X-1713169Y1580293D01*
G01X-1734273Y1575547D01*
G01X-1754295Y1567362D01*
G01X-1772680Y1555966D01*
G01X-1788918Y1541674D01*
G01X-1802556Y1524885D01*
G01X-1813217Y1506063D01*
G01X-1820603Y1485732D01*
G01X-1824511Y1464457D01*
G01X-1824831Y1442829D01*
G01X-1821555Y1421448D01*
G01X-1814773Y1400907D01*
G01X-1842438Y1373243D01*
G01X-2104271Y1373243D01*
G01X-2116828Y1371590D01*
G01X-2128528Y1366743D01*
G01X-2138576Y1359033D01*
G01X-2229367Y1268243D01*
G01X-2250449Y1274333D01*
G01X-2272286Y1276510D01*
G01X-2294156Y1274700D01*
G01X-2315338Y1268964D01*
G01X-2335133Y1259492D01*
G01X-2352887Y1246595D01*
G01X-2368016Y1230699D01*
G01X-2380020Y1212328D01*
G01X-2388503Y1192089D01*
G01X-2393185Y1170650D01*
G01X-2393912Y1148717D01*
G01X-2390659Y1127015D01*
G01X-2383534Y1106259D01*
G01X-2372772Y1087134D01*
G01X-2358728Y1070272D01*
G01X-2341866Y1056228D01*
G01X-2322741Y1045466D01*
G01X-2301985Y1038341D01*
G01X-2280283Y1035088D01*
G01X-2258350Y1035815D01*
G01X-2236911Y1040497D01*
G01X-2216672Y1048980D01*
G01X-2198301Y1060984D01*
G01X-2182405Y1076113D01*
G01X-2169508Y1093867D01*
G01X-2160036Y1113662D01*
G01X-2154300Y1134844D01*
G01X-2152490Y1156714D01*
G01X-2154667Y1178551D01*
G01X-2160757Y1199633D01*
G01X-2084176Y1276215D01*
G01X-1917116Y1276215D01*
G01X-1931616Y1260317D01*
G01X-1943291Y1242242D01*
G01X-1951819Y1222486D01*
G01X-1956966Y1201593D01*
G01X-1958590Y1180137D01*
G01X-1956648Y1158707D01*
G01X-1951191Y1137893D01*
G01X-1942371Y1118266D01*
G01X-1930430Y1100366D01*
G01X-1915695Y1084685D01*
G01X-1898572Y1071654D01*
G01X-1879531Y1061631D01*
G01X-1859096Y1054891D01*
G01X-1837829Y1051620D01*
G01X-1816313Y1051908D01*
G01X-1795141Y1055746D01*
G01X-1774893Y1063030D01*
G01X-1756127Y1073558D01*
G01X-1739359Y1087043D01*
G01X-1725049Y1103112D01*
G01X-1713590Y1121325D01*
G01X-1705297Y1141180D01*
G01X-1700399Y1162133D01*
G01X-1699030Y1183607D01*
G01X-1374047Y858624D01*
G01X-1364000Y850914D01*
G01X-1352299Y846068D01*
G01X-1339743Y844415D01*
G01X-366286Y844415D01*
G01X-356370Y824841D01*
G01X-343077Y807383D01*
G01X-326845Y792618D01*
G01X-308211Y781032D01*
G01X-287788Y773007D01*
G01X-266251Y768809D01*
G01X-244310Y768575D01*
G01X-222688Y772314D01*
G01X-202099Y779902D01*
G01X-183223Y791089D01*
G01X-166681Y805506D01*
G01X-153019Y822676D01*
G01X-142689Y842035D01*
G01X-136030Y862943D01*
G01X-133262Y884710D01*
G01X-134478Y906619D01*
G01X-139636Y927946D01*
G01X-148566Y947989D01*
G01X-160975Y966086D01*
G01X-176452Y981641D01*
G01X-194487Y994139D01*
G01X-214485Y1003169D01*
G01X-235787Y1008433D01*
G01X-257689Y1009757D01*
G01X-279470Y1007098D01*
G01X-300411Y1000544D01*
G01X-319821Y990310D01*
G01X-337059Y976734D01*
G01X-351558Y960263D01*
G01X-362838Y941443D01*
G01X-1319648Y941443D01*
G01X-1429626Y1051421D01*
G01X-1408573Y1054046D01*
G01X-1388228Y1060065D01*
G01X-1369135Y1069319D01*
G01X-1351805Y1081559D01*
G01X-1336701Y1096459D01*
G01X-1324226Y1113621D01*
G01X-1314714Y1132586D01*
G01X-1161786Y1132586D01*
G01X-1151679Y1112652D01*
G01X-1138301Y1094748D01*
G01X-1122051Y1079405D01*
G01X-1103409Y1067076D01*
G01X-1082928Y1058129D01*
G01X-1061216Y1052828D01*
G01X-1038917Y1051330D01*
G01X-1016691Y1053680D01*
G01X-995198Y1059808D01*
G01X-975075Y1069532D01*
G01X-956918Y1082564D01*
G01X-941266Y1098518D01*
G01X-928584Y1116921D01*
G01X-919246Y1137227D01*
G01X-913530Y1158833D01*
G01X-911606Y1181100D01*
G01X-913530Y1203367D01*
G01X-919246Y1224973D01*
G01X-928584Y1245279D01*
G01X-941266Y1263682D01*
G01X-956918Y1279636D01*
G01X-975075Y1292668D01*
G01X-995198Y1302392D01*
G01X-1016691Y1308520D01*
G01X-1038917Y1310870D01*
G01X-1061216Y1309372D01*
G01X-1082928Y1304071D01*
G01X-1103409Y1295124D01*
G01X-1122051Y1282795D01*
G01X-1138301Y1267452D01*
G01X-1151679Y1249548D01*
G01X-1161786Y1229614D01*
G01X-1314714Y1229614D01*
G01X-1324043Y1248277D01*
G01X-1336242Y1265204D01*
G01X-1350996Y1279958D01*
G01X-1367923Y1292157D01*
G01X-1386586Y1301486D01*
G01X-1386586Y1370833D01*
G01X-1388239Y1383390D01*
G01X-1393086Y1395090D01*
G01X-1400795Y1405138D01*
G01X-1447386Y1451729D01*
G01X-809137Y1451729D01*
G01X-807165Y1429190D01*
G01X-801309Y1407336D01*
G01X-791748Y1386832D01*
G01X-778771Y1368299D01*
G01X-762773Y1352301D01*
G01X-744240Y1339324D01*
G01X-723735Y1329762D01*
G01X-701881Y1323906D01*
G01X-679343Y1321935D01*
G01X-656804Y1323906D01*
G01X-634951Y1329762D01*
G01X-614446Y1339324D01*
G01X-595913Y1352301D01*
G01X-579915Y1368299D01*
G01X-566938Y1386832D01*
G01X-557376Y1407336D01*
G01X-551521Y1429190D01*
G01X-549549Y1451729D01*
G01X-549549Y1451729D01*
G01X-551521Y1474267D01*
G01X-557376Y1496121D01*
G01X-566938Y1516626D01*
G01X-579915Y1535159D01*
G01X-595913Y1551157D01*
G01X-614446Y1564134D01*
G01X-634951Y1573695D01*
G01X-656804Y1579551D01*
G01X-679343Y1581523D01*
G01X-701881Y1579551D01*
G01X-723735Y1573695D01*
G01X-744240Y1564134D01*
G01X-762773Y1551157D01*
G01X-778771Y1535159D01*
G01X-791748Y1516626D01*
G01X-801309Y1496121D01*
G01X-807165Y1474267D01*
G01X-809137Y1451729D01*
G01X-1447386Y1451729D01*
G01X-1756178Y1760520D01*
G01X-1756408Y1783142D01*
G01X-1760561Y1805380D01*
G01X-1768513Y1826559D01*
G01X-1780022Y1846035D01*
G01X-1794737Y1863217D01*
G01X-1812213Y1877584D01*
G01X-1831917Y1888697D01*
G01X-1853252Y1896221D01*
G01X-1875569Y1899926D01*
G01X-1898190Y1899700D01*
G01X-1889299Y1920437D01*
G01X-1884134Y1942401D01*
G01X-1882851Y1964927D01*
G01X-1885488Y1987336D01*
G01X-1891966Y2008949D01*
G01X-1902089Y2029113D01*
G01X-1915551Y2047220D01*
G01X-1931945Y2062722D01*
G01X-573268Y2062722D01*
G01X-590967Y2049862D01*
G01X-606255Y2034211D01*
G01X-618697Y2016215D01*
G01X-627939Y1996384D01*
G01X-633720Y1975283D01*
G01X-635874Y1953511D01*
G01X-634341Y1931687D01*
G01X-629163Y1910430D01*
G01X-620489Y1890344D01*
G01X-643431Y1890545D01*
G01X-666049Y1886704D01*
G01X-687638Y1878940D01*
G01X-707523Y1867497D01*
G01X-725082Y1852731D01*
G01X-739767Y1835104D01*
G01X-751119Y1815167D01*
G01X-758783Y1793543D01*
G01X-762521Y1770907D01*
G01X-762214Y1747966D01*
G01X-757873Y1725438D01*
G01X-749634Y1704026D01*
G01X-737753Y1684400D01*
G01X-722602Y1667172D01*
G01X-704655Y1652880D01*
G01X-684471Y1641972D01*
G01X-662683Y1634788D01*
G01X-639970Y1631552D01*
G01X-617042Y1632366D01*
G01X-594615Y1637205D01*
G01X-573391Y1645916D01*
G01X-554032Y1658228D01*
G01X-537143Y1673756D01*
G01X-523252Y1692016D01*
G01X-512794Y1712436D01*
G01X-506093Y1734378D01*
G01X-500722Y1715854D01*
G01X-492665Y1698330D01*
G01X-482100Y1682194D01*
G01X-469260Y1667802D01*
G01X-454430Y1655471D01*
G01X-454430Y1229614D01*
G01X-552714Y1229614D01*
G01X-562821Y1249548D01*
G01X-576199Y1267452D01*
G01X-592449Y1282795D01*
G01X-611091Y1295124D01*
G01X-631572Y1304071D01*
G01X-653284Y1309372D01*
G01X-675583Y1310870D01*
G01X-697809Y1308520D01*
G01X-719302Y1302392D01*
G01X-739425Y1292668D01*
G01X-757582Y1279636D01*
G01X-773234Y1263682D01*
G01X-785916Y1245279D01*
G01X-795254Y1224973D01*
G01X-800970Y1203367D01*
G01X-802894Y1181100D01*
G01X-800970Y1158833D01*
G01X-795254Y1137227D01*
G01X-785916Y1116921D01*
G01X-773234Y1098518D01*
G01X-757582Y1082564D01*
G01X-739425Y1069532D01*
G01X-719302Y1059808D01*
G01X-697809Y1053680D01*
G01X-675583Y1051330D01*
G01X-653284Y1052828D01*
G01X-631572Y1058129D01*
G01X-611091Y1067076D01*
G01X-592449Y1079405D01*
G01X-576199Y1094748D01*
G01X-562821Y1112652D01*
G01X-552714Y1132586D01*
G01X-439195Y1132586D01*
G01X-428005Y1121395D01*
G01X-417957Y1113686D01*
G01X-406256Y1108839D01*
G01X-393700Y1107186D01*
G01X-369383Y1107186D01*
G01X-361124Y1087139D01*
G01X-349414Y1068892D01*
G01X-334632Y1053031D01*
G01X-317252Y1040067D01*
G01X-297836Y1030419D01*
G01X-277007Y1024397D01*
G01X-255438Y1022195D01*
G01X-233822Y1023883D01*
G01X-212856Y1029408D01*
G01X-193215Y1038591D01*
G01X-175532Y1051137D01*
G01X-160376Y1066641D01*
G01X-148236Y1084605D01*
G01X-139502Y1104450D01*
G01X-134455Y1125536D01*
G01X-133259Y1147184D01*
G01X-135951Y1168698D01*
G01X-142445Y1189384D01*
G01X-152532Y1208577D01*
G01X-165887Y1225657D01*
G01X-182080Y1240075D01*
G01X-200589Y1251366D01*
G01X-220819Y1259168D01*
G01X-242117Y1263228D01*
G01X-263798Y1263416D01*
G01X-285163Y1259726D01*
G01X-305525Y1252276D01*
G01X-324227Y1241307D01*
G01X-340667Y1227171D01*
G01X-354316Y1210325D01*
G01X-357402Y1213411D01*
G01X-357402Y1281275D01*
G01X-348546Y1277482D01*
G01X-339000Y1276186D01*
G01X-169000Y1276186D01*
G01X-157933Y1277939D01*
G01X-147949Y1283026D01*
G01X-140026Y1290949D01*
G01X-134939Y1300933D01*
G01X-133186Y1312000D01*
G01X-133186Y1482000D01*
G01X-134939Y1493067D01*
G01X-140026Y1503051D01*
G01X-147949Y1510974D01*
G01X-157933Y1516061D01*
G01X-169000Y1517814D01*
G01X-339000Y1517814D01*
G01X-348546Y1516518D01*
G01X-357402Y1512725D01*
G01X-357402Y1633196D01*
G01X-335990Y1638736D01*
G01X-315830Y1647832D01*
G01X-297507Y1660218D01*
G01X-281552Y1675536D01*
G01X-268431Y1693340D01*
G01X-258522Y1713113D01*
G01X-252114Y1734281D01*
G01X-249394Y1756230D01*
G01X-250439Y1778323D01*
G01X-255220Y1799917D01*
G01X-263598Y1820385D01*
G01X-275329Y1839135D01*
G01X-290074Y1855620D01*
G01X-307403Y1869362D01*
G01X-326814Y1879963D01*
G01X-347743Y1887115D01*
G01X-369582Y1890609D01*
G01X-391698Y1890344D01*
G01X-383023Y1910430D01*
G01X-377846Y1931687D01*
G01X-376313Y1953511D01*
G01X-378467Y1975283D01*
G01X-384247Y1996384D01*
G01X-393490Y2016215D01*
G01X-405932Y2034211D01*
G01X-421220Y2049862D01*
G01X-438919Y2062722D01*
G01X-121569Y2062722D01*
G01X-121569Y259894D01*
G01X-129307Y278203D01*
G01X-139634Y295186D01*
G01X-152330Y310480D01*
G01X-167122Y323757D01*
G01X-183693Y334733D01*
G01X-201689Y343173D01*
G01X-201689Y526098D01*
G01X-182855Y537356D01*
G01X-166367Y551835D01*
G01X-152770Y569057D01*
G01X-142512Y588455D01*
G01X-135932Y609387D01*
G01X-133247Y631165D01*
G01X-134545Y653069D01*
G01X-139784Y674378D01*
G01X-148790Y694387D01*
G01X-161267Y712437D01*
G01X-176802Y727933D01*
G01X-194885Y740363D01*
G01X-214917Y749318D01*
G01X-236239Y754501D01*
G01X-258146Y755743D01*
G01X-279917Y753001D01*
G01X-300833Y746367D01*
G01X-320204Y736060D01*
G01X-337391Y722418D01*
G01X-351827Y705893D01*
G01X-363036Y687030D01*
G01X-370649Y666450D01*
G01X-374413Y644833D01*
G01X-374205Y622891D01*
G01X-370033Y601349D01*
G01X-362032Y580916D01*
G01X-350468Y562268D01*
G01X-335722Y546019D01*
G01X-318280Y532706D01*
G01X-298717Y522767D01*
G01X-298717Y343173D01*
G01X-317505Y334285D01*
G01X-334716Y322635D01*
G01X-349948Y308495D01*
G01X-362845Y292197D01*
G01X-373103Y274121D01*
G01X-380483Y254692D01*
G01X-384813Y234364D01*
G01X-385990Y213614D01*
G01X-552714Y213614D01*
G01X-562635Y233246D01*
G01X-575728Y250921D01*
G01X-591618Y266131D01*
G01X-609848Y278439D01*
G01X-629895Y287492D01*
G01X-651183Y293030D01*
G01X-673100Y294894D01*
G01X-695017Y293030D01*
G01X-716305Y287492D01*
G01X-736352Y278439D01*
G01X-754582Y266131D01*
G01X-770472Y250921D01*
G01X-783565Y233246D01*
G01X-793486Y213614D01*
G01X-921014Y213614D01*
G01X-931273Y233791D01*
G01X-944881Y251879D01*
G01X-961425Y267328D01*
G01X-980401Y279667D01*
G01X-1001233Y288522D01*
G01X-1023286Y293624D01*
G01X-1045890Y294816D01*
G01X-1068357Y292064D01*
G01X-1090005Y285450D01*
G01X-1110174Y275175D01*
G01X-1128252Y261553D01*
G01X-1143688Y244998D01*
G01X-1156013Y226012D01*
G01X-1164853Y205174D01*
G01X-1169937Y183117D01*
G01X-1171113Y160512D01*
G01X-1168343Y138047D01*
G01X-1161713Y116404D01*
G01X-1151423Y96243D01*
G01X-1137788Y78175D01*
G01X-1338712Y78175D01*
G01X-1325771Y95146D01*
G01X-1315785Y114007D01*
G01X-1309025Y134251D01*
G01X-1305674Y155328D01*
G01X-1305823Y176669D01*
G01X-1309466Y197698D01*
G01X-1316507Y217845D01*
G01X-1326753Y236567D01*
G01X-1339930Y253356D01*
G01X-1355679Y267758D01*
G01X-1373575Y279386D01*
G01X-1393136Y287923D01*
G01X-1413830Y293139D01*
G01X-1435100Y294894D01*
G01X-1456370Y293139D01*
G01X-1477064Y287923D01*
G01X-1496625Y279386D01*
G01X-1514521Y267758D01*
G01X-1530270Y253356D01*
G01X-1543447Y236567D01*
G01X-1553693Y217845D01*
G01X-1560734Y197698D01*
G01X-1564377Y176669D01*
G01X-1564526Y155328D01*
G01X-1561175Y134251D01*
G01X-1554415Y114007D01*
G01X-1544429Y95146D01*
G01X-1531488Y78175D01*
G01X-1732412Y78175D01*
G01X-1718654Y96439D01*
G01X-1708314Y116834D01*
G01X-1701714Y138727D01*
G01X-1699058Y161439D01*
G01X-1700429Y184264D01*
G01X-1705784Y206494D01*
G01X-1714957Y227440D01*
G01X-1727664Y246451D01*
G01X-1743510Y262937D01*
G01X-1762002Y276386D01*
G01X-1782569Y286381D01*
G01X-1804570Y292612D01*
G01X-1827323Y294886D01*
G01X-1850122Y293131D01*
G01X-2152486Y595495D01*
G01X-2152486Y732700D01*
G01X-2154239Y743767D01*
G01X-2159326Y753751D01*
G01X-2167249Y761674D01*
G01X-2177233Y766761D01*
G01X-2188300Y768514D01*
G01X-2358300Y768514D01*
G01X-2369367Y766761D01*
G01X-2379351Y761674D01*
G01X-2387274Y753751D01*
G01X-2392361Y743767D01*
G01X-2394114Y732700D01*
G01X-2394114Y562700D01*
G01X-2392361Y551633D01*
G01X-2387274Y541649D01*
G01X-2379351Y533726D01*
G01X-2369367Y528639D01*
G01X-2358300Y526886D01*
G01X-2221095Y526886D01*
G01X-1934556Y240347D01*
G01X-1945707Y221484D01*
G01X-1953527Y201013D01*
G01X-1957791Y179519D01*
G01X-1958378Y157614D01*
G01X-1955272Y135923D01*
G01X-1948561Y115063D01*
G01X-1938437Y95629D01*
G01X-1925188Y78175D01*
G01X-2408034Y78175D01*
G01X-2408034Y214264D01*
G01X-2390522Y214264D01*
G01X-2388669Y191910D01*
G01X-2383163Y170165D01*
G01X-2374152Y149624D01*
G01X-2361884Y130845D01*
G01X-2346692Y114343D01*
G01X-2328991Y100565D01*
G01X-2309263Y89889D01*
G01X-2288048Y82606D01*
G01X-2265923Y78914D01*
G01X-2243492Y78914D01*
G01X-2221367Y82606D01*
G01X-2200152Y89889D01*
G01X-2180425Y100565D01*
G01X-2162724Y114343D01*
G01X-2147532Y130845D01*
G01X-2135263Y149624D01*
G01X-2126253Y170165D01*
G01X-2120746Y191910D01*
G01X-2118894Y214264D01*
G01X-2120746Y236618D01*
G01X-2126253Y258363D01*
G01X-2135263Y278904D01*
G01X-2147532Y297683D01*
G01X-2162724Y314185D01*
G01X-2180425Y327963D01*
G01X-2200152Y338639D01*
G01X-2221367Y345922D01*
G01X-2243492Y349614D01*
G01X-2265923Y349614D01*
G01X-2288048Y345922D01*
G01X-2309263Y338639D01*
G01X-2328991Y327963D01*
G01X-2346692Y314185D01*
G01X-2361884Y297683D01*
G01X-2374152Y278904D01*
G01X-2383163Y258363D01*
G01X-2388669Y236618D01*
G01X-2390522Y214264D01*
G01X-2390522Y214264D01*
G01X-2408034Y214264D01*
G01X-2408034Y901700D01*
G01X-2394114Y901700D01*
G01X-2392278Y880721D01*
G01X-2386828Y860379D01*
G01X-2377928Y841293D01*
G01X-2365849Y824042D01*
G01X-2350958Y809151D01*
G01X-2333707Y797072D01*
G01X-2314621Y788172D01*
G01X-2294279Y782722D01*
G01X-2273300Y780886D01*
G01X-2273300Y780886D01*
G01X-2252321Y782722D01*
G01X-2231979Y788172D01*
G01X-2212893Y797072D01*
G01X-2195642Y809151D01*
G01X-2180751Y824042D01*
G01X-2168672Y841293D01*
G01X-2159772Y860379D01*
G01X-2154322Y880721D01*
G01X-2152486Y901700D01*
G01X-2154322Y922679D01*
G01X-2159772Y943021D01*
G01X-2168672Y962107D01*
G01X-2180751Y979358D01*
G01X-2195642Y994249D01*
G01X-2212893Y1006328D01*
G01X-2231979Y1015228D01*
G01X-2252321Y1020678D01*
G01X-2273300Y1022514D01*
G01X-2294279Y1020678D01*
G01X-2314621Y1015228D01*
G01X-2333707Y1006328D01*
G01X-2350958Y994249D01*
G01X-2365849Y979358D01*
G01X-2377928Y962107D01*
G01X-2386828Y943021D01*
G01X-2392278Y922679D01*
G01X-2394114Y901700D01*
G01X-2408034Y901700D01*
G01X-2408034Y1409700D01*
G01X-2394114Y1409700D01*
G01X-2392278Y1388721D01*
G01X-2386828Y1368379D01*
G01X-2377928Y1349293D01*
G01X-2365849Y1332042D01*
G01X-2350958Y1317151D01*
G01X-2333707Y1305072D01*
G01X-2314621Y1296172D01*
G01X-2294279Y1290722D01*
G01X-2273300Y1288886D01*
G01X-2273300Y1288886D01*
G01X-2252321Y1290722D01*
G01X-2231979Y1296172D01*
G01X-2212893Y1305072D01*
G01X-2195642Y1317151D01*
G01X-2180751Y1332042D01*
G01X-2168672Y1349293D01*
G01X-2159772Y1368379D01*
G01X-2154322Y1388721D01*
G01X-2152486Y1409700D01*
G01X-2154322Y1430679D01*
G01X-2159772Y1451021D01*
G01X-2168672Y1470107D01*
G01X-2180751Y1487358D01*
G01X-2195642Y1502249D01*
G01X-2212893Y1514328D01*
G01X-2231979Y1523228D01*
G01X-2252321Y1528678D01*
G01X-2273300Y1530514D01*
G01X-2294279Y1528678D01*
G01X-2314621Y1523228D01*
G01X-2333707Y1514328D01*
G01X-2350958Y1502249D01*
G01X-2365849Y1487358D01*
G01X-2377928Y1470107D01*
G01X-2386828Y1451021D01*
G01X-2392278Y1430679D01*
G01X-2394114Y1409700D01*
G01X-2408034Y1409700D01*
G01X-2408034Y2062722D01*
G37*
G54D10*
G01X-2408034Y2062722D02*
G01X-2093226Y2062722D01*
G03X-2126982Y1899700I80640J-101703D01*
G03X-2244246Y1693755I-12604J-129180D01*
G03X-2012586Y1743733I104660J76764D01*
G03X-1803146Y1670270I127000J26786D01*
G01X-1713169Y1580293D01*
G03X-1814773Y1400907I17826J-128564D01*
G01X-1842438Y1373243D01*
G01X-2104271Y1373243D01*
G03X-2138576Y1359033I0J-48514D01*
G01X-2229367Y1268243D01*
G03X-2358728Y1070272I-43933J-112543D01*
G03X-2160757Y1199633I85428J85428D01*
G01X-2084176Y1276215D01*
G01X-1917116Y1276215D01*
G03X-1879531Y1061631I88316J-95115D01*
G03X-1699030Y1183607I50731J119469D01*
G01X-1374047Y858624D01*
G03X-1339743Y844415I34305J34305D01*
G01X-366286Y844415D01*
G03X-133262Y884710I112286J44585D01*
G03X-362838Y941443I-120738J4290D01*
G01X-1319648Y941443D01*
G01X-1429626Y1051421D01*
G03X-1314714Y1132586I-5474J129679D01*
G01X-1161786Y1132586D01*
G03X-911606Y1181100I120386J48514D01*
G03X-1161786Y1229614I-129794J0D01*
G01X-1314714Y1229614D01*
G03X-1386586Y1301486I-120386J-48514D01*
G01X-1386586Y1370833D01*
G03X-1400795Y1405138I-48514J0D01*
G01X-1756178Y1760520D01*
G03X-1898190Y1899700I-129408J9999D01*
G03X-1931945Y2062722I-114396J61319D01*
G01X-573268Y2062722D01*
G03X-620489Y1890344I67174J-111059D01*
G03X-737753Y1684400I-12604J-129180D01*
G03X-506093Y1734378I104660J76764D01*
G03X-454430Y1655471I127000J26786D01*
G01X-454430Y1229614D01*
G01X-552714Y1229614D01*
G03X-802894Y1181100I-120386J-48514D01*
G03X-552714Y1132586I129794J0D01*
G01X-439195Y1132586D01*
G01X-428005Y1121395D01*
G03X-393700Y1107186I34305J34305D01*
G01X-369383Y1107186D01*
G03X-134455Y1125536I115383J35814D01*
G03X-354316Y1210325I-119545J17464D01*
G01X-357402Y1213411D01*
G01X-357402Y1281275D01*
G03X-339000Y1276186I18402J30725D01*
G01X-169000Y1276186D01*
G03X-133186Y1312000I0J35814D01*
G01X-133186Y1482000D01*
G03X-169000Y1517814I-35814J0D01*
G01X-339000Y1517814D01*
G03X-357402Y1512725I0J-35814D01*
G01X-357402Y1633196D01*
G03X-250439Y1778323I-21692J127968D01*
G03X-391698Y1890344I-128655J-17159D01*
G03X-438919Y2062722I-114396J61319D01*
G01X-121569Y2062722D01*
G01X-121569Y259894D01*
G03X-201689Y343173I-128634J-43574D01*
G01X-201689Y526098D01*
G03X-258146Y755743I-52311J108902D01*
G03X-298717Y522767I4146J-120743D01*
G01X-298717Y343173D01*
G03X-385990Y213614I48514J-126853D01*
G01X-552714Y213614D01*
G03X-793486Y213614I-120386J-48514D01*
G01X-921014Y213614D01*
G03X-1110174Y275175I-120386J-48514D01*
G03X-1137788Y78175I68774J-110075D01*
G01X-1338712Y78175D01*
G03X-1435100Y294894I-96388J86925D01*
G03X-1531488Y78175I0J-129794D01*
G01X-1732412Y78175D01*
G03X-1850122Y293131I-96388J86925D01*
G01X-2152486Y595495D01*
G01X-2152486Y732700D01*
G03X-2188300Y768514I-35814J0D01*
G01X-2358300Y768514D01*
G03X-2394114Y732700I0J-35814D01*
G01X-2394114Y562700D01*
G03X-2358300Y526886I35814J0D01*
G01X-2221095Y526886D01*
G01X-1934556Y240347D01*
G03X-1925188Y78175I105756J-75247D01*
G01X-2408034Y78175D01*
G01X-2408034Y2062722D01*
G01X-2273300Y1288886D02*
G03X-2273300Y1530514I0J120814D01*
G03X-2273300Y1288886I0J-120814D01*
G01X-2273300Y780886D02*
G03X-2273300Y1022514I0J120814D01*
G03X-2273300Y780886I0J-120814D01*
G01X-2390522Y214264D02*
G03X-2118894Y214264I135814J0D01*
G03X-2390522Y214264I-135814J0D01*
G01X-549549Y1451729D02*
G03X-809137Y1451729I-129794J0D01*
G03X-549549Y1451729I129794J0D01*
G54D11*
G01X-2273300Y816954D02*
G01X-2273300Y791046D01*
G01X-2273300Y986446D02*
G01X-2273300Y1012354D01*
G01X-2358046Y901700D02*
G01X-2383954Y901700D01*
G01X-2188554Y901700D02*
G01X-2162646Y901700D01*
G01X-2354454Y214264D02*
G01X-2380362Y214264D01*
G01X-2154962Y214264D02*
G01X-2129054Y214264D01*
G01X-2254708Y314010D02*
G01X-2254708Y339918D01*
G01X-2254708Y114518D02*
G01X-2254708Y88610D01*
G01X-2233311Y1770519D02*
G01X-2259219Y1770519D01*
G01X-2139586Y1864245D02*
G01X-2139586Y1890153D01*
G01X-2139586Y1676794D02*
G01X-2139586Y1650886D01*
G01X-726819Y1761164D02*
G01X-752727Y1761164D01*
G01X-633093Y1854890D02*
G01X-633093Y1880798D01*
G01X-633093Y1667438D02*
G01X-633093Y1641530D01*
G01X-254000Y1481746D02*
G01X-254000Y1507654D01*
G01X-254000Y1312254D02*
G01X-254000Y1286346D01*
G01X-169254Y1397000D02*
G01X-143346Y1397000D01*
G04 Copper End*

G04 Pad Start*
G54D12*
G01X-1828800Y165100D03*
G01X-1828800Y1181100D03*
G01X-673100Y1181100D03*
G01X-673100Y165100D03*
G01X-679343Y1451729D03*
G01X-1695343Y1451729D03*
G01X-1041400Y1181100D03*
G01X-1041400Y165100D03*
G01X-1435100Y1181100D03*
G01X-1435100Y165100D03*
G54D13*
G01X-2273300Y647700D03*
G54D14*
G01X-2273300Y901700D03*
G01X-2273300Y1155700D03*
G01X-2273300Y1409700D03*
G54D13*
G01X-254000Y1397000D03*
G54D14*
G01X-254000Y1143000D03*
G01X-254000Y889000D03*
G01X-254000Y635000D03*
G54D16*
G01X-250203Y216320D03*
G01X-2254708Y214264D03*
G54D12*
G01X-1885586Y1770519D03*
G01X-2012586Y1961019D03*
G01X-2139586Y1770519D03*
G01X-379093Y1761164D03*
G01X-506093Y1951663D03*
G01X-633093Y1761164D03*
G04 Pad End*

G04 Via Start*
G54D17*
G01X-1897202Y1571668D03*
G01X-1897202Y555668D03*
G01X-1389202Y1571668D03*
G01X-1389202Y555668D03*
G01X-881202Y1063668D03*
G01X-881202Y1571668D03*
G01X-881202Y555668D03*
G01X-170504Y1956666D03*
G01X-506536Y567399D03*
G04 Via End*

G04 Track Start*
G54D11*
G01X-266700Y1155700D02*
G01X-254000Y1143000D01*
G01X-1041400Y1181100D02*
G01X-1435100Y1181100D01*
G01X-1435100Y1370833D01*
G01X-1834786Y1770519D01*
G01X-1885586Y1770519D01*
G01X-673100Y165100D02*
G01X-1041400Y165100D01*
G01X-673100Y165100D02*
G01X-301423Y165100D01*
G01X-250203Y216320D01*
G01X-250203Y631203D01*
G01X-254000Y635000D01*
G01X-1822343Y1324729D02*
G01X-2104271Y1324729D01*
G01X-2273300Y1155700D01*
G01X-1746143Y1400929D02*
G01X-1746143Y1299329D01*
G01X-1339743Y892929D01*
G01X-257929Y892929D01*
G01X-254000Y889000D01*
G01X-1828800Y165100D02*
G01X-1828800Y203200D01*
G01X-2273300Y647700D01*
G01X-2273300Y901700D02*
G01X-2400300Y1028700D01*
G01X-2400300Y1509805D01*
G01X-2139586Y1770519D01*
G01X-368300Y1155700D02*
G01X-266700Y1155700D01*
G01X-1695343Y1451729D02*
G01X-1746143Y1400929D01*
G01X-1822343Y1324729D01*
G01X-368300Y1155700D02*
G01X-405916Y1193316D01*
G01X-405916Y1734342D01*
G01X-379093Y1761164D01*
G01X-393700Y1155700D02*
G01X-368300Y1155700D01*
G01X-419100Y1181100D02*
G01X-393700Y1155700D01*
G01X-673100Y1181100D02*
G01X-419100Y1181100D01*
G04 Track End*

M02*

