G04 Layer: TopSilkscreenLayer*
G04 EasyEDA Pro v2.2.40.8, 2025-10-31 20:04:37*
G04 Gerber Generator version 0.3*
G04 Scale: 100 percent, Rotated: No, Reflected: No*
G04 Dimensions in millimeters*
G04 Leading zeros omitted, absolute positions, 4 integers and 5 decimals*
G04 Generated by one-click*
%FSLAX45Y45*%
%MOMM*%
%ADD10C,0.12*%
%ADD11C,0.1524*%
%ADD12C,0.254*%
%ADD13C,0.2032*%
%ADD14C,0.6229*%
G75*


G04 Text Start*
G54D10*
G01X-2115058Y628396D02*
G01X-2057146Y628396D01*
G01X-2115058Y628396D02*
G01X-2115058Y653034D01*
G01X-2112264Y661416D01*
G01X-2109470Y663956D01*
G01X-2103882Y666750D01*
G01X-2095754Y666750D01*
G01X-2090166Y663956D01*
G01X-2087626Y661416D01*
G01X-2084832Y653034D01*
G01X-2084832Y628396D01*
G01X-2115058Y691896D02*
G01X-2057146Y705612D01*
G01X-2115058Y719328D02*
G01X-2057146Y705612D01*
G01X-2115058Y719328D02*
G01X-2057146Y733298D01*
G01X-2115058Y747014D02*
G01X-2057146Y733298D01*
G01X-2115058Y772160D02*
G01X-2057146Y772160D01*
G01X-2115058Y772160D02*
G01X-2057146Y794258D01*
G01X-2115058Y816102D02*
G01X-2057146Y794258D01*
G01X-2115058Y816102D02*
G01X-2057146Y816102D01*
G01X-2101342Y944118D02*
G01X-2106676Y941324D01*
G01X-2112264Y935990D01*
G01X-2115058Y930402D01*
G01X-2115058Y919480D01*
G01X-2112264Y913892D01*
G01X-2106676Y908304D01*
G01X-2101342Y905764D01*
G01X-2092960Y902970D01*
G01X-2079244Y902970D01*
G01X-2071116Y905764D01*
G01X-2065528Y908304D01*
G01X-2059940Y913892D01*
G01X-2057146Y919480D01*
G01X-2057146Y930402D01*
G01X-2059940Y935990D01*
G01X-2065528Y941324D01*
G01X-2071116Y944118D01*
G01X-2079244Y944118D01*
G01X-2079244Y930402D02*
G01X-2079244Y944118D01*
G01X-2115058Y969264D02*
G01X-2057146Y969264D01*
G01X-2115058Y969264D02*
G01X-2057146Y1007872D01*
G01X-2115058Y1007872D02*
G01X-2057146Y1007872D01*
G01X-2115058Y1033018D02*
G01X-2057146Y1033018D01*
G01X-2115058Y1033018D02*
G01X-2115058Y1052322D01*
G01X-2112264Y1060450D01*
G01X-2106676Y1066038D01*
G01X-2101342Y1068832D01*
G01X-2092960Y1071626D01*
G01X-2079244Y1071626D01*
G01X-2071116Y1068832D01*
G01X-2065528Y1066038D01*
G01X-2059940Y1060450D01*
G01X-2057146Y1052322D01*
G01X-2057146Y1033018D01*
G01X-2115058Y1158494D02*
G01X-2057146Y1158494D01*
G01X-2115058Y1158494D02*
G01X-2115058Y1183132D01*
G01X-2112264Y1191514D01*
G01X-2109470Y1194054D01*
G01X-2103882Y1196848D01*
G01X-2098548Y1196848D01*
G01X-2092960Y1194054D01*
G01X-2090166Y1191514D01*
G01X-2087626Y1183132D01*
G01X-2087626Y1158494D01*
G01X-2087626Y1177798D02*
G01X-2057146Y1196848D01*
G01X-2115058Y1221994D02*
G01X-2057146Y1221994D01*
G01X-2115058Y1221994D02*
G01X-2115058Y1246886D01*
G01X-2112264Y1255014D01*
G01X-2109470Y1257808D01*
G01X-2103882Y1260602D01*
G01X-2095754Y1260602D01*
G01X-2090166Y1257808D01*
G01X-2087626Y1255014D01*
G01X-2084832Y1246886D01*
G01X-2084832Y1221994D01*
G01X-2115058Y1285748D02*
G01X-2057146Y1285748D01*
G01X-2115058Y1285748D02*
G01X-2057146Y1307846D01*
G01X-2115058Y1329690D02*
G01X-2057146Y1307846D01*
G01X-2115058Y1329690D02*
G01X-2057146Y1329690D01*
G01X-2115058Y1421892D02*
G01X-2115058Y1452118D01*
G01X-2092960Y1435862D01*
G01X-2092960Y1443990D01*
G01X-2090166Y1449578D01*
G01X-2087626Y1452118D01*
G01X-2079244Y1454912D01*
G01X-2073656Y1454912D01*
G01X-2065528Y1452118D01*
G01X-2059940Y1446784D01*
G01X-2057146Y1438402D01*
G01X-2057146Y1430274D01*
G01X-2059940Y1421892D01*
G01X-2062734Y1419352D01*
G01X-2068322Y1416558D01*
G01X-2071116Y1482852D02*
G01X-2068322Y1480058D01*
G01X-2065528Y1482852D01*
G01X-2068322Y1485646D01*
G01X-2071116Y1482852D01*
G01X-2115058Y1516380D02*
G01X-2115058Y1546606D01*
G01X-2092960Y1530096D01*
G01X-2092960Y1538224D01*
G01X-2090166Y1543812D01*
G01X-2087626Y1546606D01*
G01X-2079244Y1549400D01*
G01X-2073656Y1549400D01*
G01X-2065528Y1546606D01*
G01X-2059940Y1541018D01*
G01X-2057146Y1532890D01*
G01X-2057146Y1524508D01*
G01X-2059940Y1516380D01*
G01X-2062734Y1513586D01*
G01X-2068322Y1510792D01*
G01X-2115058Y1574546D02*
G01X-2057146Y1596644D01*
G01X-2115058Y1618488D02*
G01X-2057146Y1596644D01*
G01X-556082Y619602D02*
G01X-558876Y624936D01*
G01X-567258Y633318D01*
G01X-509346Y633318D01*
G01X-567258Y674974D02*
G01X-564464Y666846D01*
G01X-556082Y661258D01*
G01X-542366Y658464D01*
G01X-534238Y658464D01*
G01X-520522Y661258D01*
G01X-512140Y666846D01*
G01X-509346Y674974D01*
G01X-509346Y680562D01*
G01X-512140Y688690D01*
G01X-520522Y694278D01*
G01X-534238Y697072D01*
G01X-542366Y697072D01*
G01X-556082Y694278D01*
G01X-564464Y688690D01*
G01X-567258Y680562D01*
G01X-567258Y674974D01*
G01X-547954Y722218D02*
G01X-509346Y738728D01*
G01X-547954Y755238D02*
G01X-509346Y738728D01*
G01X-567258Y842106D02*
G01X-509346Y842106D01*
G01X-567258Y842106D02*
G01X-567258Y866744D01*
G01X-564464Y875126D01*
G01X-561670Y877666D01*
G01X-556082Y880460D01*
G01X-550748Y880460D01*
G01X-545160Y877666D01*
G01X-542366Y875126D01*
G01X-539826Y866744D01*
G01X-539826Y842106D01*
G01X-539826Y861410D02*
G01X-509346Y880460D01*
G01X-567258Y905606D02*
G01X-509346Y905606D01*
G01X-567258Y905606D02*
G01X-567258Y930498D01*
G01X-564464Y938626D01*
G01X-561670Y941420D01*
G01X-556082Y944214D01*
G01X-547954Y944214D01*
G01X-542366Y941420D01*
G01X-539826Y938626D01*
G01X-537032Y930498D01*
G01X-537032Y905606D01*
G01X-567258Y969360D02*
G01X-509346Y969360D01*
G01X-567258Y969360D02*
G01X-509346Y991458D01*
G01X-567258Y1013302D02*
G01X-509346Y991458D01*
G01X-567258Y1013302D02*
G01X-509346Y1013302D01*
G01X-567258Y1100170D02*
G01X-509346Y1100170D01*
G01X-567258Y1100170D02*
G01X-567258Y1124808D01*
G01X-564464Y1133190D01*
G01X-561670Y1135730D01*
G01X-556082Y1138524D01*
G01X-547954Y1138524D01*
G01X-542366Y1135730D01*
G01X-539826Y1133190D01*
G01X-537032Y1124808D01*
G01X-537032Y1100170D01*
G01X-567258Y1163670D02*
G01X-509346Y1177386D01*
G01X-567258Y1191102D02*
G01X-509346Y1177386D01*
G01X-567258Y1191102D02*
G01X-509346Y1205072D01*
G01X-567258Y1218788D02*
G01X-509346Y1205072D01*
G01X-567258Y1243934D02*
G01X-509346Y1243934D01*
G01X-567258Y1243934D02*
G01X-509346Y1266032D01*
G01X-567258Y1287876D02*
G01X-509346Y1266032D01*
G01X-567258Y1287876D02*
G01X-509346Y1287876D01*
G01X-553542Y1415892D02*
G01X-558876Y1413098D01*
G01X-564464Y1407764D01*
G01X-567258Y1402176D01*
G01X-567258Y1391254D01*
G01X-564464Y1385666D01*
G01X-558876Y1380078D01*
G01X-553542Y1377538D01*
G01X-545160Y1374744D01*
G01X-531444Y1374744D01*
G01X-523316Y1377538D01*
G01X-517728Y1380078D01*
G01X-512140Y1385666D01*
G01X-509346Y1391254D01*
G01X-509346Y1402176D01*
G01X-512140Y1407764D01*
G01X-517728Y1413098D01*
G01X-523316Y1415892D01*
G01X-531444Y1415892D01*
G01X-531444Y1402176D02*
G01X-531444Y1415892D01*
G01X-567258Y1441038D02*
G01X-509346Y1441038D01*
G01X-567258Y1441038D02*
G01X-509346Y1479646D01*
G01X-567258Y1479646D02*
G01X-509346Y1479646D01*
G01X-567258Y1504792D02*
G01X-509346Y1504792D01*
G01X-567258Y1504792D02*
G01X-567258Y1524096D01*
G01X-564464Y1532224D01*
G01X-558876Y1537812D01*
G01X-553542Y1540606D01*
G01X-545160Y1543400D01*
G01X-531444Y1543400D01*
G01X-523316Y1540606D01*
G01X-517728Y1537812D01*
G01X-512140Y1532224D01*
G01X-509346Y1524096D01*
G01X-509346Y1504792D01*
G36*
G01X-1031077Y2078361D02*
G01X-1031077Y2114119D01*
G01X-1026380Y2114119D01*
G01X-1021228Y2113816D01*
G01X-1020319Y2112756D01*
G01X-1019410Y2111392D01*
G01X-1017895Y2109271D01*
G01X-987895Y2064271D01*
G01X-986380Y2062149D01*
G01X-985471Y2060786D01*
G01X-984865Y2059725D01*
G01X-984259Y2059119D01*
G01X-983918Y2065710D01*
G01X-983804Y2085786D01*
G01X-983653Y2113362D01*
G01X-983501Y2114119D01*
G01X-974713Y2114119D01*
G01X-974713Y2042604D01*
G01X-979410Y2042604D01*
G01X-984410Y2042907D01*
G01X-985168Y2043816D01*
G01X-1011531Y2083361D01*
G01X-1013653Y2086392D01*
G01X-1020925Y2097301D01*
G01X-1021683Y2098210D01*
G01X-1021910Y2091354D01*
G01X-1021986Y2070483D01*
G01X-1021986Y2042604D01*
G01X-1031077Y2042604D01*
G01X-1031077Y2078361D01*
G37*
G36*
G01X-1383425Y2042718D02*
G01X-1384562Y2043058D01*
G01X-1385016Y2044271D01*
G01X-1385622Y2045937D01*
G01X-1386835Y2048968D01*
G01X-1388047Y2052301D01*
G01X-1389259Y2055331D01*
G01X-1390471Y2058664D01*
G01X-1391683Y2061695D01*
G01X-1392895Y2065028D01*
G01X-1394107Y2068058D01*
G01X-1395320Y2071392D01*
G01X-1396532Y2074422D01*
G01X-1397744Y2077755D01*
G01X-1398350Y2079270D01*
G01X-1399259Y2081695D01*
G01X-1399865Y2083210D01*
G01X-1401077Y2086543D01*
G01X-1401683Y2088058D01*
G01X-1402592Y2090483D01*
G01X-1403198Y2091998D01*
G01X-1403804Y2093664D01*
G01X-1404107Y2094422D01*
G01X-1399713Y2094422D01*
G01X-1394865Y2094119D01*
G01X-1394259Y2093058D01*
G01X-1393804Y2091695D01*
G01X-1393198Y2090180D01*
G01X-1392592Y2088361D01*
G01X-1390168Y2081695D01*
G01X-1389562Y2079877D01*
G01X-1388956Y2078361D01*
G01X-1388047Y2075634D01*
G01X-1387441Y2074119D01*
G01X-1386835Y2072301D01*
G01X-1386229Y2070786D01*
G01X-1385319Y2068058D01*
G01X-1384713Y2066543D01*
G01X-1384107Y2064725D01*
G01X-1382895Y2061392D01*
G01X-1382289Y2059574D01*
G01X-1381077Y2055634D01*
G01X-1380622Y2054271D01*
G01X-1380395Y2054081D01*
G01X-1380016Y2054422D01*
G01X-1379410Y2055786D01*
G01X-1377592Y2061240D01*
G01X-1376683Y2063664D01*
G01X-1376228Y2065028D01*
G01X-1375622Y2066543D01*
G01X-1375016Y2068361D01*
G01X-1374410Y2069877D01*
G01X-1373956Y2071240D01*
G01X-1372138Y2076089D01*
G01X-1371683Y2077452D01*
G01X-1371077Y2078967D01*
G01X-1370471Y2080786D01*
G01X-1369865Y2082301D01*
G01X-1369410Y2083664D01*
G01X-1368501Y2086089D01*
G01X-1368047Y2087452D01*
G01X-1367440Y2088967D01*
G01X-1366834Y2090786D01*
G01X-1366228Y2092301D01*
G01X-1365774Y2093664D01*
G01X-1365622Y2094422D01*
G01X-1356531Y2094422D01*
G01X-1357441Y2092149D01*
G01X-1358047Y2090483D01*
G01X-1358653Y2088967D01*
G01X-1359562Y2086543D01*
G01X-1360168Y2085028D01*
G01X-1361380Y2081695D01*
G01X-1361986Y2080180D01*
G01X-1364713Y2072907D01*
G01X-1365319Y2071392D01*
G01X-1365925Y2069725D01*
G01X-1366531Y2068210D01*
G01X-1367137Y2066543D01*
G01X-1368350Y2063513D01*
G01X-1368956Y2061695D01*
G01X-1369562Y2060180D01*
G01X-1371380Y2055331D01*
G01X-1371986Y2053816D01*
G01X-1373198Y2050483D01*
G01X-1373804Y2048968D01*
G01X-1374713Y2046543D01*
G01X-1375319Y2045028D01*
G01X-1375925Y2043361D01*
G01X-1376228Y2042604D01*
G01X-1380319Y2042604D01*
G01X-1383425Y2042718D01*
G37*
G36*
G01X-1319562Y2078361D02*
G01X-1319562Y2114119D01*
G01X-1294410Y2114119D01*
G01X-1268501Y2113968D01*
G01X-1267744Y2113816D01*
G01X-1267744Y2110483D01*
G01X-1267895Y2106392D01*
G01X-1268047Y2105634D01*
G01X-1310168Y2105634D01*
G01X-1310168Y2083816D01*
G01X-1270471Y2083816D01*
G01X-1270471Y2075331D01*
G01X-1310168Y2075331D01*
G01X-1310168Y2051089D01*
G01X-1266228Y2051089D01*
G01X-1266228Y2042604D01*
G01X-1319562Y2042604D01*
G01X-1319562Y2078361D01*
G37*
G36*
G01X-1222289Y2041392D02*
G01X-1226228Y2041543D01*
G01X-1228198Y2041846D01*
G01X-1230016Y2042149D01*
G01X-1231077Y2042301D01*
G01X-1232592Y2042604D01*
G01X-1233956Y2043058D01*
G01X-1235168Y2043361D01*
G01X-1236531Y2043816D01*
G01X-1237895Y2044422D01*
G01X-1239107Y2045028D01*
G01X-1240168Y2045634D01*
G01X-1241380Y2046392D01*
G01X-1242744Y2047301D01*
G01X-1243804Y2048210D01*
G01X-1247440Y2051846D01*
G01X-1248047Y2052604D01*
G01X-1248804Y2053664D01*
G01X-1249713Y2055028D01*
G01X-1250471Y2056392D01*
G01X-1251986Y2059422D01*
G01X-1252592Y2061089D01*
G01X-1253198Y2062604D01*
G01X-1253653Y2063968D01*
G01X-1254107Y2065786D01*
G01X-1254562Y2067301D01*
G01X-1255168Y2070331D01*
G01X-1255471Y2072452D01*
G01X-1255774Y2076392D01*
G01X-1255925Y2078967D01*
G01X-1255774Y2081543D01*
G01X-1255622Y2083058D01*
G01X-1255471Y2084877D01*
G01X-1255168Y2086998D01*
G01X-1254713Y2089422D01*
G01X-1254259Y2090937D01*
G01X-1253956Y2092301D01*
G01X-1253501Y2093816D01*
G01X-1253047Y2095028D01*
G01X-1252592Y2096089D01*
G01X-1251986Y2097452D01*
G01X-1251380Y2098665D01*
G01X-1250774Y2099725D01*
G01X-1250016Y2101089D01*
G01X-1249410Y2102149D01*
G01X-1248804Y2102907D01*
G01X-1247289Y2104725D01*
G01X-1243956Y2108059D01*
G01X-1242744Y2108968D01*
G01X-1241683Y2109725D01*
G01X-1240471Y2110483D01*
G01X-1239562Y2111089D01*
G01X-1238501Y2111695D01*
G01X-1237137Y2112301D01*
G01X-1235925Y2112756D01*
G01X-1234865Y2113210D01*
G01X-1233501Y2113665D01*
G01X-1231986Y2114119D01*
G01X-1230168Y2114574D01*
G01X-1228501Y2114877D01*
G01X-1226077Y2115180D01*
G01X-1222592Y2115331D01*
G01X-1218804Y2115180D01*
G01X-1216683Y2114877D01*
G01X-1214865Y2114574D01*
G01X-1213501Y2114271D01*
G01X-1211683Y2113816D01*
G01X-1210016Y2113210D01*
G01X-1206380Y2111392D01*
G01X-1205168Y2110634D01*
G01X-1203653Y2109574D01*
G01X-1202441Y2108665D01*
G01X-1199865Y2106089D01*
G01X-1198956Y2105028D01*
G01X-1197441Y2102907D01*
G01X-1196835Y2101846D01*
G01X-1195622Y2099422D01*
G01X-1195016Y2098058D01*
G01X-1194107Y2095634D01*
G01X-1193956Y2094725D01*
G01X-1194865Y2094271D01*
G01X-1196077Y2093968D01*
G01X-1197441Y2093664D01*
G01X-1199410Y2093210D01*
G01X-1202441Y2092452D01*
G01X-1202857Y2092452D01*
G01X-1203198Y2092755D01*
G01X-1203804Y2094119D01*
G01X-1204410Y2095634D01*
G01X-1205016Y2096998D01*
G01X-1205774Y2098362D01*
G01X-1206683Y2099725D01*
G01X-1207441Y2100786D01*
G01X-1208047Y2101543D01*
G01X-1210319Y2103816D01*
G01X-1212744Y2105331D01*
G01X-1213804Y2105786D01*
G01X-1215016Y2106240D01*
G01X-1216531Y2106695D01*
G01X-1217895Y2106998D01*
G01X-1221531Y2107301D01*
G01X-1222289Y2107301D01*
G01X-1224107Y2107149D01*
G01X-1226380Y2106998D01*
G01X-1229410Y2106392D01*
G01X-1231077Y2105937D01*
G01X-1232441Y2105331D01*
G01X-1235774Y2103665D01*
G01X-1236531Y2103059D01*
G01X-1237289Y2102301D01*
G01X-1238804Y2101089D01*
G01X-1240016Y2099574D01*
G01X-1240774Y2098816D01*
G01X-1241531Y2097604D01*
G01X-1242289Y2096543D01*
G01X-1242895Y2095331D01*
G01X-1243501Y2093816D01*
G01X-1243956Y2092604D01*
G01X-1244410Y2091089D01*
G01X-1244865Y2089725D01*
G01X-1245471Y2086998D01*
G01X-1245774Y2084574D01*
G01X-1246077Y2080634D01*
G01X-1246228Y2079422D01*
G01X-1246077Y2078210D01*
G01X-1245925Y2076240D01*
G01X-1245774Y2073361D01*
G01X-1245471Y2070937D01*
G01X-1244865Y2067907D01*
G01X-1244410Y2065937D01*
G01X-1243804Y2064119D01*
G01X-1243198Y2062604D01*
G01X-1242592Y2061240D01*
G01X-1241986Y2060028D01*
G01X-1241228Y2058816D01*
G01X-1240471Y2057755D01*
G01X-1240016Y2056998D01*
G01X-1239410Y2056240D01*
G01X-1238653Y2055483D01*
G01X-1237137Y2054271D01*
G01X-1236077Y2053361D01*
G01X-1234865Y2052604D01*
G01X-1232441Y2051392D01*
G01X-1231380Y2050937D01*
G01X-1230168Y2050483D01*
G01X-1228501Y2050028D01*
G01X-1226986Y2049725D01*
G01X-1223653Y2049574D01*
G01X-1219713Y2049725D01*
G01X-1217895Y2050028D01*
G01X-1216228Y2050483D01*
G01X-1214562Y2051089D01*
G01X-1212138Y2052301D01*
G01X-1211077Y2052907D01*
G01X-1210016Y2053664D01*
G01X-1208956Y2054574D01*
G01X-1207138Y2056392D01*
G01X-1206228Y2057604D01*
G01X-1205471Y2058664D01*
G01X-1204713Y2060028D01*
G01X-1204107Y2061240D01*
G01X-1203501Y2062604D01*
G01X-1202441Y2065786D01*
G01X-1202289Y2066846D01*
G01X-1201986Y2067452D01*
G01X-1200925Y2067301D01*
G01X-1199713Y2066998D01*
G01X-1198350Y2066695D01*
G01X-1196380Y2066240D01*
G01X-1194865Y2065786D01*
G01X-1193501Y2065483D01*
G01X-1192592Y2065331D01*
G01X-1194107Y2060786D01*
G01X-1194713Y2059271D01*
G01X-1195319Y2057907D01*
G01X-1196077Y2056392D01*
G01X-1197592Y2053968D01*
G01X-1198653Y2052452D01*
G01X-1199562Y2051240D01*
G01X-1200319Y2050483D01*
G01X-1200925Y2049725D01*
G01X-1201532Y2049119D01*
G01X-1202289Y2048513D01*
G01X-1203047Y2047755D01*
G01X-1203804Y2047149D01*
G01X-1204865Y2046392D01*
G01X-1206228Y2045483D01*
G01X-1207592Y2044725D01*
G01X-1208804Y2044119D01*
G01X-1210168Y2043513D01*
G01X-1213350Y2042452D01*
G01X-1216077Y2041846D01*
G01X-1218501Y2041543D01*
G01X-1222289Y2041392D01*
G37*
G36*
G01X-1152592Y2078361D02*
G01X-1152592Y2114119D01*
G01X-1104410Y2114119D01*
G01X-1104410Y2105634D01*
G01X-1143198Y2105634D01*
G01X-1143198Y2083513D01*
G01X-1109562Y2083513D01*
G01X-1109562Y2075028D01*
G01X-1143198Y2075028D01*
G01X-1143198Y2042604D01*
G01X-1152592Y2042604D01*
G01X-1152592Y2078361D01*
G37*
G36*
G01X-1100319Y2042604D02*
G01X-1105319Y2042755D01*
G01X-1104410Y2045028D01*
G01X-1103804Y2046695D01*
G01X-1103198Y2048210D01*
G01X-1102592Y2049877D01*
G01X-1101380Y2052907D01*
G01X-1100774Y2054574D01*
G01X-1100168Y2056089D01*
G01X-1099562Y2057755D01*
G01X-1098350Y2060786D01*
G01X-1097744Y2062452D01*
G01X-1097138Y2063968D01*
G01X-1096531Y2065634D01*
G01X-1095319Y2068664D01*
G01X-1094107Y2071998D01*
G01X-1094046Y2072149D01*
G01X-1084562Y2072149D01*
G01X-1073047Y2071998D01*
G01X-1061228Y2072149D01*
G01X-1060925Y2072377D01*
G01X-1060925Y2072755D01*
G01X-1061228Y2073816D01*
G01X-1068047Y2091998D01*
G01X-1068653Y2093513D01*
G01X-1069865Y2096846D01*
G01X-1070471Y2098665D01*
G01X-1071077Y2100180D01*
G01X-1071986Y2103210D01*
G01X-1072441Y2104574D01*
G01X-1072895Y2105483D01*
G01X-1073350Y2105331D01*
G01X-1073653Y2104574D01*
G01X-1073956Y2103210D01*
G01X-1074410Y2101240D01*
G01X-1074865Y2099725D01*
G01X-1075168Y2098513D01*
G01X-1076986Y2093058D01*
G01X-1082441Y2078513D01*
G01X-1082895Y2077149D01*
G01X-1083804Y2074725D01*
G01X-1084410Y2073210D01*
G01X-1084410Y2073210D01*
G01X-1084562Y2072149D01*
G01X-1094046Y2072149D01*
G01X-1092895Y2075028D01*
G01X-1092289Y2076695D01*
G01X-1091683Y2078210D01*
G01X-1091077Y2079877D01*
G01X-1089865Y2082907D01*
G01X-1089259Y2084574D01*
G01X-1088653Y2086089D01*
G01X-1088047Y2087755D01*
G01X-1086835Y2090786D01*
G01X-1086228Y2092452D01*
G01X-1085622Y2093968D01*
G01X-1085016Y2095634D01*
G01X-1083804Y2098665D01*
G01X-1083198Y2100331D01*
G01X-1082592Y2101846D01*
G01X-1081986Y2103513D01*
G01X-1081380Y2105028D01*
G01X-1079107Y2111089D01*
G01X-1078653Y2112150D01*
G01X-1078198Y2113362D01*
G01X-1078047Y2114119D01*
G01X-1073047Y2114119D01*
G01X-1069183Y2113968D01*
G01X-1067592Y2113513D01*
G01X-1066834Y2112150D01*
G01X-1064410Y2106089D01*
G01X-1063804Y2104725D01*
G01X-1062592Y2101695D01*
G01X-1062137Y2100483D01*
G01X-1061683Y2099422D01*
G01X-1061077Y2098058D01*
G01X-1059259Y2093513D01*
G01X-1058653Y2092149D01*
G01X-1056228Y2086089D01*
G01X-1055622Y2084725D01*
G01X-1054410Y2081695D01*
G01X-1053956Y2080483D01*
G01X-1053501Y2079422D01*
G01X-1052895Y2078058D01*
G01X-1051077Y2073513D01*
G01X-1050471Y2072149D01*
G01X-1048046Y2066089D01*
G01X-1047440Y2064725D01*
G01X-1046228Y2061695D01*
G01X-1045774Y2060483D01*
G01X-1045319Y2059422D01*
G01X-1044713Y2058058D01*
G01X-1042895Y2053513D01*
G01X-1042289Y2052149D01*
G01X-1039865Y2046089D01*
G01X-1039259Y2044725D01*
G01X-1038804Y2043361D01*
G01X-1038652Y2042604D01*
G01X-1043804Y2042604D01*
G01X-1047743Y2042718D01*
G01X-1049259Y2043058D01*
G01X-1049865Y2044119D01*
G01X-1050471Y2045634D01*
G01X-1051077Y2047301D01*
G01X-1051683Y2048816D01*
G01X-1052289Y2050483D01*
G01X-1053501Y2053513D01*
G01X-1054107Y2055180D01*
G01X-1054713Y2056695D01*
G01X-1055319Y2058361D01*
G01X-1055925Y2059877D01*
G01X-1056834Y2062301D01*
G01X-1057289Y2063664D01*
G01X-1057440Y2064422D01*
G01X-1071834Y2064422D01*
G01X-1086986Y2064271D01*
G01X-1087592Y2063968D01*
G01X-1087895Y2063361D01*
G01X-1088804Y2060937D01*
G01X-1089259Y2059574D01*
G01X-1089865Y2058058D01*
G01X-1090471Y2056240D01*
G01X-1091077Y2054725D01*
G01X-1091531Y2053361D01*
G01X-1092441Y2050937D01*
G01X-1092895Y2049574D01*
G01X-1093501Y2048058D01*
G01X-1094107Y2046240D01*
G01X-1094713Y2044725D01*
G01X-1095168Y2043361D01*
G01X-1095319Y2042604D01*
G01X-1100319Y2042604D01*
G37*
G36*
G01X-1484145Y1930899D02*
G01X-1485471Y1931240D01*
G01X-1485774Y1932604D01*
G01X-1486229Y1934574D01*
G01X-1486835Y1936695D01*
G01X-1487289Y1938210D01*
G01X-1487592Y1939574D01*
G01X-1488047Y1941392D01*
G01X-1488501Y1942755D01*
G01X-1488804Y1944119D01*
G01X-1489259Y1945937D01*
G01X-1489713Y1947301D01*
G01X-1490016Y1948816D01*
G01X-1490471Y1950483D01*
G01X-1490926Y1951998D01*
G01X-1491380Y1953967D01*
G01X-1491986Y1956089D01*
G01X-1492441Y1957604D01*
G01X-1492744Y1958967D01*
G01X-1493198Y1960786D01*
G01X-1493653Y1962149D01*
G01X-1493956Y1963664D01*
G01X-1494410Y1965331D01*
G01X-1494865Y1966846D01*
G01X-1495320Y1968816D01*
G01X-1495926Y1970937D01*
G01X-1496380Y1972452D01*
G01X-1496683Y1973967D01*
G01X-1497138Y1975634D01*
G01X-1497592Y1977149D01*
G01X-1498047Y1979119D01*
G01X-1498653Y1981240D01*
G01X-1499107Y1982755D01*
G01X-1499411Y1984119D01*
G01X-1499865Y1985937D01*
G01X-1500320Y1987301D01*
G01X-1500623Y1988664D01*
G01X-1501077Y1990483D01*
G01X-1501532Y1991846D01*
G01X-1501835Y1993210D01*
G01X-1502289Y1995028D01*
G01X-1502744Y1996392D01*
G01X-1503047Y1997907D01*
G01X-1503956Y2001240D01*
G01X-1504107Y2002301D01*
G01X-1499411Y2002301D01*
G01X-1495812Y2002187D01*
G01X-1494410Y2001846D01*
G01X-1493956Y2000331D01*
G01X-1493501Y1998210D01*
G01X-1492744Y1995180D01*
G01X-1492441Y1993664D01*
G01X-1491986Y1991543D01*
G01X-1491532Y1990028D01*
G01X-1491229Y1988513D01*
G01X-1490774Y1986392D01*
G01X-1490016Y1983361D01*
G01X-1489107Y1979270D01*
G01X-1488653Y1977301D01*
G01X-1487895Y1974270D01*
G01X-1487592Y1972755D01*
G01X-1487138Y1970634D01*
G01X-1486683Y1969119D01*
G01X-1486380Y1967604D01*
G01X-1485926Y1965483D01*
G01X-1485168Y1962452D01*
G01X-1484865Y1960937D01*
G01X-1484410Y1958816D01*
G01X-1483956Y1957301D01*
G01X-1483653Y1955786D01*
G01X-1483198Y1953664D01*
G01X-1482441Y1950634D01*
G01X-1481229Y1944574D01*
G01X-1481077Y1943513D01*
G01X-1480774Y1942301D01*
G01X-1480509Y1941922D01*
G01X-1480273Y1942016D01*
G01X-1480016Y1942755D01*
G01X-1479713Y1944119D01*
G01X-1479259Y1946089D01*
G01X-1478804Y1947604D01*
G01X-1478501Y1949119D01*
G01X-1478047Y1951240D01*
G01X-1477592Y1952755D01*
G01X-1476835Y1955786D01*
G01X-1473804Y1966392D01*
G01X-1473350Y1967907D01*
G01X-1473047Y1969119D01*
G01X-1472592Y1970786D01*
G01X-1472138Y1972149D01*
G01X-1471834Y1973361D01*
G01X-1471380Y1975028D01*
G01X-1470925Y1976392D01*
G01X-1470168Y1979422D01*
G01X-1467138Y1990028D01*
G01X-1466683Y1991543D01*
G01X-1466380Y1992755D01*
G01X-1465925Y1994422D01*
G01X-1465471Y1995786D01*
G01X-1465168Y1996998D01*
G01X-1464713Y1998665D01*
G01X-1464259Y2000028D01*
G01X-1463956Y2001392D01*
G01X-1463804Y2002301D01*
G01X-1458047Y2002301D01*
G01X-1453691Y2002149D01*
G01X-1452138Y2001695D01*
G01X-1451683Y2000180D01*
G01X-1451228Y1998816D01*
G01X-1450925Y1997452D01*
G01X-1450471Y1995937D01*
G01X-1449562Y1992604D01*
G01X-1449107Y1991240D01*
G01X-1448653Y1989574D01*
G01X-1448198Y1988210D01*
G01X-1447441Y1985180D01*
G01X-1443198Y1970331D01*
G01X-1442744Y1968816D01*
G01X-1442441Y1967452D01*
G01X-1441986Y1965937D01*
G01X-1441077Y1962604D01*
G01X-1440622Y1961089D01*
G01X-1440168Y1959119D01*
G01X-1439713Y1957604D01*
G01X-1439410Y1956089D01*
G01X-1438956Y1953967D01*
G01X-1438501Y1952149D01*
G01X-1437289Y1946089D01*
G01X-1436986Y1943967D01*
G01X-1436683Y1942149D01*
G01X-1436494Y1941922D01*
G01X-1436229Y1942149D01*
G01X-1435774Y1943816D01*
G01X-1435319Y1946089D01*
G01X-1434562Y1949119D01*
G01X-1433956Y1951846D01*
G01X-1433350Y1954270D01*
G01X-1433047Y1955634D01*
G01X-1432592Y1957604D01*
G01X-1432138Y1959119D01*
G01X-1431835Y1960483D01*
G01X-1431380Y1962452D01*
G01X-1430926Y1963967D01*
G01X-1430622Y1965483D01*
G01X-1430168Y1967604D01*
G01X-1429713Y1969119D01*
G01X-1429410Y1970483D01*
G01X-1428956Y1972452D01*
G01X-1428501Y1973967D01*
G01X-1428198Y1975331D01*
G01X-1427744Y1977301D01*
G01X-1427289Y1978816D01*
G01X-1426986Y1980331D01*
G01X-1426532Y1982452D01*
G01X-1426077Y1983967D01*
G01X-1425774Y1985331D01*
G01X-1425319Y1987301D01*
G01X-1424865Y1988816D01*
G01X-1424562Y1990180D01*
G01X-1424107Y1992149D01*
G01X-1423350Y1995180D01*
G01X-1423047Y1996543D01*
G01X-1422592Y1998513D01*
G01X-1422138Y2000028D01*
G01X-1421835Y2001392D01*
G01X-1421683Y2002301D01*
G01X-1412289Y2002301D01*
G01X-1412441Y2001695D01*
G01X-1412895Y2000028D01*
G01X-1413350Y1998513D01*
G01X-1414107Y1995483D01*
G01X-1414713Y1993361D01*
G01X-1415168Y1991846D01*
G01X-1415471Y1990483D01*
G01X-1415926Y1988967D01*
G01X-1419562Y1975634D01*
G01X-1420016Y1974119D01*
G01X-1420471Y1972301D01*
G01X-1420926Y1970937D01*
G01X-1421683Y1967907D01*
G01X-1422289Y1965786D01*
G01X-1422744Y1964270D01*
G01X-1423501Y1961240D01*
G01X-1424107Y1959119D01*
G01X-1424562Y1957604D01*
G01X-1425319Y1954574D01*
G01X-1426532Y1950331D01*
G01X-1426986Y1948816D01*
G01X-1427744Y1945786D01*
G01X-1428350Y1943664D01*
G01X-1428804Y1942149D01*
G01X-1429562Y1939119D01*
G01X-1430168Y1936998D01*
G01X-1430622Y1935483D01*
G01X-1430926Y1934119D01*
G01X-1431380Y1932604D01*
G01X-1431683Y1931392D01*
G01X-1432819Y1930937D01*
G01X-1436229Y1930786D01*
G01X-1440774Y1930786D01*
G01X-1441077Y1931543D01*
G01X-1441683Y1933361D01*
G01X-1442138Y1934877D01*
G01X-1442441Y1936089D01*
G01X-1442895Y1937755D01*
G01X-1443350Y1939119D01*
G01X-1443653Y1940483D01*
G01X-1444107Y1942301D01*
G01X-1444713Y1944271D01*
G01X-1445168Y1945786D01*
G01X-1445925Y1948816D01*
G01X-1447138Y1953058D01*
G01X-1447592Y1954574D01*
G01X-1447895Y1955937D01*
G01X-1448350Y1957452D01*
G01X-1449259Y1960786D01*
G01X-1449713Y1962301D01*
G01X-1450168Y1964119D01*
G01X-1450622Y1965483D01*
G01X-1451380Y1968513D01*
G01X-1452592Y1972755D01*
G01X-1453047Y1974270D01*
G01X-1453804Y1977301D01*
G01X-1455016Y1981543D01*
G01X-1455471Y1983058D01*
G01X-1455774Y1984422D01*
G01X-1456228Y1985937D01*
G01X-1457592Y1990937D01*
G01X-1458047Y1992452D01*
G01X-1458312Y1992717D01*
G01X-1458530Y1992587D01*
G01X-1458804Y1991846D01*
G01X-1459107Y1990483D01*
G01X-1459562Y1988513D01*
G01X-1460168Y1986392D01*
G01X-1460622Y1984877D01*
G01X-1461380Y1981846D01*
G01X-1463198Y1975483D01*
G01X-1463653Y1973967D01*
G01X-1463956Y1972604D01*
G01X-1464865Y1969573D01*
G01X-1465319Y1967755D01*
G01X-1465774Y1966392D01*
G01X-1466531Y1963361D01*
G01X-1467744Y1959119D01*
G01X-1468198Y1957604D01*
G01X-1468501Y1956392D01*
G01X-1468956Y1954725D01*
G01X-1469410Y1953361D01*
G01X-1470168Y1950331D01*
G01X-1471380Y1946089D01*
G01X-1471834Y1944574D01*
G01X-1472138Y1943210D01*
G01X-1473047Y1940180D01*
G01X-1473501Y1938361D01*
G01X-1473956Y1936998D01*
G01X-1474713Y1933968D01*
G01X-1475622Y1930786D01*
G01X-1480471Y1930786D01*
G01X-1484145Y1930899D01*
G37*
G36*
G01X-1564410Y1966543D02*
G01X-1564410Y1981240D01*
G01X-1555016Y1981240D01*
G01X-1554865Y1968513D01*
G01X-1544713Y1968361D01*
G01X-1533350Y1968513D01*
G01X-1530623Y1968816D01*
G01X-1528350Y1969270D01*
G01X-1526835Y1969877D01*
G01X-1525471Y1970483D01*
G01X-1524107Y1971240D01*
G01X-1523047Y1971998D01*
G01X-1521835Y1973513D01*
G01X-1521077Y1974573D01*
G01X-1520471Y1975937D01*
G01X-1520017Y1977301D01*
G01X-1519713Y1978513D01*
G01X-1519562Y1980786D01*
G01X-1519713Y1983058D01*
G01X-1520017Y1984725D01*
G01X-1520471Y1986392D01*
G01X-1521835Y1989119D01*
G01X-1522744Y1990180D01*
G01X-1523501Y1990937D01*
G01X-1524410Y1991695D01*
G01X-1525320Y1992301D01*
G01X-1526229Y1992755D01*
G01X-1527441Y1993210D01*
G01X-1528653Y1993513D01*
G01X-1529713Y1993664D01*
G01X-1542592Y1993816D01*
G01X-1555016Y1993816D01*
G01X-1555016Y1981240D01*
G01X-1555016Y1981240D01*
G01X-1564410Y1981240D01*
G01X-1564410Y2002301D01*
G01X-1548350Y2002301D01*
G01X-1530926Y2002149D01*
G01X-1528198Y2001846D01*
G01X-1526380Y2001543D01*
G01X-1525320Y2001392D01*
G01X-1524107Y2001089D01*
G01X-1522592Y2000634D01*
G01X-1521229Y2000180D01*
G01X-1518804Y1998968D01*
G01X-1517895Y1998362D01*
G01X-1517138Y1997755D01*
G01X-1516077Y1996998D01*
G01X-1515168Y1996089D01*
G01X-1514562Y1995331D01*
G01X-1513653Y1994271D01*
G01X-1512744Y1992907D01*
G01X-1511986Y1991543D01*
G01X-1511380Y1990180D01*
G01X-1510471Y1987452D01*
G01X-1510168Y1986240D01*
G01X-1510017Y1985180D01*
G01X-1509865Y1981998D01*
G01X-1510017Y1978816D01*
G01X-1510168Y1977755D01*
G01X-1510471Y1976089D01*
G01X-1511077Y1974119D01*
G01X-1511683Y1972452D01*
G01X-1512289Y1971240D01*
G01X-1512744Y1970180D01*
G01X-1514562Y1967452D01*
G01X-1516835Y1965180D01*
G01X-1517895Y1964270D01*
G01X-1519259Y1963361D01*
G01X-1520623Y1962604D01*
G01X-1522289Y1961998D01*
G01X-1524259Y1961392D01*
G01X-1525774Y1960937D01*
G01X-1529107Y1960331D01*
G01X-1532744Y1960028D01*
G01X-1544107Y1959877D01*
G01X-1555016Y1959877D01*
G01X-1555016Y1930786D01*
G01X-1564410Y1930786D01*
G01X-1564410Y1966543D01*
G37*
G36*
G01X-1403501Y1966543D02*
G01X-1403501Y2002301D01*
G01X-1396532Y2002301D01*
G01X-1389410Y2001998D01*
G01X-1388956Y2001089D01*
G01X-1386683Y1994271D01*
G01X-1386229Y1993058D01*
G01X-1385319Y1990331D01*
G01X-1384865Y1989119D01*
G01X-1370774Y1946846D01*
G01X-1369865Y1943816D01*
G01X-1369410Y1942452D01*
G01X-1369221Y1941922D01*
G01X-1368956Y1941846D01*
G01X-1368350Y1942907D01*
G01X-1364107Y1955634D01*
G01X-1363501Y1957149D01*
G01X-1360774Y1965331D01*
G01X-1360168Y1966846D01*
G01X-1357744Y1974119D01*
G01X-1356531Y1977452D01*
G01X-1354107Y1984725D01*
G01X-1353501Y1986240D01*
G01X-1350774Y1994422D01*
G01X-1350168Y1995937D01*
G01X-1348047Y2002301D01*
G01X-1335319Y2002301D01*
G01X-1335319Y1930786D01*
G01X-1344410Y1930786D01*
G01X-1344410Y1959725D01*
G01X-1344562Y1989119D01*
G01X-1344751Y1989309D01*
G01X-1345016Y1988967D01*
G01X-1345622Y1987452D01*
G01X-1346834Y1984119D01*
G01X-1348047Y1980483D01*
G01X-1349259Y1977149D01*
G01X-1350471Y1973513D01*
G01X-1351683Y1970180D01*
G01X-1353501Y1964725D01*
G01X-1354107Y1963210D01*
G01X-1355925Y1957755D01*
G01X-1356531Y1956240D01*
G01X-1358350Y1950786D01*
G01X-1359562Y1947452D01*
G01X-1360774Y1943816D01*
G01X-1361986Y1940483D01*
G01X-1363198Y1936846D01*
G01X-1364410Y1933513D01*
G01X-1365319Y1930786D01*
G01X-1369410Y1930786D01*
G01X-1372554Y1930899D01*
G01X-1373804Y1931240D01*
G01X-1374410Y1932604D01*
G01X-1375622Y1935937D01*
G01X-1379865Y1948664D01*
G01X-1380471Y1950180D01*
G01X-1380925Y1951695D01*
G01X-1381380Y1953058D01*
G01X-1381835Y1954270D01*
G01X-1385016Y1963816D01*
G01X-1385926Y1966240D01*
G01X-1390471Y1979876D01*
G01X-1391380Y1982301D01*
G01X-1393653Y1989119D01*
G01X-1394107Y1990028D01*
G01X-1394335Y1982717D01*
G01X-1394410Y1960483D01*
G01X-1394410Y1930786D01*
G01X-1403501Y1930786D01*
G01X-1403501Y1966543D01*
G37*
G36*
G01X-1282706Y1930937D02*
G01X-1283956Y1931392D01*
G01X-1284410Y1932604D01*
G01X-1285319Y1935634D01*
G01X-1285774Y1936998D01*
G01X-1286229Y1938664D01*
G01X-1287289Y1941846D01*
G01X-1287592Y1943058D01*
G01X-1288047Y1944422D01*
G01X-1289865Y1950483D01*
G01X-1290319Y1951846D01*
G01X-1290774Y1953513D01*
G01X-1291835Y1956695D01*
G01X-1292138Y1957907D01*
G01X-1292592Y1959270D01*
G01X-1296229Y1971392D01*
G01X-1297138Y1974119D01*
G01X-1299410Y1981695D01*
G01X-1299562Y1982604D01*
G01X-1295168Y1982604D01*
G01X-1290623Y1982301D01*
G01X-1290168Y1981089D01*
G01X-1289713Y1979725D01*
G01X-1288956Y1976695D01*
G01X-1288350Y1974573D01*
G01X-1287895Y1973058D01*
G01X-1287592Y1971695D01*
G01X-1287138Y1970180D01*
G01X-1286229Y1966846D01*
G01X-1285774Y1965331D01*
G01X-1285319Y1963513D01*
G01X-1284865Y1962149D01*
G01X-1284107Y1959119D01*
G01X-1283501Y1956998D01*
G01X-1283047Y1955483D01*
G01X-1282744Y1954119D01*
G01X-1282289Y1952604D01*
G01X-1280471Y1945937D01*
G01X-1279562Y1942907D01*
G01X-1279297Y1942528D01*
G01X-1279061Y1942622D01*
G01X-1278653Y1943967D01*
G01X-1278198Y1945483D01*
G01X-1277895Y1946846D01*
G01X-1277441Y1948816D01*
G01X-1276835Y1950937D01*
G01X-1276380Y1952452D01*
G01X-1276077Y1953967D01*
G01X-1270168Y1975634D01*
G01X-1269713Y1977149D01*
G01X-1269259Y1978967D01*
G01X-1268804Y1980331D01*
G01X-1268501Y1981695D01*
G01X-1268350Y1982604D01*
G01X-1264259Y1982604D01*
G01X-1259713Y1982452D01*
G01X-1259297Y1982074D01*
G01X-1258956Y1981240D01*
G01X-1258350Y1979119D01*
G01X-1257895Y1977604D01*
G01X-1257592Y1976240D01*
G01X-1257137Y1974270D01*
G01X-1256683Y1972755D01*
G01X-1256380Y1971240D01*
G01X-1255925Y1969573D01*
G01X-1255471Y1968058D01*
G01X-1255016Y1966089D01*
G01X-1254562Y1964573D01*
G01X-1254259Y1963210D01*
G01X-1253804Y1961392D01*
G01X-1253350Y1960028D01*
G01X-1253047Y1958664D01*
G01X-1252592Y1956695D01*
G01X-1252137Y1955180D01*
G01X-1251834Y1953816D01*
G01X-1251380Y1951998D01*
G01X-1250925Y1950634D01*
G01X-1250622Y1949270D01*
G01X-1250168Y1947301D01*
G01X-1249562Y1945180D01*
G01X-1249107Y1943664D01*
G01X-1248918Y1943437D01*
G01X-1248653Y1943664D01*
G01X-1248198Y1944877D01*
G01X-1247744Y1946543D01*
G01X-1246531Y1950483D01*
G01X-1246077Y1951846D01*
G01X-1245774Y1953210D01*
G01X-1245319Y1954725D01*
G01X-1244865Y1956089D01*
G01X-1244410Y1957755D01*
G01X-1243198Y1961695D01*
G01X-1242744Y1963058D01*
G01X-1242440Y1964270D01*
G01X-1241986Y1965937D01*
G01X-1240774Y1969877D01*
G01X-1240319Y1971240D01*
G01X-1240016Y1972604D01*
G01X-1237289Y1981695D01*
G01X-1237137Y1982604D01*
G01X-1232895Y1982604D01*
G01X-1229751Y1982490D01*
G01X-1228804Y1982149D01*
G01X-1229107Y1980937D01*
G01X-1230016Y1978210D01*
G01X-1230471Y1976543D01*
G01X-1231077Y1974725D01*
G01X-1232289Y1970786D01*
G01X-1233350Y1967604D01*
G01X-1233653Y1966392D01*
G01X-1234107Y1965028D01*
G01X-1235016Y1961998D01*
G01X-1235925Y1959270D01*
G01X-1236834Y1956240D01*
G01X-1237744Y1953513D01*
G01X-1239562Y1947452D01*
G01X-1240925Y1943361D01*
G01X-1241380Y1941695D01*
G01X-1241986Y1939877D01*
G01X-1243198Y1935937D01*
G01X-1244259Y1932755D01*
G01X-1244562Y1931543D01*
G01X-1244713Y1930786D01*
G01X-1249259Y1930786D01*
G01X-1252706Y1930899D01*
G01X-1253956Y1931240D01*
G01X-1254410Y1932755D01*
G01X-1255016Y1934877D01*
G01X-1255471Y1936392D01*
G01X-1255774Y1937755D01*
G01X-1256228Y1939574D01*
G01X-1256683Y1940937D01*
G01X-1256986Y1942301D01*
G01X-1257440Y1944119D01*
G01X-1257895Y1945483D01*
G01X-1258198Y1946846D01*
G01X-1258653Y1948664D01*
G01X-1259107Y1950028D01*
G01X-1259410Y1951392D01*
G01X-1259865Y1953210D01*
G01X-1260319Y1954574D01*
G01X-1260622Y1955937D01*
G01X-1261077Y1957907D01*
G01X-1261683Y1960028D01*
G01X-1262137Y1961543D01*
G01X-1262743Y1964270D01*
G01X-1263047Y1965786D01*
G01X-1263501Y1967907D01*
G01X-1263956Y1969422D01*
G01X-1264145Y1969649D01*
G01X-1264410Y1969422D01*
G01X-1264865Y1968513D01*
G01X-1265168Y1967149D01*
G01X-1265622Y1965180D01*
G01X-1266228Y1963058D01*
G01X-1266683Y1961543D01*
G01X-1266986Y1960180D01*
G01X-1267440Y1958361D01*
G01X-1267895Y1956998D01*
G01X-1268198Y1955634D01*
G01X-1268653Y1953664D01*
G01X-1269259Y1951543D01*
G01X-1269713Y1950028D01*
G01X-1270016Y1948664D01*
G01X-1270471Y1946846D01*
G01X-1270925Y1945483D01*
G01X-1271228Y1944119D01*
G01X-1271683Y1942149D01*
G01X-1272289Y1940028D01*
G01X-1272744Y1938513D01*
G01X-1273047Y1936998D01*
G01X-1273501Y1935331D01*
G01X-1273956Y1933816D01*
G01X-1274410Y1931846D01*
G01X-1274713Y1930786D01*
G01X-1279259Y1930786D01*
G01X-1282706Y1930937D01*
G37*
G36*
G01X-1226834Y1929649D02*
G01X-1227592Y1929877D01*
G01X-1227289Y1931089D01*
G01X-1226380Y1934119D01*
G01X-1225925Y1935937D01*
G01X-1225471Y1937301D01*
G01X-1225168Y1938664D01*
G01X-1224259Y1941695D01*
G01X-1223804Y1943513D01*
G01X-1223350Y1944877D01*
G01X-1223047Y1946240D01*
G01X-1222138Y1949270D01*
G01X-1221683Y1951089D01*
G01X-1221228Y1952452D01*
G01X-1220925Y1953816D01*
G01X-1220016Y1956846D01*
G01X-1219562Y1958664D01*
G01X-1219107Y1960028D01*
G01X-1218804Y1961240D01*
G01X-1218350Y1962907D01*
G01X-1217895Y1964270D01*
G01X-1217138Y1967301D01*
G01X-1215319Y1973664D01*
G01X-1214865Y1975180D01*
G01X-1214562Y1976392D01*
G01X-1214107Y1978058D01*
G01X-1213653Y1979422D01*
G01X-1212895Y1982452D01*
G01X-1211077Y1988816D01*
G01X-1210622Y1990331D01*
G01X-1210319Y1991543D01*
G01X-1209865Y1993210D01*
G01X-1209410Y1994574D01*
G01X-1209107Y1995937D01*
G01X-1208653Y1997452D01*
G01X-1207289Y2002452D01*
G01X-1207138Y2003513D01*
G01X-1200168Y2003513D01*
G01X-1200319Y2002755D01*
G01X-1200774Y2000937D01*
G01X-1201380Y1998816D01*
G01X-1201835Y1997301D01*
G01X-1202138Y1995937D01*
G01X-1203047Y1992907D01*
G01X-1203501Y1991089D01*
G01X-1203956Y1989725D01*
G01X-1204259Y1988361D01*
G01X-1205168Y1985331D01*
G01X-1205622Y1983513D01*
G01X-1206077Y1982149D01*
G01X-1206380Y1980786D01*
G01X-1207289Y1977755D01*
G01X-1207744Y1975937D01*
G01X-1208198Y1974573D01*
G01X-1208501Y1973210D01*
G01X-1209410Y1970180D01*
G01X-1209865Y1968361D01*
G01X-1210319Y1966998D01*
G01X-1210622Y1965634D01*
G01X-1211531Y1962604D01*
G01X-1211986Y1960786D01*
G01X-1212441Y1959422D01*
G01X-1212744Y1958058D01*
G01X-1213653Y1955028D01*
G01X-1214107Y1953210D01*
G01X-1214562Y1951846D01*
G01X-1214865Y1950483D01*
G01X-1215774Y1947452D01*
G01X-1216228Y1945634D01*
G01X-1216683Y1944271D01*
G01X-1217441Y1941240D01*
G01X-1219259Y1934877D01*
G01X-1219713Y1933361D01*
G01X-1220016Y1932149D01*
G01X-1220471Y1930483D01*
G01X-1220774Y1929574D01*
G01X-1224259Y1929574D01*
G01X-1226834Y1929649D01*
G37*
G36*
G01X-1174107Y1962301D02*
G01X-1174107Y1993816D01*
G01X-1185168Y1993816D01*
G01X-1196986Y1993968D01*
G01X-1197744Y1994119D01*
G01X-1197744Y2002301D01*
G01X-1140774Y2002301D01*
G01X-1140774Y1993816D01*
G01X-1164713Y1993816D01*
G01X-1164713Y1930786D01*
G01X-1174107Y1930786D01*
G01X-1174107Y1962301D01*
G37*
G36*
G01X-1146531Y1930786D02*
G01X-1146077Y1931846D01*
G01X-1145319Y1933513D01*
G01X-1144713Y1935028D01*
G01X-1143501Y1938361D01*
G01X-1142289Y1941392D01*
G01X-1141683Y1943058D01*
G01X-1141077Y1944574D01*
G01X-1140471Y1946240D01*
G01X-1139259Y1949270D01*
G01X-1138653Y1950937D01*
G01X-1138046Y1952452D01*
G01X-1137440Y1954119D01*
G01X-1136228Y1957149D01*
G01X-1135622Y1958816D01*
G01X-1135016Y1960331D01*
G01X-1134686Y1961240D01*
G01X-1125471Y1961240D01*
G01X-1125471Y1960331D01*
G01X-1113501Y1960180D01*
G01X-1104675Y1960293D01*
G01X-1101834Y1960634D01*
G01X-1102137Y1961695D01*
G01X-1108047Y1977452D01*
G01X-1108653Y1978967D01*
G01X-1109259Y1980786D01*
G01X-1109865Y1982301D01*
G01X-1110774Y1984725D01*
G01X-1111228Y1986089D01*
G01X-1112137Y1988513D01*
G01X-1113047Y1991240D01*
G01X-1113501Y1992907D01*
G01X-1114107Y1993968D01*
G01X-1114372Y1993854D01*
G01X-1114562Y1993210D01*
G01X-1115168Y1990483D01*
G01X-1115622Y1988664D01*
G01X-1116077Y1987301D01*
G01X-1116380Y1986089D01*
G01X-1118198Y1980634D01*
G01X-1125471Y1961240D01*
G01X-1125471Y1961240D01*
G01X-1134686Y1961240D01*
G01X-1134410Y1961998D01*
G01X-1133198Y1965028D01*
G01X-1132592Y1966695D01*
G01X-1131986Y1968210D01*
G01X-1131380Y1969877D01*
G01X-1130774Y1971392D01*
G01X-1129865Y1973816D01*
G01X-1129259Y1975331D01*
G01X-1128653Y1976998D01*
G01X-1128047Y1978513D01*
G01X-1127440Y1980180D01*
G01X-1126228Y1983210D01*
G01X-1125622Y1984877D01*
G01X-1125016Y1986392D01*
G01X-1124410Y1988058D01*
G01X-1123198Y1991089D01*
G01X-1122592Y1992755D01*
G01X-1121986Y1994271D01*
G01X-1121380Y1995937D01*
G01X-1120774Y1997452D01*
G01X-1119865Y1999877D01*
G01X-1119259Y2001392D01*
G01X-1118956Y2002301D01*
G01X-1108653Y2002301D01*
G01X-1105319Y1993968D01*
G01X-1104713Y1992604D01*
G01X-1103501Y1989574D01*
G01X-1102895Y1988210D01*
G01X-1099865Y1980634D01*
G01X-1099259Y1979270D01*
G01X-1098047Y1976240D01*
G01X-1097441Y1974876D01*
G01X-1095016Y1968816D01*
G01X-1094410Y1967452D01*
G01X-1093198Y1964422D01*
G01X-1092744Y1963210D01*
G01X-1092289Y1962149D01*
G01X-1091683Y1960786D01*
G01X-1089865Y1956240D01*
G01X-1089259Y1954877D01*
G01X-1086835Y1948816D01*
G01X-1086228Y1947452D01*
G01X-1085016Y1944422D01*
G01X-1084410Y1943058D01*
G01X-1081986Y1936998D01*
G01X-1081380Y1935634D01*
G01X-1080168Y1932604D01*
G01X-1079713Y1931392D01*
G01X-1079562Y1930786D01*
G01X-1084713Y1930786D01*
G01X-1090168Y1931089D01*
G01X-1090774Y1931998D01*
G01X-1091380Y1933513D01*
G01X-1091986Y1935180D01*
G01X-1092592Y1936695D01*
G01X-1093198Y1938361D01*
G01X-1094410Y1941392D01*
G01X-1095016Y1943058D01*
G01X-1095622Y1944574D01*
G01X-1096228Y1946240D01*
G01X-1096834Y1947755D01*
G01X-1097744Y1950180D01*
G01X-1098350Y1951695D01*
G01X-1098653Y1952604D01*
G01X-1113198Y1952604D01*
G01X-1128198Y1952452D01*
G01X-1128956Y1951392D01*
G01X-1129562Y1949877D01*
G01X-1130016Y1948513D01*
G01X-1130925Y1946089D01*
G01X-1131380Y1944725D01*
G01X-1131986Y1943210D01*
G01X-1132592Y1941392D01*
G01X-1133198Y1939877D01*
G01X-1133653Y1938513D01*
G01X-1134562Y1936089D01*
G01X-1135016Y1934725D01*
G01X-1135622Y1933210D01*
G01X-1136228Y1931543D01*
G01X-1136531Y1930786D01*
G01X-1146531Y1930786D01*
G37*
G36*
G01X-1041077Y1929574D02*
G01X-1044562Y1929725D01*
G01X-1045622Y1929877D01*
G01X-1046986Y1930028D01*
G01X-1050622Y1930634D01*
G01X-1051834Y1930937D01*
G01X-1053501Y1931392D01*
G01X-1055168Y1931998D01*
G01X-1056683Y1932604D01*
G01X-1058198Y1933361D01*
G01X-1059410Y1934119D01*
G01X-1060319Y1934574D01*
G01X-1061077Y1935180D01*
G01X-1062895Y1936695D01*
G01X-1066228Y1940028D01*
G01X-1067137Y1941240D01*
G01X-1067744Y1942149D01*
G01X-1069259Y1944574D01*
G01X-1070471Y1946998D01*
G01X-1071077Y1948361D01*
G01X-1071683Y1950180D01*
G01X-1072289Y1951695D01*
G01X-1072744Y1953210D01*
G01X-1073198Y1955180D01*
G01X-1073653Y1956695D01*
G01X-1074259Y1960937D01*
G01X-1074562Y1965483D01*
G01X-1074713Y1967452D01*
G01X-1074562Y1969422D01*
G01X-1074410Y1970634D01*
G01X-1074259Y1972755D01*
G01X-1073956Y1974876D01*
G01X-1073350Y1977907D01*
G01X-1072744Y1980331D01*
G01X-1072289Y1981998D01*
G01X-1071683Y1983513D01*
G01X-1071077Y1984877D01*
G01X-1069865Y1987301D01*
G01X-1069107Y1988664D01*
G01X-1068198Y1990028D01*
G01X-1067441Y1991089D01*
G01X-1066834Y1991998D01*
G01X-1066077Y1992907D01*
G01X-1063047Y1995937D01*
G01X-1061531Y1997149D01*
G01X-1060471Y1997907D01*
G01X-1059259Y1998665D01*
G01X-1058198Y1999271D01*
G01X-1055774Y2000483D01*
G01X-1053652Y2001392D01*
G01X-1052289Y2001846D01*
G01X-1050774Y2002301D01*
G01X-1048955Y2002755D01*
G01X-1047289Y2003059D01*
G01X-1044865Y2003362D01*
G01X-1041380Y2003513D01*
G01X-1037592Y2003362D01*
G01X-1035471Y2003059D01*
G01X-1033652Y2002755D01*
G01X-1032289Y2002452D01*
G01X-1030471Y2001998D01*
G01X-1028804Y2001392D01*
G01X-1027440Y2000786D01*
G01X-1026228Y2000180D01*
G01X-1025168Y1999574D01*
G01X-1023956Y1998816D01*
G01X-1021834Y1997301D01*
G01X-1020774Y1996392D01*
G01X-1018501Y1994119D01*
G01X-1017592Y1993058D01*
G01X-1016683Y1991695D01*
G01X-1015925Y1990483D01*
G01X-1015319Y1989574D01*
G01X-1014713Y1988513D01*
G01X-1014107Y1987149D01*
G01X-1013198Y1984725D01*
G01X-1012743Y1983361D01*
G01X-1012857Y1982755D01*
G01X-1013501Y1982452D01*
G01X-1016228Y1981846D01*
G01X-1018198Y1981392D01*
G01X-1021228Y1980634D01*
G01X-1021645Y1980672D01*
G01X-1021986Y1981089D01*
G01X-1023804Y1985180D01*
G01X-1024410Y1986392D01*
G01X-1025168Y1987604D01*
G01X-1025925Y1988664D01*
G01X-1026531Y1989422D01*
G01X-1029107Y1991998D01*
G01X-1030471Y1992907D01*
G01X-1031531Y1993513D01*
G01X-1032592Y1993968D01*
G01X-1033804Y1994422D01*
G01X-1035319Y1994877D01*
G01X-1036683Y1995180D01*
G01X-1040319Y1995483D01*
G01X-1041077Y1995483D01*
G01X-1042743Y1995331D01*
G01X-1045168Y1995180D01*
G01X-1046683Y1994877D01*
G01X-1048046Y1994574D01*
G01X-1049865Y1994119D01*
G01X-1051228Y1993513D01*
G01X-1053652Y1992301D01*
G01X-1054865Y1991543D01*
G01X-1056986Y1989725D01*
G01X-1058046Y1988664D01*
G01X-1058804Y1987755D01*
G01X-1059562Y1986998D01*
G01X-1060168Y1986089D01*
G01X-1061380Y1983967D01*
G01X-1062592Y1981240D01*
G01X-1063047Y1979725D01*
G01X-1063956Y1976392D01*
G01X-1064259Y1974876D01*
G01X-1064562Y1972452D01*
G01X-1064865Y1967907D01*
G01X-1064865Y1967149D01*
G01X-1064713Y1965028D01*
G01X-1064562Y1961846D01*
G01X-1064259Y1959422D01*
G01X-1063653Y1956392D01*
G01X-1063198Y1954422D01*
G01X-1062592Y1952604D01*
G01X-1061986Y1950937D01*
G01X-1061380Y1949422D01*
G01X-1060774Y1948210D01*
G01X-1060016Y1946998D01*
G01X-1059259Y1945937D01*
G01X-1057440Y1943664D01*
G01X-1055925Y1942452D01*
G01X-1054865Y1941543D01*
G01X-1053652Y1940786D01*
G01X-1051228Y1939574D01*
G01X-1048804Y1938664D01*
G01X-1047289Y1938210D01*
G01X-1045774Y1937907D01*
G01X-1042440Y1937755D01*
G01X-1038198Y1937907D01*
G01X-1035925Y1938361D01*
G01X-1034107Y1938967D01*
G01X-1032743Y1939574D01*
G01X-1030319Y1940786D01*
G01X-1029410Y1941392D01*
G01X-1027895Y1942604D01*
G01X-1025622Y1944877D01*
G01X-1024865Y1945937D01*
G01X-1024107Y1947149D01*
G01X-1023501Y1948210D01*
G01X-1022895Y1949422D01*
G01X-1022289Y1950786D01*
G01X-1021683Y1952452D01*
G01X-1021077Y1954574D01*
G01X-1020622Y1955634D01*
G01X-1019713Y1955483D01*
G01X-1018501Y1955180D01*
G01X-1017137Y1954877D01*
G01X-1015168Y1954422D01*
G01X-1013653Y1953967D01*
G01X-1012289Y1953664D01*
G01X-1011645Y1953475D01*
G01X-1011531Y1953210D01*
G01X-1011834Y1951998D01*
G01X-1012289Y1950483D01*
G01X-1012895Y1948967D01*
G01X-1013501Y1947301D01*
G01X-1014713Y1944877D01*
G01X-1015471Y1943513D01*
G01X-1016228Y1942301D01*
G01X-1016834Y1941392D01*
G01X-1017289Y1940634D01*
G01X-1017895Y1939877D01*
G01X-1018956Y1938816D01*
G01X-1019713Y1937755D01*
G01X-1020319Y1937301D01*
G01X-1021077Y1936695D01*
G01X-1022137Y1935634D01*
G01X-1023653Y1934574D01*
G01X-1025016Y1933664D01*
G01X-1026380Y1932907D01*
G01X-1027592Y1932301D01*
G01X-1028956Y1931695D01*
G01X-1032137Y1930634D01*
G01X-1034865Y1930028D01*
G01X-1037289Y1929725D01*
G01X-1041077Y1929574D01*
G37*
G36*
G01X-999259Y1966543D02*
G01X-999259Y2002301D01*
G01X-989865Y2002301D01*
G01X-989865Y1972907D01*
G01X-952592Y1972907D01*
G01X-952592Y2002301D01*
G01X-943198Y2002301D01*
G01X-943198Y1930786D01*
G01X-952592Y1930786D01*
G01X-952592Y1964422D01*
G01X-989865Y1964422D01*
G01X-989865Y1930786D01*
G01X-999259Y1930786D01*
G01X-999259Y1966543D01*
G37*
G36*
G01X-1488047Y2042604D02*
G01X-1488047Y2070028D01*
G01X-1488198Y2097907D01*
G01X-1488388Y2098172D01*
G01X-1488653Y2098058D01*
G01X-1489713Y2097149D01*
G01X-1491229Y2095937D01*
G01X-1492744Y2094877D01*
G01X-1494107Y2093968D01*
G01X-1495320Y2093210D01*
G01X-1496229Y2092604D01*
G01X-1499411Y2090786D01*
G01X-1501835Y2089574D01*
G01X-1503198Y2088967D01*
G01X-1504714Y2088361D01*
G01X-1505623Y2088058D01*
G01X-1505623Y2091695D01*
G01X-1505471Y2096089D01*
G01X-1505168Y2096733D01*
G01X-1504562Y2097149D01*
G01X-1502138Y2098362D01*
G01X-1500774Y2099119D01*
G01X-1498350Y2100634D01*
G01X-1496229Y2102149D01*
G01X-1494865Y2103210D01*
G01X-1493653Y2104119D01*
G01X-1492895Y2104877D01*
G01X-1491380Y2106089D01*
G01X-1490623Y2106846D01*
G01X-1488804Y2108968D01*
G01X-1488047Y2109725D01*
G01X-1487441Y2110483D01*
G01X-1486683Y2111543D01*
G01X-1485926Y2112756D01*
G01X-1485319Y2113816D01*
G01X-1484372Y2114271D01*
G01X-1482138Y2114422D01*
G01X-1479259Y2114422D01*
G01X-1479259Y2042604D01*
G01X-1488047Y2042604D01*
G37*
G36*
G01X-1433350Y2041392D02*
G01X-1436077Y2041543D01*
G01X-1437592Y2041846D01*
G01X-1439713Y2042301D01*
G01X-1441532Y2042907D01*
G01X-1443047Y2043513D01*
G01X-1445168Y2044574D01*
G01X-1445925Y2045180D01*
G01X-1447744Y2046695D01*
G01X-1449259Y2048210D01*
G01X-1450168Y2049422D01*
G01X-1451683Y2051695D01*
G01X-1452289Y2052755D01*
G01X-1452895Y2054119D01*
G01X-1454107Y2057149D01*
G01X-1454562Y2058664D01*
G01X-1455016Y2060634D01*
G01X-1455774Y2063664D01*
G01X-1456380Y2068513D01*
G01X-1456683Y2072452D01*
G01X-1456835Y2077452D01*
G01X-1456812Y2078210D01*
G01X-1447744Y2078210D01*
G01X-1447592Y2071543D01*
G01X-1447441Y2069877D01*
G01X-1447289Y2067604D01*
G01X-1446986Y2065180D01*
G01X-1446683Y2063361D01*
G01X-1446380Y2061846D01*
G01X-1445925Y2059725D01*
G01X-1445319Y2057907D01*
G01X-1444713Y2056392D01*
G01X-1443956Y2055028D01*
G01X-1443198Y2053816D01*
G01X-1442441Y2052907D01*
G01X-1440622Y2051089D01*
G01X-1439259Y2050180D01*
G01X-1438198Y2049574D01*
G01X-1436835Y2049119D01*
G01X-1436835Y2049119D01*
G01X-1435774Y2048816D01*
G01X-1433804Y2048665D01*
G01X-1430926Y2048968D01*
G01X-1429107Y2049574D01*
G01X-1427895Y2050180D01*
G01X-1426683Y2050937D01*
G01X-1425622Y2051846D01*
G01X-1424107Y2053361D01*
G01X-1423501Y2054119D01*
G01X-1422895Y2055028D01*
G01X-1422289Y2056089D01*
G01X-1421683Y2057452D01*
G01X-1420623Y2060634D01*
G01X-1420016Y2063968D01*
G01X-1419713Y2066089D01*
G01X-1419410Y2069422D01*
G01X-1419259Y2077452D01*
G01X-1419410Y2085483D01*
G01X-1419562Y2086695D01*
G01X-1419713Y2088816D01*
G01X-1420016Y2090937D01*
G01X-1420319Y2092755D01*
G01X-1420926Y2095786D01*
G01X-1421380Y2097452D01*
G01X-1421986Y2098816D01*
G01X-1423198Y2101240D01*
G01X-1423956Y2102301D01*
G01X-1425016Y2103362D01*
G01X-1425926Y2104422D01*
G01X-1426683Y2105028D01*
G01X-1427895Y2105786D01*
G01X-1429410Y2106543D01*
G01X-1430622Y2106998D01*
G01X-1432895Y2107149D01*
G01X-1435774Y2106998D01*
G01X-1437441Y2106543D01*
G01X-1438804Y2105937D01*
G01X-1440168Y2105180D01*
G01X-1441229Y2104422D01*
G01X-1442289Y2103362D01*
G01X-1443198Y2102149D01*
G01X-1443804Y2101240D01*
G01X-1445016Y2098816D01*
G01X-1445471Y2097604D01*
G01X-1445925Y2095937D01*
G01X-1446380Y2094574D01*
G01X-1446986Y2091240D01*
G01X-1447289Y2088513D01*
G01X-1447592Y2084877D01*
G01X-1447744Y2078210D01*
G01X-1456812Y2078210D01*
G01X-1456683Y2082452D01*
G01X-1456380Y2086695D01*
G01X-1456228Y2087907D01*
G01X-1456077Y2089422D01*
G01X-1455471Y2093058D01*
G01X-1455168Y2094271D01*
G01X-1454865Y2095634D01*
G01X-1454410Y2097452D01*
G01X-1453804Y2099271D01*
G01X-1453198Y2100634D01*
G01X-1452744Y2101695D01*
G01X-1452138Y2103059D01*
G01X-1450622Y2105483D01*
G01X-1449865Y2106543D01*
G01X-1448047Y2108816D01*
G01X-1447289Y2109574D01*
G01X-1445016Y2111392D01*
G01X-1443956Y2111998D01*
G01X-1442744Y2112604D01*
G01X-1441380Y2113210D01*
G01X-1440016Y2113665D01*
G01X-1437289Y2114271D01*
G01X-1434410Y2114422D01*
G01X-1430926Y2114271D01*
G01X-1429107Y2113968D01*
G01X-1427895Y2113665D01*
G01X-1426532Y2113362D01*
G01X-1425168Y2112907D01*
G01X-1421835Y2111240D01*
G01X-1421077Y2110634D01*
G01X-1419259Y2109119D01*
G01X-1417744Y2107604D01*
G01X-1416835Y2106392D01*
G01X-1415926Y2105028D01*
G01X-1415168Y2103816D01*
G01X-1414410Y2102301D01*
G01X-1413198Y2099574D01*
G01X-1412592Y2097755D01*
G01X-1411986Y2095786D01*
G01X-1411532Y2094271D01*
G01X-1410926Y2090937D01*
G01X-1410623Y2088513D01*
G01X-1410320Y2084877D01*
G01X-1410168Y2078513D01*
G01X-1410320Y2072149D01*
G01X-1410623Y2068513D01*
G01X-1410926Y2066089D01*
G01X-1411532Y2062452D01*
G01X-1411835Y2061089D01*
G01X-1412289Y2059271D01*
G01X-1413198Y2056543D01*
G01X-1413804Y2055028D01*
G01X-1414410Y2053664D01*
G01X-1415168Y2052149D01*
G01X-1416077Y2050634D01*
G01X-1416835Y2049574D01*
G01X-1418653Y2047301D01*
G01X-1419713Y2046240D01*
G01X-1421229Y2045028D01*
G01X-1422592Y2044119D01*
G01X-1423653Y2043513D01*
G01X-1425774Y2042604D01*
G01X-1427138Y2042149D01*
G01X-1428501Y2041846D01*
G01X-1430622Y2041543D01*
G01X-1433350Y2041392D01*
G37*
G01X-390389Y885807D02*
G01X-346447Y885807D01*
G01X-338065Y883013D01*
G01X-335271Y880219D01*
G01X-332477Y874885D01*
G01X-332477Y869297D01*
G01X-335271Y863709D01*
G01X-338065Y860915D01*
G01X-346447Y858375D01*
G01X-351781Y858375D01*
G01X-382007Y949561D02*
G01X-387595Y943973D01*
G01X-390389Y935845D01*
G01X-390389Y924669D01*
G01X-387595Y916541D01*
G01X-382007Y910953D01*
G01X-376673Y910953D01*
G01X-371085Y913747D01*
G01X-368291Y916541D01*
G01X-365497Y922129D01*
G01X-360163Y938385D01*
G01X-357369Y943973D01*
G01X-354575Y946767D01*
G01X-348987Y949561D01*
G01X-340859Y949561D01*
G01X-335271Y943973D01*
G01X-332477Y935845D01*
G01X-332477Y924669D01*
G01X-335271Y916541D01*
G01X-340859Y910953D01*
G01X-390389Y994011D02*
G01X-332477Y994011D01*
G01X-390389Y974707D02*
G01X-390389Y1013315D01*
G01X-357369Y1038461D02*
G01X-357369Y1087991D01*
G01X-390389Y1113137D02*
G01X-332477Y1113137D01*
G01X-390389Y1113137D02*
G01X-390389Y1138029D01*
G01X-387595Y1146157D01*
G01X-384801Y1148951D01*
G01X-379213Y1151745D01*
G01X-371085Y1151745D01*
G01X-365497Y1148951D01*
G01X-362957Y1146157D01*
G01X-360163Y1138029D01*
G01X-360163Y1113137D01*
G01X-390389Y1176891D02*
G01X-332477Y1176891D01*
G01X-390389Y1215499D02*
G01X-332477Y1215499D01*
G01X-362957Y1176891D02*
G01X-362957Y1215499D01*
G01X-376673Y1243439D02*
G01X-379213Y1243439D01*
G01X-384801Y1246233D01*
G01X-387595Y1249027D01*
G01X-390389Y1254361D01*
G01X-390389Y1265537D01*
G01X-387595Y1270871D01*
G01X-384801Y1273665D01*
G01X-379213Y1276459D01*
G01X-373879Y1276459D01*
G01X-368291Y1273665D01*
G01X-360163Y1268077D01*
G01X-332477Y1240645D01*
G01X-332477Y1279253D01*
G01X-346447Y1307193D02*
G01X-343653Y1304399D01*
G01X-340859Y1307193D01*
G01X-343653Y1309987D01*
G01X-346447Y1307193D01*
G01X-390389Y1351643D02*
G01X-387595Y1343515D01*
G01X-379213Y1337927D01*
G01X-365497Y1335133D01*
G01X-357369Y1335133D01*
G01X-343653Y1337927D01*
G01X-335271Y1343515D01*
G01X-332477Y1351643D01*
G01X-332477Y1357231D01*
G01X-335271Y1365359D01*
G01X-343653Y1370947D01*
G01X-357369Y1373741D01*
G01X-365497Y1373741D01*
G01X-379213Y1370947D01*
G01X-387595Y1365359D01*
G01X-390389Y1357231D01*
G01X-390389Y1351643D01*
G36*
G01X-1283262Y1832686D02*
G01X-1283262Y1831838D01*
G01X-1245444Y1831838D01*
G01X-1245444Y1838626D01*
G01X-1273323Y1838626D01*
G01X-1273201Y1839111D01*
G01X-1272838Y1839838D01*
G01X-1271383Y1841656D01*
G01X-1268959Y1844080D01*
G01X-1267262Y1845535D01*
G01X-1266656Y1846141D01*
G01X-1265686Y1846868D01*
G01X-1264838Y1847717D01*
G01X-1263626Y1848686D01*
G01X-1262171Y1849899D01*
G01X-1261565Y1850505D01*
G01X-1260595Y1851232D01*
G01X-1259747Y1852080D01*
G01X-1258292Y1853292D01*
G01X-1257080Y1854505D01*
G01X-1255868Y1855474D01*
G01X-1252232Y1859111D01*
G01X-1251504Y1860080D01*
G01X-1250656Y1860929D01*
G01X-1250171Y1861535D01*
G01X-1249808Y1862141D01*
G01X-1249323Y1862747D01*
G01X-1248838Y1863474D01*
G01X-1248232Y1864444D01*
G01X-1247141Y1866626D01*
G01X-1246777Y1867474D01*
G01X-1246535Y1868323D01*
G01X-1246171Y1869414D01*
G01X-1245929Y1870626D01*
G01X-1245808Y1871474D01*
G01X-1245686Y1873898D01*
G01X-1245808Y1876323D01*
G01X-1246050Y1877414D01*
G01X-1246414Y1878626D01*
G01X-1246898Y1879838D01*
G01X-1247504Y1881050D01*
G01X-1248232Y1882141D01*
G01X-1249080Y1883353D01*
G01X-1251141Y1885414D01*
G01X-1251989Y1886020D01*
G01X-1253080Y1886747D01*
G01X-1255262Y1887838D01*
G01X-1256232Y1888202D01*
G01X-1258171Y1888687D01*
G01X-1259383Y1888929D01*
G01X-1261080Y1889171D01*
G01X-1264353Y1889293D01*
G01X-1266898Y1889171D01*
G01X-1269565Y1888687D01*
G01X-1272111Y1887838D01*
G01X-1273201Y1887353D01*
G01X-1275141Y1886141D01*
G01X-1276111Y1885414D01*
G01X-1277565Y1883959D01*
G01X-1278292Y1883111D01*
G01X-1279020Y1882020D01*
G01X-1279626Y1880929D01*
G01X-1280111Y1880080D01*
G01X-1280474Y1879353D01*
G01X-1280838Y1878383D01*
G01X-1281202Y1877171D01*
G01X-1281444Y1876080D01*
G01X-1281686Y1874868D01*
G01X-1281929Y1873414D01*
G01X-1282050Y1872808D01*
G01X-1280959Y1872686D01*
G01X-1279383Y1872565D01*
G01X-1278535Y1872444D01*
G01X-1276111Y1872201D01*
G01X-1275262Y1872080D01*
G01X-1274898Y1872353D01*
G01X-1274777Y1873171D01*
G01X-1274656Y1874626D01*
G01X-1274414Y1875717D01*
G01X-1274050Y1876929D01*
G01X-1273565Y1878020D01*
G01X-1273080Y1878868D01*
G01X-1271626Y1880686D01*
G01X-1270898Y1881293D01*
G01X-1269201Y1882262D01*
G01X-1268111Y1882747D01*
G01X-1266898Y1883111D01*
G01X-1265686Y1883353D01*
G01X-1263141Y1883474D01*
G01X-1260838Y1883353D01*
G01X-1259747Y1882989D01*
G01X-1258535Y1882505D01*
G01X-1257565Y1882020D01*
G01X-1256838Y1881535D01*
G01X-1256232Y1881050D01*
G01X-1255626Y1880444D01*
G01X-1254171Y1878505D01*
G01X-1253686Y1877535D01*
G01X-1253201Y1876080D01*
G01X-1252959Y1873292D01*
G01X-1253201Y1870868D01*
G01X-1253565Y1869777D01*
G01X-1253929Y1868808D01*
G01X-1254414Y1867838D01*
G01X-1255020Y1866747D01*
G01X-1255747Y1865656D01*
G01X-1256353Y1864686D01*
G01X-1256959Y1864080D01*
G01X-1257929Y1862868D01*
G01X-1262777Y1858020D01*
G01X-1263747Y1857292D01*
G01X-1264595Y1856444D01*
G01X-1266050Y1855232D01*
G01X-1267747Y1853777D01*
G01X-1272111Y1850141D01*
G01X-1273323Y1848929D01*
G01X-1274777Y1847717D01*
G01X-1275989Y1846505D01*
G01X-1276717Y1845535D01*
G01X-1277565Y1844686D01*
G01X-1278292Y1843838D01*
G01X-1278899Y1842989D01*
G01X-1279383Y1842383D01*
G01X-1279989Y1841535D01*
G01X-1280717Y1840444D01*
G01X-1282293Y1837292D01*
G01X-1282777Y1835959D01*
G01X-1283141Y1834383D01*
G01X-1283262Y1832686D01*
G37*
G36*
G01X-1309202Y1832444D02*
G01X-1308959Y1831838D01*
G01X-1302414Y1831838D01*
G01X-1302293Y1832444D01*
G01X-1301929Y1833414D01*
G01X-1301565Y1834262D01*
G01X-1299020Y1841050D01*
G01X-1298535Y1842262D01*
G01X-1297565Y1844929D01*
G01X-1297080Y1846141D01*
G01X-1295626Y1850020D01*
G01X-1295141Y1851232D01*
G01X-1294171Y1853899D01*
G01X-1293687Y1855111D01*
G01X-1292959Y1857050D01*
G01X-1292474Y1858262D01*
G01X-1291505Y1860929D01*
G01X-1291020Y1862141D01*
G01X-1290293Y1864080D01*
G01X-1289808Y1865292D01*
G01X-1288838Y1867959D01*
G01X-1288353Y1869171D01*
G01X-1287262Y1872080D01*
G01X-1287020Y1872929D01*
G01X-1287808Y1873201D01*
G01X-1290414Y1873292D01*
G01X-1293929Y1873292D01*
G01X-1294171Y1872565D01*
G01X-1295141Y1869898D01*
G01X-1295626Y1868686D01*
G01X-1295990Y1867595D01*
G01X-1296717Y1865656D01*
G01X-1297080Y1864565D01*
G01X-1297565Y1863353D01*
G01X-1298050Y1861898D01*
G01X-1298535Y1860686D01*
G01X-1298899Y1859595D01*
G01X-1299626Y1857656D01*
G01X-1299990Y1856565D01*
G01X-1300474Y1855353D01*
G01X-1300959Y1853899D01*
G01X-1301444Y1852686D01*
G01X-1301808Y1851595D01*
G01X-1302535Y1849656D01*
G01X-1302899Y1848565D01*
G01X-1303383Y1847353D01*
G01X-1303868Y1845899D01*
G01X-1304353Y1844565D01*
G01X-1304838Y1843111D01*
G01X-1305323Y1841535D01*
G01X-1305808Y1840686D01*
G01X-1306020Y1840777D01*
G01X-1306171Y1841292D01*
G01X-1306414Y1842383D01*
G01X-1308717Y1849292D01*
G01X-1309686Y1851959D01*
G01X-1310171Y1853414D01*
G01X-1310656Y1854626D01*
G01X-1311020Y1855717D01*
G01X-1311747Y1857656D01*
G01X-1312111Y1858747D01*
G01X-1312838Y1860686D01*
G01X-1313565Y1862868D01*
G01X-1314050Y1864080D01*
G01X-1314535Y1865535D01*
G01X-1315020Y1866747D01*
G01X-1315747Y1868929D01*
G01X-1316232Y1870141D01*
G01X-1316717Y1871595D01*
G01X-1317323Y1872808D01*
G01X-1318474Y1873171D01*
G01X-1321202Y1873292D01*
G01X-1324717Y1873292D01*
G01X-1324596Y1872686D01*
G01X-1324232Y1871717D01*
G01X-1323868Y1870868D01*
G01X-1322050Y1866020D01*
G01X-1321565Y1864808D01*
G01X-1320596Y1862141D01*
G01X-1320111Y1860929D01*
G01X-1319383Y1858989D01*
G01X-1318899Y1857777D01*
G01X-1317929Y1855111D01*
G01X-1316959Y1852686D01*
G01X-1315989Y1850020D01*
G01X-1315020Y1847595D01*
G01X-1314050Y1844929D01*
G01X-1313080Y1842505D01*
G01X-1312111Y1839838D01*
G01X-1311141Y1837414D01*
G01X-1310171Y1834747D01*
G01X-1309686Y1833535D01*
G01X-1309202Y1832444D01*
G37*
G36*
G01X-1567056Y1707472D02*
G01X-1567056Y1707593D01*
G01X-1559541Y1707593D01*
G01X-1559420Y1685775D01*
G01X-1551783Y1685654D01*
G01X-1543904Y1685775D01*
G01X-1541480Y1686018D01*
G01X-1540268Y1686260D01*
G01X-1538692Y1686624D01*
G01X-1537359Y1687109D01*
G01X-1536268Y1687594D01*
G01X-1535177Y1688200D01*
G01X-1534329Y1688806D01*
G01X-1533723Y1689291D01*
G01X-1531904Y1691109D01*
G01X-1531298Y1691957D01*
G01X-1530692Y1692927D01*
G01X-1530207Y1693775D01*
G01X-1529844Y1694624D01*
G01X-1529480Y1695594D01*
G01X-1528995Y1696927D01*
G01X-1528510Y1698624D01*
G01X-1528147Y1700321D01*
G01X-1527904Y1701533D01*
G01X-1527662Y1704200D01*
G01X-1527541Y1707593D01*
G01X-1527662Y1710987D01*
G01X-1527783Y1712078D01*
G01X-1527904Y1713412D01*
G01X-1528147Y1714866D01*
G01X-1528389Y1716078D01*
G01X-1528632Y1717169D01*
G01X-1528995Y1718381D01*
G01X-1529359Y1719351D01*
G01X-1529723Y1720200D01*
G01X-1530207Y1721169D01*
G01X-1530813Y1722260D01*
G01X-1531420Y1723109D01*
G01X-1531904Y1723715D01*
G01X-1532632Y1724563D01*
G01X-1534086Y1726018D01*
G01X-1534935Y1726745D01*
G01X-1536026Y1727472D01*
G01X-1536995Y1727957D01*
G01X-1537965Y1728321D01*
G01X-1539177Y1728684D01*
G01X-1540268Y1728927D01*
G01X-1542450Y1729169D01*
G01X-1551177Y1729290D01*
G01X-1559541Y1729290D01*
G01X-1559541Y1707593D01*
G01X-1559541Y1707593D01*
G01X-1567056Y1707593D01*
G01X-1567056Y1736078D01*
G01X-1554814Y1736078D01*
G01X-1542207Y1735957D01*
G01X-1541359Y1735836D01*
G01X-1540026Y1735715D01*
G01X-1538571Y1735472D01*
G01X-1537359Y1735230D01*
G01X-1535420Y1734745D01*
G01X-1534207Y1734381D01*
G01X-1531056Y1732806D01*
G01X-1530207Y1732199D01*
G01X-1529601Y1731836D01*
G01X-1527783Y1730381D01*
G01X-1527177Y1729775D01*
G01X-1526207Y1728563D01*
G01X-1525601Y1727957D01*
G01X-1524995Y1727109D01*
G01X-1524268Y1726018D01*
G01X-1523662Y1725048D01*
G01X-1522692Y1723109D01*
G01X-1521965Y1721412D01*
G01X-1521601Y1720442D01*
G01X-1521238Y1719109D01*
G01X-1520874Y1718018D01*
G01X-1520389Y1715836D01*
G01X-1520147Y1714139D01*
G01X-1519904Y1712200D01*
G01X-1519783Y1708563D01*
G01X-1519904Y1704200D01*
G01X-1520147Y1702018D01*
G01X-1520389Y1700563D01*
G01X-1520510Y1699715D01*
G01X-1520753Y1698381D01*
G01X-1521116Y1697169D01*
G01X-1521359Y1696200D01*
G01X-1522086Y1694018D01*
G01X-1522450Y1693048D01*
G01X-1523177Y1691351D01*
G01X-1524632Y1688806D01*
G01X-1525116Y1688078D01*
G01X-1525480Y1687472D01*
G01X-1525965Y1686866D01*
G01X-1526813Y1686018D01*
G01X-1527541Y1685048D01*
G01X-1528147Y1684442D01*
G01X-1529965Y1682987D01*
G01X-1530692Y1682503D01*
G01X-1531662Y1681897D01*
G01X-1532753Y1681291D01*
G01X-1533965Y1680806D01*
G01X-1535420Y1680321D01*
G01X-1536632Y1679957D01*
G01X-1538814Y1679472D01*
G01X-1540511Y1679230D01*
G01X-1542935Y1678987D01*
G01X-1555177Y1678866D01*
G01X-1567056Y1678866D01*
G01X-1567056Y1707472D01*
G37*
G36*
G01X-1492995Y1677897D02*
G01X-1494692Y1678018D01*
G01X-1495541Y1678139D01*
G01X-1496631Y1678260D01*
G01X-1497844Y1678503D01*
G01X-1499419Y1678866D01*
G01X-1500753Y1679351D01*
G01X-1501965Y1679836D01*
G01X-1502935Y1680321D01*
G01X-1503783Y1680806D01*
G01X-1504510Y1681291D01*
G01X-1505116Y1681654D01*
G01X-1505722Y1682139D01*
G01X-1508147Y1684563D01*
G01X-1508753Y1685412D01*
G01X-1509359Y1686381D01*
G01X-1510328Y1688078D01*
G01X-1510813Y1689169D01*
G01X-1511298Y1690503D01*
G01X-1511662Y1691594D01*
G01X-1512147Y1693775D01*
G01X-1512389Y1695715D01*
G01X-1512510Y1698503D01*
G01X-1512389Y1702018D01*
G01X-1512147Y1703957D01*
G01X-1512026Y1704684D01*
G01X-1504753Y1704684D01*
G01X-1504631Y1703715D01*
G01X-1493480Y1703593D01*
G01X-1482086Y1703715D01*
G01X-1481844Y1703897D01*
G01X-1481844Y1704200D01*
G01X-1482086Y1705897D01*
G01X-1482329Y1706987D01*
G01X-1482692Y1708200D01*
G01X-1483056Y1709169D01*
G01X-1483419Y1710018D01*
G01X-1483783Y1710745D01*
G01X-1484268Y1711351D01*
G01X-1486207Y1713290D01*
G01X-1487298Y1714018D01*
G01X-1488147Y1714503D01*
G01X-1489238Y1714987D01*
G01X-1490328Y1715351D01*
G01X-1492632Y1715472D01*
G01X-1495177Y1715351D01*
G01X-1497116Y1714866D01*
G01X-1498086Y1714503D01*
G01X-1498935Y1714018D01*
G01X-1500025Y1713290D01*
G01X-1500995Y1712563D01*
G01X-1501844Y1711715D01*
G01X-1502571Y1710745D01*
G01X-1503056Y1710018D01*
G01X-1503541Y1709048D01*
G01X-1504025Y1707957D01*
G01X-1504389Y1706866D01*
G01X-1504631Y1705897D01*
G01X-1504753Y1704684D01*
G01X-1504753Y1704684D01*
G01X-1512026Y1704684D01*
G01X-1511904Y1705412D01*
G01X-1511662Y1706381D01*
G01X-1511419Y1707472D01*
G01X-1511056Y1708806D01*
G01X-1510571Y1710018D01*
G01X-1509601Y1711957D01*
G01X-1508995Y1713048D01*
G01X-1508389Y1713896D01*
G01X-1507419Y1715109D01*
G01X-1505359Y1717169D01*
G01X-1504389Y1717896D01*
G01X-1503541Y1718503D01*
G01X-1502450Y1719109D01*
G01X-1501480Y1719593D01*
G01X-1500389Y1720078D01*
G01X-1498813Y1720563D01*
G01X-1497601Y1720927D01*
G01X-1495904Y1721169D01*
G01X-1493844Y1721290D01*
G01X-1491298Y1721169D01*
G01X-1489601Y1720927D01*
G01X-1487904Y1720563D01*
G01X-1486328Y1720078D01*
G01X-1485238Y1719593D01*
G01X-1482571Y1718260D01*
G01X-1480753Y1716806D01*
G01X-1479298Y1715351D01*
G01X-1478329Y1714139D01*
G01X-1477480Y1712927D01*
G01X-1476874Y1711957D01*
G01X-1476147Y1710260D01*
G01X-1475783Y1709290D01*
G01X-1475419Y1708200D01*
G01X-1475056Y1706987D01*
G01X-1474813Y1705897D01*
G01X-1474571Y1704200D01*
G01X-1474329Y1700806D01*
G01X-1474207Y1699957D01*
G01X-1474329Y1698624D01*
G01X-1474450Y1697775D01*
G01X-1489480Y1697775D01*
G01X-1504874Y1697654D01*
G01X-1505116Y1697290D01*
G01X-1505116Y1696442D01*
G01X-1504874Y1694745D01*
G01X-1504389Y1692806D01*
G01X-1504025Y1691715D01*
G01X-1503541Y1690624D01*
G01X-1502935Y1689412D01*
G01X-1501722Y1687715D01*
G01X-1500753Y1686624D01*
G01X-1499783Y1685897D01*
G01X-1499177Y1685412D01*
G01X-1498328Y1684927D01*
G01X-1497238Y1684442D01*
G01X-1496025Y1684078D01*
G01X-1494935Y1683836D01*
G01X-1492995Y1683715D01*
G01X-1491056Y1683836D01*
G01X-1490086Y1683957D01*
G01X-1489116Y1684200D01*
G01X-1488268Y1684563D01*
G01X-1487541Y1684927D01*
G01X-1486692Y1685412D01*
G01X-1485844Y1686018D01*
G01X-1485116Y1686624D01*
G01X-1484268Y1687472D01*
G01X-1483541Y1688563D01*
G01X-1482935Y1689533D01*
G01X-1482450Y1690503D01*
G01X-1481965Y1691594D01*
G01X-1481692Y1692018D01*
G01X-1481359Y1692078D01*
G01X-1476995Y1691594D01*
G01X-1475662Y1691472D01*
G01X-1474692Y1691230D01*
G01X-1474935Y1690260D01*
G01X-1475419Y1688927D01*
G01X-1475904Y1687836D01*
G01X-1476389Y1686866D01*
G01X-1476995Y1685775D01*
G01X-1477601Y1684927D01*
G01X-1479056Y1683109D01*
G01X-1479904Y1682260D01*
G01X-1481844Y1680806D01*
G01X-1483056Y1680078D01*
G01X-1484025Y1679594D01*
G01X-1484995Y1679230D01*
G01X-1486086Y1678866D01*
G01X-1487419Y1678503D01*
G01X-1488632Y1678260D01*
G01X-1491056Y1678018D01*
G01X-1492995Y1677897D01*
G37*
G36*
G01X-1451419Y1677897D02*
G01X-1453601Y1678018D01*
G01X-1454935Y1678260D01*
G01X-1456389Y1678503D01*
G01X-1457601Y1678745D01*
G01X-1458935Y1679109D01*
G01X-1460026Y1679594D01*
G01X-1460995Y1680078D01*
G01X-1462086Y1680684D01*
G01X-1462935Y1681291D01*
G01X-1464147Y1682260D01*
G01X-1464995Y1683109D01*
G01X-1465722Y1684078D01*
G01X-1466329Y1685048D01*
G01X-1466935Y1686139D01*
G01X-1467419Y1687230D01*
G01X-1467904Y1688684D01*
G01X-1468268Y1689897D01*
G01X-1468389Y1690745D01*
G01X-1468238Y1691139D01*
G01X-1467783Y1691351D01*
G01X-1466571Y1691594D01*
G01X-1464874Y1691836D01*
G01X-1463419Y1692078D01*
G01X-1462329Y1692200D01*
G01X-1461753Y1692078D01*
G01X-1461480Y1691715D01*
G01X-1461116Y1690503D01*
G01X-1460632Y1689169D01*
G01X-1460026Y1687957D01*
G01X-1459419Y1687109D01*
G01X-1458935Y1686503D01*
G01X-1458329Y1685897D01*
G01X-1457601Y1685412D01*
G01X-1455662Y1684442D01*
G01X-1454329Y1684078D01*
G01X-1452995Y1683836D01*
G01X-1450813Y1683715D01*
G01X-1448389Y1683836D01*
G01X-1447177Y1684078D01*
G01X-1445965Y1684442D01*
G01X-1444874Y1684927D01*
G01X-1444025Y1685412D01*
G01X-1443298Y1685897D01*
G01X-1442692Y1686503D01*
G01X-1442207Y1687109D01*
G01X-1441722Y1688078D01*
G01X-1441359Y1689169D01*
G01X-1441238Y1690139D01*
G01X-1441359Y1691109D01*
G01X-1441722Y1692078D01*
G01X-1442207Y1692927D01*
G01X-1442692Y1693533D01*
G01X-1443419Y1694139D01*
G01X-1444389Y1694624D01*
G01X-1445601Y1695109D01*
G01X-1447177Y1695594D01*
G01X-1448874Y1696078D01*
G01X-1450086Y1696442D01*
G01X-1451298Y1696684D01*
G01X-1452632Y1697048D01*
G01X-1453844Y1697412D01*
G01X-1455298Y1697775D01*
G01X-1456389Y1698139D01*
G01X-1457359Y1698381D01*
G01X-1460268Y1699472D01*
G01X-1462935Y1700806D01*
G01X-1463541Y1701290D01*
G01X-1464995Y1702745D01*
G01X-1465722Y1703715D01*
G01X-1466207Y1704442D01*
G01X-1466692Y1705533D01*
G01X-1467056Y1706624D01*
G01X-1467298Y1708563D01*
G01X-1467298Y1709775D01*
G01X-1467056Y1711472D01*
G01X-1466692Y1712806D01*
G01X-1466207Y1713896D01*
G01X-1465722Y1714866D01*
G01X-1465116Y1715836D01*
G01X-1464389Y1716684D01*
G01X-1463177Y1717896D01*
G01X-1462207Y1718624D01*
G01X-1460995Y1719351D01*
G01X-1459904Y1719836D01*
G01X-1458935Y1720200D01*
G01X-1457601Y1720563D01*
G01X-1456389Y1720927D01*
G01X-1454450Y1721169D01*
G01X-1452389Y1721290D01*
G01X-1449844Y1721169D01*
G01X-1447904Y1720927D01*
G01X-1445965Y1720563D01*
G01X-1444753Y1720200D01*
G01X-1443662Y1719836D01*
G01X-1442450Y1719351D01*
G01X-1441480Y1718866D01*
G01X-1440510Y1718260D01*
G01X-1439662Y1717654D01*
G01X-1438935Y1717048D01*
G01X-1438086Y1716078D01*
G01X-1437359Y1714987D01*
G01X-1436874Y1714018D01*
G01X-1436147Y1712078D01*
G01X-1435783Y1710745D01*
G01X-1435844Y1710048D01*
G01X-1436268Y1709654D01*
G01X-1437965Y1709290D01*
G01X-1441359Y1708806D01*
G01X-1442207Y1708836D01*
G01X-1442571Y1709169D01*
G01X-1442935Y1710381D01*
G01X-1443419Y1711472D01*
G01X-1443783Y1712200D01*
G01X-1444268Y1712806D01*
G01X-1444874Y1713412D01*
G01X-1445601Y1714018D01*
G01X-1446692Y1714624D01*
G01X-1447904Y1715109D01*
G01X-1448874Y1715351D01*
G01X-1451419Y1715472D01*
G01X-1453965Y1715351D01*
G01X-1454813Y1715230D01*
G01X-1456026Y1714987D01*
G01X-1457844Y1714381D01*
G01X-1458450Y1713896D01*
G01X-1459662Y1712684D01*
G01X-1460147Y1711957D01*
G01X-1460510Y1710745D01*
G01X-1460389Y1709169D01*
G01X-1459783Y1707836D01*
G01X-1459056Y1706987D01*
G01X-1458450Y1706503D01*
G01X-1457601Y1706018D01*
G01X-1456268Y1705533D01*
G01X-1454692Y1705048D01*
G01X-1453480Y1704684D01*
G01X-1452389Y1704442D01*
G01X-1451177Y1704078D01*
G01X-1448510Y1703351D01*
G01X-1447419Y1702987D01*
G01X-1446086Y1702624D01*
G01X-1444995Y1702260D01*
G01X-1444025Y1702018D01*
G01X-1442935Y1701654D01*
G01X-1441722Y1701169D01*
G01X-1440389Y1700684D01*
G01X-1439177Y1700078D01*
G01X-1438086Y1699351D01*
G01X-1437238Y1698745D01*
G01X-1436631Y1698139D01*
G01X-1435904Y1697169D01*
G01X-1435177Y1696078D01*
G01X-1434692Y1694866D01*
G01X-1434328Y1693775D01*
G01X-1434086Y1691594D01*
G01X-1434086Y1690987D01*
G01X-1434207Y1690018D01*
G01X-1434450Y1688442D01*
G01X-1434934Y1686866D01*
G01X-1435541Y1685533D01*
G01X-1436147Y1684563D01*
G01X-1436631Y1683836D01*
G01X-1437601Y1682624D01*
G01X-1438450Y1681775D01*
G01X-1439662Y1680927D01*
G01X-1440631Y1680321D01*
G01X-1441601Y1679836D01*
G01X-1442692Y1679351D01*
G01X-1443783Y1678987D01*
G01X-1445238Y1678624D01*
G01X-1446450Y1678260D01*
G01X-1449359Y1678018D01*
G01X-1451419Y1677897D01*
G37*
G36*
G01X-1425722Y1699594D02*
G01X-1425722Y1720321D01*
G01X-1418692Y1720321D01*
G01X-1418692Y1678866D01*
G01X-1425722Y1678866D01*
G01X-1425722Y1699594D01*
G37*
G36*
G01X-986601Y1678957D02*
G01X-987540Y1679230D01*
G01X-987782Y1680078D01*
G01X-989237Y1683957D01*
G01X-989601Y1684806D01*
G01X-989964Y1685775D01*
G01X-990328Y1686866D01*
G01X-991782Y1690503D01*
G01X-992752Y1693169D01*
G01X-993722Y1695594D01*
G01X-994692Y1698260D01*
G01X-995661Y1700684D01*
G01X-996631Y1703351D01*
G01X-997601Y1705775D01*
G01X-998570Y1708442D01*
G01X-999540Y1710866D01*
G01X-1000510Y1713533D01*
G01X-1000995Y1714745D01*
G01X-1002449Y1718624D01*
G01X-1002813Y1719715D01*
G01X-1002934Y1720321D01*
G01X-995661Y1720321D01*
G01X-995419Y1719715D01*
G01X-993964Y1715715D01*
G01X-993479Y1714260D01*
G01X-992995Y1713048D01*
G01X-992267Y1710866D01*
G01X-991782Y1709654D01*
G01X-991298Y1708200D01*
G01X-990813Y1706987D01*
G01X-990085Y1704806D01*
G01X-989601Y1703593D01*
G01X-989116Y1702139D01*
G01X-988631Y1700927D01*
G01X-987904Y1698745D01*
G01X-987176Y1696806D01*
G01X-986085Y1693533D01*
G01X-985722Y1692563D01*
G01X-985358Y1691472D01*
G01X-984994Y1690260D01*
G01X-984449Y1688260D01*
G01X-984146Y1687957D01*
G01X-983843Y1688018D01*
G01X-983661Y1688442D01*
G01X-981843Y1693897D01*
G01X-981116Y1695836D01*
G01X-980752Y1696927D01*
G01X-980025Y1698866D01*
G01X-979661Y1699957D01*
G01X-979176Y1701169D01*
G01X-972873Y1718503D01*
G01X-972146Y1720321D01*
G01X-968995Y1720321D01*
G01X-965479Y1720200D01*
G01X-965267Y1719987D01*
G01X-965358Y1719593D01*
G01X-965843Y1718381D01*
G01X-966813Y1715715D01*
G01X-967298Y1714503D01*
G01X-968025Y1712563D01*
G01X-968510Y1711351D01*
G01X-969479Y1708684D01*
G01X-969964Y1707472D01*
G01X-971419Y1703593D01*
G01X-971904Y1702381D01*
G01X-972873Y1699715D01*
G01X-973358Y1698503D01*
G01X-974085Y1696563D01*
G01X-974570Y1695351D01*
G01X-975540Y1692684D01*
G01X-976510Y1690260D01*
G01X-976994Y1688927D01*
G01X-977479Y1687715D01*
G01X-978934Y1683715D01*
G01X-979419Y1682503D01*
G01X-980146Y1680563D01*
G01X-980510Y1679472D01*
G01X-980631Y1678866D01*
G01X-984025Y1678866D01*
G01X-986601Y1678957D01*
G37*
G36*
G01X-1119055Y1707472D02*
G01X-1119055Y1736078D01*
G01X-1112025Y1736078D01*
G01X-1112025Y1678866D01*
G01X-1119055Y1678866D01*
G01X-1119055Y1707472D01*
G37*
G36*
G01X-1097722Y1678866D02*
G01X-1101237Y1678987D01*
G01X-1101358Y1706987D01*
G01X-1101237Y1735472D01*
G01X-1101116Y1736078D01*
G01X-1094328Y1736078D01*
G01X-1094328Y1678866D01*
G01X-1097722Y1678866D01*
G37*
G36*
G01X-1070813Y1677897D02*
G01X-1073601Y1678018D01*
G01X-1074570Y1678260D01*
G01X-1075782Y1678503D01*
G01X-1077116Y1678866D01*
G01X-1078328Y1679351D01*
G01X-1079540Y1679957D01*
G01X-1080389Y1680442D01*
G01X-1082207Y1681897D01*
G01X-1083661Y1683715D01*
G01X-1084146Y1684563D01*
G01X-1084631Y1685533D01*
G01X-1084995Y1686503D01*
G01X-1085358Y1687594D01*
G01X-1085722Y1688806D01*
G01X-1085964Y1689897D01*
G01X-1086207Y1692078D01*
G01X-1086328Y1693412D01*
G01X-1086207Y1694745D01*
G01X-1085722Y1695230D01*
G01X-1081479Y1695836D01*
G01X-1080389Y1695957D01*
G01X-1079873Y1695957D01*
G01X-1079540Y1695715D01*
G01X-1079298Y1694745D01*
G01X-1079176Y1693290D01*
G01X-1078934Y1691836D01*
G01X-1078449Y1689897D01*
G01X-1078086Y1688927D01*
G01X-1077722Y1688078D01*
G01X-1077237Y1687351D01*
G01X-1076025Y1686139D01*
G01X-1075298Y1685654D01*
G01X-1074449Y1685291D01*
G01X-1073479Y1684927D01*
G01X-1071661Y1684684D01*
G01X-1069479Y1684806D01*
G01X-1067782Y1685169D01*
G01X-1066570Y1685654D01*
G01X-1065843Y1686018D01*
G01X-1065237Y1686503D01*
G01X-1064631Y1687109D01*
G01X-1063904Y1687957D01*
G01X-1063298Y1688927D01*
G01X-1062934Y1690018D01*
G01X-1062692Y1691109D01*
G01X-1062449Y1693775D01*
G01X-1062328Y1715109D01*
G01X-1062328Y1736078D01*
G01X-1054813Y1736078D01*
G01X-1054813Y1715230D01*
G01X-1054934Y1694018D01*
G01X-1055055Y1692927D01*
G01X-1055176Y1691594D01*
G01X-1055419Y1690139D01*
G01X-1055782Y1688442D01*
G01X-1056267Y1686866D01*
G01X-1056752Y1685775D01*
G01X-1057237Y1684806D01*
G01X-1057722Y1683957D01*
G01X-1058328Y1683109D01*
G01X-1059055Y1682260D01*
G01X-1059661Y1681654D01*
G01X-1060510Y1680927D01*
G01X-1061358Y1680321D01*
G01X-1062207Y1679836D01*
G01X-1063298Y1679351D01*
G01X-1064510Y1678866D01*
G01X-1065601Y1678503D01*
G01X-1068267Y1678018D01*
G01X-1070813Y1677897D01*
G37*
G36*
G01X-1029722Y1677897D02*
G01X-1031055Y1678018D01*
G01X-1031904Y1678260D01*
G01X-1033116Y1678503D01*
G01X-1035055Y1678987D01*
G01X-1036025Y1679351D01*
G01X-1036995Y1679836D01*
G01X-1038086Y1680442D01*
G01X-1038934Y1680927D01*
G01X-1039540Y1681412D01*
G01X-1040146Y1682018D01*
G01X-1040873Y1682866D01*
G01X-1041480Y1683836D01*
G01X-1041964Y1684806D01*
G01X-1042449Y1685897D01*
G01X-1042813Y1686987D01*
G01X-1043055Y1687957D01*
G01X-1043298Y1689897D01*
G01X-1043419Y1705290D01*
G01X-1043419Y1720321D01*
G01X-1036389Y1720321D01*
G01X-1036389Y1706503D01*
G01X-1036267Y1692321D01*
G01X-1036146Y1691109D01*
G01X-1035904Y1689533D01*
G01X-1035419Y1688442D01*
G01X-1034934Y1687472D01*
G01X-1034328Y1686624D01*
G01X-1033722Y1686018D01*
G01X-1032995Y1685412D01*
G01X-1031904Y1684806D01*
G01X-1030570Y1684321D01*
G01X-1029480Y1684078D01*
G01X-1028025Y1683957D01*
G01X-1026570Y1684078D01*
G01X-1025358Y1684321D01*
G01X-1024025Y1684684D01*
G01X-1022934Y1685169D01*
G01X-1021964Y1685654D01*
G01X-1021116Y1686139D01*
G01X-1020389Y1686745D01*
G01X-1019177Y1687957D01*
G01X-1018570Y1688806D01*
G01X-1018086Y1689775D01*
G01X-1017722Y1690745D01*
G01X-1017358Y1692200D01*
G01X-1017116Y1693533D01*
G01X-1016874Y1697412D01*
G01X-1016752Y1709048D01*
G01X-1016752Y1720321D01*
G01X-1013843Y1720321D01*
G01X-1010328Y1720200D01*
G01X-1009722Y1720078D01*
G01X-1009722Y1709169D01*
G01X-1009843Y1697897D01*
G01X-1009843Y1697290D01*
G01X-1009722Y1696321D01*
G01X-1009843Y1695230D01*
G01X-1009843Y1694624D01*
G01X-1009722Y1692684D01*
G01X-1009843Y1690624D01*
G01X-1009843Y1688078D01*
G01X-1009722Y1687230D01*
G01X-1009843Y1686260D01*
G01X-1009843Y1684078D01*
G01X-1009722Y1682260D01*
G01X-1009843Y1679836D01*
G01X-1009964Y1678866D01*
G01X-1016025Y1678866D01*
G01X-1016025Y1681775D01*
G01X-1016116Y1683927D01*
G01X-1016389Y1684563D01*
G01X-1016995Y1683957D01*
G01X-1017601Y1683230D01*
G01X-1019419Y1681412D01*
G01X-1020267Y1680684D01*
G01X-1021480Y1679957D01*
G01X-1022692Y1679351D01*
G01X-1023783Y1678866D01*
G01X-1024995Y1678503D01*
G01X-1026086Y1678260D01*
G01X-1028267Y1678018D01*
G01X-1029722Y1677897D01*
G37*
G36*
G01X-1393116Y1662139D02*
G01X-1396753Y1662260D01*
G01X-1397722Y1662502D01*
G01X-1399298Y1662866D01*
G01X-1401480Y1663593D01*
G01X-1402813Y1664199D01*
G01X-1404025Y1664927D01*
G01X-1404874Y1665533D01*
G01X-1405480Y1665896D01*
G01X-1406086Y1666503D01*
G01X-1407298Y1667957D01*
G01X-1407783Y1668684D01*
G01X-1408147Y1669412D01*
G01X-1408510Y1670381D01*
G01X-1408874Y1671715D01*
G01X-1409116Y1672927D01*
G01X-1409237Y1674260D01*
G01X-1409237Y1675230D01*
G01X-1408631Y1675230D01*
G01X-1405722Y1674866D01*
G01X-1404025Y1674624D01*
G01X-1403056Y1674503D01*
G01X-1402571Y1674381D01*
G01X-1402328Y1674018D01*
G01X-1401965Y1672806D01*
G01X-1401480Y1671715D01*
G01X-1400995Y1670866D01*
G01X-1400147Y1669897D01*
G01X-1399056Y1669169D01*
G01X-1398086Y1668684D01*
G01X-1396995Y1668321D01*
G01X-1396025Y1668078D01*
G01X-1393359Y1667836D01*
G01X-1392753Y1667836D01*
G01X-1391783Y1667957D01*
G01X-1390207Y1668078D01*
G01X-1388753Y1668321D01*
G01X-1387419Y1668684D01*
G01X-1386450Y1669169D01*
G01X-1385601Y1669654D01*
G01X-1384753Y1670260D01*
G01X-1384147Y1670866D01*
G01X-1383177Y1672078D01*
G01X-1382571Y1672927D01*
G01X-1382086Y1674018D01*
G01X-1381722Y1675230D01*
G01X-1381480Y1676321D01*
G01X-1381238Y1680200D01*
G01X-1381116Y1682260D01*
G01X-1381207Y1683503D01*
G01X-1381480Y1683836D01*
G01X-1382086Y1683351D01*
G01X-1382692Y1682745D01*
G01X-1383904Y1681775D01*
G01X-1384753Y1681169D01*
G01X-1385722Y1680563D01*
G01X-1386692Y1680078D01*
G01X-1388874Y1679351D01*
G01X-1389965Y1679109D01*
G01X-1390934Y1678987D01*
G01X-1392510Y1678866D01*
G01X-1394086Y1678987D01*
G01X-1394934Y1679109D01*
G01X-1396025Y1679230D01*
G01X-1396995Y1679472D01*
G01X-1398086Y1679715D01*
G01X-1399298Y1680078D01*
G01X-1400389Y1680563D01*
G01X-1401601Y1681169D01*
G01X-1402450Y1681775D01*
G01X-1403177Y1682260D01*
G01X-1403904Y1682866D01*
G01X-1405116Y1684078D01*
G01X-1406571Y1685897D01*
G01X-1407056Y1686624D01*
G01X-1408025Y1688321D01*
G01X-1408510Y1689291D01*
G01X-1408995Y1690503D01*
G01X-1409844Y1693048D01*
G01X-1410328Y1695472D01*
G01X-1410571Y1698139D01*
G01X-1410692Y1699230D01*
G01X-1410571Y1700321D01*
G01X-1410551Y1700563D01*
G01X-1403419Y1700563D01*
G01X-1403298Y1698139D01*
G01X-1403056Y1695957D01*
G01X-1402934Y1695109D01*
G01X-1402692Y1693775D01*
G01X-1402207Y1692200D01*
G01X-1401722Y1690987D01*
G01X-1401237Y1690018D01*
G01X-1400510Y1688927D01*
G01X-1399783Y1687957D01*
G01X-1399177Y1687351D01*
G01X-1398571Y1686866D01*
G01X-1397116Y1685897D01*
G01X-1396389Y1685533D01*
G01X-1395419Y1685169D01*
G01X-1394328Y1684927D01*
G01X-1394328Y1684927D01*
G01X-1393601Y1684806D01*
G01X-1392510Y1684684D01*
G01X-1390692Y1684806D01*
G01X-1389480Y1685048D01*
G01X-1388510Y1685291D01*
G01X-1387662Y1685654D01*
G01X-1386813Y1686139D01*
G01X-1385601Y1686866D01*
G01X-1384631Y1687594D01*
G01X-1384025Y1688200D01*
G01X-1383541Y1688806D01*
G01X-1383056Y1689533D01*
G01X-1382450Y1690624D01*
G01X-1381965Y1691715D01*
G01X-1381601Y1692684D01*
G01X-1381238Y1693897D01*
G01X-1380995Y1694987D01*
G01X-1380753Y1696927D01*
G01X-1380631Y1699472D01*
G01X-1380753Y1702503D01*
G01X-1380995Y1704442D01*
G01X-1381359Y1706381D01*
G01X-1381844Y1707836D01*
G01X-1382813Y1709775D01*
G01X-1383541Y1710987D01*
G01X-1384268Y1711957D01*
G01X-1385116Y1712806D01*
G01X-1386086Y1713533D01*
G01X-1386692Y1714018D01*
G01X-1387541Y1714503D01*
G01X-1388874Y1714987D01*
G01X-1389965Y1715351D01*
G01X-1391419Y1715472D01*
G01X-1393359Y1715351D01*
G01X-1394571Y1715109D01*
G01X-1395541Y1714866D01*
G01X-1396389Y1714503D01*
G01X-1398086Y1713533D01*
G01X-1399783Y1712078D01*
G01X-1400510Y1711230D01*
G01X-1401237Y1710139D01*
G01X-1401722Y1709290D01*
G01X-1402086Y1708442D01*
G01X-1402450Y1707472D01*
G01X-1402813Y1706260D01*
G01X-1403056Y1705169D01*
G01X-1403298Y1702987D01*
G01X-1403419Y1700563D01*
G01X-1410551Y1700563D01*
G01X-1410450Y1701775D01*
G01X-1410328Y1703472D01*
G01X-1410086Y1704927D01*
G01X-1409844Y1706139D01*
G01X-1409601Y1707230D01*
G01X-1409237Y1708563D01*
G01X-1408753Y1709897D01*
G01X-1408268Y1710987D01*
G01X-1407298Y1712927D01*
G01X-1406692Y1713896D01*
G01X-1406086Y1714745D01*
G01X-1404631Y1716563D01*
G01X-1404025Y1717169D01*
G01X-1402207Y1718624D01*
G01X-1400510Y1719593D01*
G01X-1399662Y1719957D01*
G01X-1397480Y1720684D01*
G01X-1396510Y1720927D01*
G01X-1394571Y1721169D01*
G01X-1392995Y1721290D01*
G01X-1391419Y1721169D01*
G01X-1389722Y1720927D01*
G01X-1388631Y1720684D01*
G01X-1387419Y1720321D01*
G01X-1386450Y1719957D01*
G01X-1385359Y1719472D01*
G01X-1384147Y1718624D01*
G01X-1383177Y1718018D01*
G01X-1382571Y1717533D01*
G01X-1380874Y1715836D01*
G01X-1380692Y1716321D01*
G01X-1380631Y1718018D01*
G01X-1380631Y1720321D01*
G01X-1374086Y1720321D01*
G01X-1374086Y1700442D01*
G01X-1374207Y1680200D01*
G01X-1374450Y1677533D01*
G01X-1374935Y1674624D01*
G01X-1375177Y1673412D01*
G01X-1375541Y1672078D01*
G01X-1376025Y1670987D01*
G01X-1376874Y1669290D01*
G01X-1377359Y1668684D01*
G01X-1378813Y1666987D01*
G01X-1379419Y1666381D01*
G01X-1380268Y1665654D01*
G01X-1381116Y1665048D01*
G01X-1381965Y1664563D01*
G01X-1383904Y1663593D01*
G01X-1384874Y1663230D01*
G01X-1385844Y1662987D01*
G01X-1386934Y1662624D01*
G01X-1388147Y1662381D01*
G01X-1389238Y1662260D01*
G01X-1393116Y1662139D01*
G37*
G36*
G01X-1363419Y1699594D02*
G01X-1363419Y1720321D01*
G01X-1357116Y1720321D01*
G01X-1357116Y1717533D01*
G01X-1357025Y1715503D01*
G01X-1356753Y1714987D01*
G01X-1355541Y1716442D01*
G01X-1354086Y1717896D01*
G01X-1353116Y1718624D01*
G01X-1352389Y1719109D01*
G01X-1351419Y1719593D01*
G01X-1350328Y1720078D01*
G01X-1348995Y1720563D01*
G01X-1347783Y1720927D01*
G01X-1346086Y1721169D01*
G01X-1344510Y1721290D01*
G01X-1342207Y1721169D01*
G01X-1340752Y1720927D01*
G01X-1339662Y1720684D01*
G01X-1338207Y1720321D01*
G01X-1336874Y1719836D01*
G01X-1335662Y1719230D01*
G01X-1334449Y1718503D01*
G01X-1333601Y1717775D01*
G01X-1332995Y1717169D01*
G01X-1332268Y1716321D01*
G01X-1331662Y1715351D01*
G01X-1331177Y1714381D01*
G01X-1330692Y1713290D01*
G01X-1330328Y1712200D01*
G01X-1330086Y1711230D01*
G01X-1329843Y1709048D01*
G01X-1329722Y1693775D01*
G01X-1329722Y1678866D01*
G01X-1336752Y1678866D01*
G01X-1336752Y1692563D01*
G01X-1336874Y1706624D01*
G01X-1336995Y1707715D01*
G01X-1337237Y1709290D01*
G01X-1337722Y1710745D01*
G01X-1338328Y1711836D01*
G01X-1338934Y1712684D01*
G01X-1339540Y1713290D01*
G01X-1340146Y1713775D01*
G01X-1340995Y1714260D01*
G01X-1342328Y1714745D01*
G01X-1343419Y1715109D01*
G01X-1344753Y1715230D01*
G01X-1346086Y1715109D01*
G01X-1347056Y1714987D01*
G01X-1348510Y1714745D01*
G01X-1349965Y1714260D01*
G01X-1350934Y1713775D01*
G01X-1351904Y1713169D01*
G01X-1352753Y1712563D01*
G01X-1353359Y1712078D01*
G01X-1353965Y1711472D01*
G01X-1354571Y1710624D01*
G01X-1355056Y1709654D01*
G01X-1355419Y1708806D01*
G01X-1355783Y1707715D01*
G01X-1356025Y1706624D01*
G01X-1356268Y1704927D01*
G01X-1356389Y1691715D01*
G01X-1356389Y1678866D01*
G01X-1363419Y1678866D01*
G01X-1363419Y1699594D01*
G37*
G36*
G01X-1278692Y1677897D02*
G01X-1280631Y1678018D01*
G01X-1281359Y1678260D01*
G01X-1282571Y1678503D01*
G01X-1283783Y1678866D01*
G01X-1286450Y1680200D01*
G01X-1287056Y1680684D01*
G01X-1288510Y1681897D01*
G01X-1289480Y1683109D01*
G01X-1289965Y1683594D01*
G01X-1290147Y1683078D01*
G01X-1290207Y1681291D01*
G01X-1290207Y1678866D01*
G01X-1296753Y1678866D01*
G01X-1296753Y1699957D01*
G01X-1290207Y1699957D01*
G01X-1290086Y1695715D01*
G01X-1289843Y1694018D01*
G01X-1289480Y1692200D01*
G01X-1288995Y1690745D01*
G01X-1288510Y1689654D01*
G01X-1287904Y1688684D01*
G01X-1287298Y1687836D01*
G01X-1286813Y1687230D01*
G01X-1285237Y1685654D01*
G01X-1284389Y1685048D01*
G01X-1283419Y1684563D01*
G01X-1282450Y1684200D01*
G01X-1281359Y1683957D01*
G01X-1281359Y1683957D01*
G01X-1280631Y1683836D01*
G01X-1279298Y1683715D01*
G01X-1277237Y1683957D01*
G01X-1275783Y1684442D01*
G01X-1274692Y1684927D01*
G01X-1273722Y1685533D01*
G01X-1272874Y1686139D01*
G01X-1271662Y1687351D01*
G01X-1270692Y1688563D01*
G01X-1270086Y1689412D01*
G01X-1269601Y1690381D01*
G01X-1269237Y1691351D01*
G01X-1268874Y1692442D01*
G01X-1268510Y1693775D01*
G01X-1268268Y1694987D01*
G01X-1268025Y1697169D01*
G01X-1267904Y1699351D01*
G01X-1268025Y1701533D01*
G01X-1268146Y1702624D01*
G01X-1268268Y1703957D01*
G01X-1268753Y1706381D01*
G01X-1269116Y1707715D01*
G01X-1269601Y1709048D01*
G01X-1270086Y1710018D01*
G01X-1270571Y1710866D01*
G01X-1271177Y1711593D01*
G01X-1272147Y1712806D01*
G01X-1272753Y1713290D01*
G01X-1274450Y1714503D01*
G01X-1275298Y1714866D01*
G01X-1276389Y1715230D01*
G01X-1278328Y1715472D01*
G01X-1280631Y1715351D01*
G01X-1282086Y1714987D01*
G01X-1283177Y1714503D01*
G01X-1284874Y1713533D01*
G01X-1285601Y1712927D01*
G01X-1287056Y1711472D01*
G01X-1287904Y1710260D01*
G01X-1288510Y1709290D01*
G01X-1288995Y1708200D01*
G01X-1289843Y1705654D01*
G01X-1290086Y1703957D01*
G01X-1290207Y1699957D01*
G01X-1296753Y1699957D01*
G01X-1296753Y1736078D01*
G01X-1289722Y1736078D01*
G01X-1289722Y1726503D01*
G01X-1289601Y1716563D01*
G01X-1289450Y1716351D01*
G01X-1289216Y1716451D01*
G01X-1288631Y1716927D01*
G01X-1288025Y1717533D01*
G01X-1286571Y1718745D01*
G01X-1285722Y1719351D01*
G01X-1284753Y1719836D01*
G01X-1283904Y1720200D01*
G01X-1282934Y1720563D01*
G01X-1281722Y1720927D01*
G01X-1280631Y1721169D01*
G01X-1279056Y1721290D01*
G01X-1276995Y1721169D01*
G01X-1275056Y1720927D01*
G01X-1273480Y1720563D01*
G01X-1272389Y1720200D01*
G01X-1271419Y1719836D01*
G01X-1270450Y1719351D01*
G01X-1269359Y1718745D01*
G01X-1268510Y1718260D01*
G01X-1267904Y1717775D01*
G01X-1267056Y1717048D01*
G01X-1266328Y1716321D01*
G01X-1265843Y1715715D01*
G01X-1265116Y1714866D01*
G01X-1264510Y1714018D01*
G01X-1264025Y1713290D01*
G01X-1263540Y1712442D01*
G01X-1263056Y1711472D01*
G01X-1262571Y1710260D01*
G01X-1262086Y1708927D01*
G01X-1261722Y1707836D01*
G01X-1261237Y1705654D01*
G01X-1260995Y1703957D01*
G01X-1260874Y1700442D01*
G01X-1260995Y1696927D01*
G01X-1261116Y1696078D01*
G01X-1261237Y1694987D01*
G01X-1261480Y1693775D01*
G01X-1261722Y1692806D01*
G01X-1261965Y1691594D01*
G01X-1262328Y1690381D01*
G01X-1263056Y1688442D01*
G01X-1263540Y1687472D01*
G01X-1264146Y1686381D01*
G01X-1264753Y1685412D01*
G01X-1266571Y1683230D01*
G01X-1267177Y1682624D01*
G01X-1268389Y1681654D01*
G01X-1269237Y1680927D01*
G01X-1270328Y1680200D01*
G01X-1271419Y1679594D01*
G01X-1272510Y1679109D01*
G01X-1273480Y1678745D01*
G01X-1274328Y1678503D01*
G01X-1276753Y1678018D01*
G01X-1278692Y1677897D01*
G37*
G36*
G01X-1248146Y1662139D02*
G01X-1250692Y1662381D01*
G01X-1251904Y1662745D01*
G01X-1252449Y1662987D01*
G01X-1252631Y1663472D01*
G01X-1252995Y1666381D01*
G01X-1253116Y1667230D01*
G01X-1253237Y1668563D01*
G01X-1253358Y1669412D01*
G01X-1252874Y1669290D01*
G01X-1252025Y1669048D01*
G01X-1249964Y1668927D01*
G01X-1247419Y1669048D01*
G01X-1246086Y1669412D01*
G01X-1244995Y1670018D01*
G01X-1244146Y1670745D01*
G01X-1243540Y1671351D01*
G01X-1242934Y1672200D01*
G01X-1242449Y1673291D01*
G01X-1241722Y1675230D01*
G01X-1241237Y1676442D01*
G01X-1240752Y1677897D01*
G01X-1240631Y1678987D01*
G01X-1240874Y1679836D01*
G01X-1241237Y1680806D01*
G01X-1241722Y1682018D01*
G01X-1242207Y1683351D01*
G01X-1242692Y1684563D01*
G01X-1243661Y1687230D01*
G01X-1244146Y1688442D01*
G01X-1244631Y1689775D01*
G01X-1245116Y1690987D01*
G01X-1245843Y1692927D01*
G01X-1246328Y1694139D01*
G01X-1247298Y1696806D01*
G01X-1247783Y1698018D01*
G01X-1248510Y1699957D01*
G01X-1248995Y1701169D01*
G01X-1249964Y1703836D01*
G01X-1250449Y1705048D01*
G01X-1252995Y1711836D01*
G01X-1253358Y1712684D01*
G01X-1255540Y1718503D01*
G01X-1255904Y1719593D01*
G01X-1256025Y1720321D01*
G01X-1252389Y1720321D01*
G01X-1249601Y1720200D01*
G01X-1248510Y1719836D01*
G01X-1248025Y1718745D01*
G01X-1247540Y1717412D01*
G01X-1247055Y1715957D01*
G01X-1246571Y1714745D01*
G01X-1245843Y1712563D01*
G01X-1245358Y1711351D01*
G01X-1244874Y1709897D01*
G01X-1244389Y1708684D01*
G01X-1243661Y1706503D01*
G01X-1243177Y1705290D01*
G01X-1242692Y1703836D01*
G01X-1242207Y1702624D01*
G01X-1241480Y1700442D01*
G01X-1240995Y1699230D01*
G01X-1240510Y1697775D01*
G01X-1240025Y1696563D01*
G01X-1238571Y1692200D01*
G01X-1237480Y1688563D01*
G01X-1237298Y1687987D01*
G01X-1236995Y1687715D01*
G01X-1236692Y1687775D01*
G01X-1236510Y1688200D01*
G01X-1236146Y1689654D01*
G01X-1235661Y1691351D01*
G01X-1235177Y1692927D01*
G01X-1234207Y1695594D01*
G01X-1233722Y1697048D01*
G01X-1232752Y1699715D01*
G01X-1232268Y1700927D01*
G01X-1231904Y1702018D01*
G01X-1231177Y1703957D01*
G01X-1230813Y1705048D01*
G01X-1230328Y1706260D01*
G01X-1228389Y1711593D01*
G01X-1227904Y1712806D01*
G01X-1227540Y1713896D01*
G01X-1226813Y1715836D01*
G01X-1226449Y1716927D01*
G01X-1225358Y1719836D01*
G01X-1224419Y1720200D01*
G01X-1221843Y1720321D01*
G01X-1218449Y1720200D01*
G01X-1218571Y1719472D01*
G01X-1228025Y1694260D01*
G01X-1228389Y1693169D01*
G01X-1230207Y1688321D01*
G01X-1230571Y1687472D01*
G01X-1230934Y1686503D01*
G01X-1231298Y1685412D01*
G01X-1233480Y1679594D01*
G01X-1233965Y1678381D01*
G01X-1234934Y1675715D01*
G01X-1235419Y1674503D01*
G01X-1235783Y1673533D01*
G01X-1236146Y1672684D01*
G01X-1237116Y1670503D01*
G01X-1238086Y1668563D01*
G01X-1238571Y1667715D01*
G01X-1239055Y1666987D01*
G01X-1239419Y1666381D01*
G01X-1239904Y1665775D01*
G01X-1241358Y1664321D01*
G01X-1242571Y1663472D01*
G01X-1243661Y1662866D01*
G01X-1244752Y1662502D01*
G01X-1245722Y1662260D01*
G01X-1248146Y1662139D01*
G37*
G36*
G01X-1189359Y1707472D02*
G01X-1189359Y1720806D01*
G01X-1181843Y1720806D01*
G01X-1181722Y1712200D01*
G01X-1174086Y1712078D01*
G01X-1166207Y1712200D01*
G01X-1165116Y1712321D01*
G01X-1163783Y1712442D01*
G01X-1161843Y1712927D01*
G01X-1160873Y1713290D01*
G01X-1159904Y1713775D01*
G01X-1159055Y1714381D01*
G01X-1157843Y1715593D01*
G01X-1157237Y1716563D01*
G01X-1156752Y1717775D01*
G01X-1156510Y1718745D01*
G01X-1156389Y1720078D01*
G01X-1156510Y1721654D01*
G01X-1156752Y1722866D01*
G01X-1157116Y1724199D01*
G01X-1157601Y1725290D01*
G01X-1158086Y1726018D01*
G01X-1158570Y1726624D01*
G01X-1159055Y1727109D01*
G01X-1159661Y1727593D01*
G01X-1160389Y1728078D01*
G01X-1161480Y1728563D01*
G01X-1162570Y1728927D01*
G01X-1164510Y1729169D01*
G01X-1173358Y1729290D01*
G01X-1181843Y1729290D01*
G01X-1181843Y1720806D01*
G01X-1181843Y1720806D01*
G01X-1189359Y1720806D01*
G01X-1189359Y1736078D01*
G01X-1177237Y1736078D01*
G01X-1164752Y1735957D01*
G01X-1162570Y1735715D01*
G01X-1161237Y1735472D01*
G01X-1159661Y1735109D01*
G01X-1158328Y1734624D01*
G01X-1157116Y1734139D01*
G01X-1156146Y1733654D01*
G01X-1155298Y1733169D01*
G01X-1154570Y1732684D01*
G01X-1153358Y1731715D01*
G01X-1152510Y1730866D01*
G01X-1151783Y1729896D01*
G01X-1151298Y1729290D01*
G01X-1150813Y1728442D01*
G01X-1150328Y1727472D01*
G01X-1149964Y1726624D01*
G01X-1149601Y1725654D01*
G01X-1149237Y1724442D01*
G01X-1148995Y1722624D01*
G01X-1148995Y1721169D01*
G01X-1149237Y1719230D01*
G01X-1149480Y1718139D01*
G01X-1149843Y1716927D01*
G01X-1150328Y1715836D01*
G01X-1150934Y1714745D01*
G01X-1151661Y1713654D01*
G01X-1152389Y1712806D01*
G01X-1153843Y1711351D01*
G01X-1154813Y1710624D01*
G01X-1155783Y1710018D01*
G01X-1156510Y1709412D01*
G01X-1156419Y1709169D01*
G01X-1155904Y1708927D01*
G01X-1154813Y1708442D01*
G01X-1152631Y1707351D01*
G01X-1150934Y1706139D01*
G01X-1150086Y1705412D01*
G01X-1149601Y1704806D01*
G01X-1148873Y1703957D01*
G01X-1148146Y1702866D01*
G01X-1147661Y1702018D01*
G01X-1146934Y1700321D01*
G01X-1146570Y1699109D01*
G01X-1146328Y1697897D01*
G01X-1146207Y1695836D01*
G01X-1146328Y1693775D01*
G01X-1146570Y1692078D01*
G01X-1146813Y1690987D01*
G01X-1147177Y1689775D01*
G01X-1147540Y1688806D01*
G01X-1147904Y1687957D01*
G01X-1148389Y1687109D01*
G01X-1149601Y1685169D01*
G01X-1150207Y1684442D01*
G01X-1151419Y1683230D01*
G01X-1152025Y1682745D01*
G01X-1152873Y1682139D01*
G01X-1153843Y1681533D01*
G01X-1154813Y1681048D01*
G01X-1156025Y1680563D01*
G01X-1157480Y1680078D01*
G01X-1158692Y1679715D01*
G01X-1161358Y1679230D01*
G01X-1164025Y1678987D01*
G01X-1176874Y1678866D01*
G01X-1189359Y1678866D01*
G01X-1189359Y1695594D01*
G01X-1181843Y1695594D01*
G01X-1181722Y1685775D01*
G01X-1172995Y1685654D01*
G01X-1163540Y1685775D01*
G01X-1162086Y1686018D01*
G01X-1160631Y1686381D01*
G01X-1159298Y1686866D01*
G01X-1158328Y1687351D01*
G01X-1157601Y1687836D01*
G01X-1156752Y1688563D01*
G01X-1155904Y1689412D01*
G01X-1155419Y1690018D01*
G01X-1155055Y1690745D01*
G01X-1154692Y1691594D01*
G01X-1154328Y1692684D01*
G01X-1154086Y1693775D01*
G01X-1153964Y1695109D01*
G01X-1154086Y1696442D01*
G01X-1154328Y1697775D01*
G01X-1154692Y1699109D01*
G01X-1155177Y1700078D01*
G01X-1155904Y1701290D01*
G01X-1156631Y1702260D01*
G01X-1157237Y1702866D01*
G01X-1158086Y1703472D01*
G01X-1159055Y1703957D01*
G01X-1159904Y1704321D01*
G01X-1161237Y1704684D01*
G01X-1162570Y1704927D01*
G01X-1164752Y1705169D01*
G01X-1173480Y1705290D01*
G01X-1181843Y1705290D01*
G01X-1181843Y1695594D01*
G01X-1181843Y1695594D01*
G01X-1189359Y1695594D01*
G01X-1189359Y1707472D01*
G37*
G36*
G01X-1136510Y1732078D02*
G01X-1136510Y1736078D01*
G01X-1129480Y1736078D01*
G01X-1129480Y1728078D01*
G01X-1136510Y1728078D01*
G01X-1136510Y1732078D01*
G37*
G36*
G01X-1136510Y1699594D02*
G01X-1136510Y1720321D01*
G01X-1129480Y1720321D01*
G01X-1129480Y1678866D01*
G01X-1136510Y1678866D01*
G01X-1136510Y1699594D01*
G37*
G36*
G01X-1425722Y1732078D02*
G01X-1425722Y1736078D01*
G01X-1418692Y1736078D01*
G01X-1418692Y1728078D01*
G01X-1425722Y1728078D01*
G01X-1425722Y1732078D01*
G37*
G54D11*
G01X-1469288Y604520D02*
G01X-1472590Y610616D01*
G01X-1481734Y620014D01*
G01X-1416710Y620014D01*
G01X-1481734Y668782D02*
G01X-1478686Y659384D01*
G01X-1469288Y653288D01*
G01X-1454048Y650240D01*
G01X-1444650Y650240D01*
G01X-1429156Y653288D01*
G01X-1419758Y659384D01*
G01X-1416710Y668782D01*
G01X-1416710Y674878D01*
G01X-1419758Y684276D01*
G01X-1429156Y690372D01*
G01X-1444650Y693420D01*
G01X-1454048Y693420D01*
G01X-1469288Y690372D01*
G01X-1478686Y684276D01*
G01X-1481734Y674878D01*
G01X-1481734Y668782D01*
G01X-1481734Y723646D02*
G01X-1416710Y723646D01*
G01X-1460144Y754380D02*
G01X-1429156Y723646D01*
G01X-1441602Y735838D02*
G01X-1416710Y757682D01*
G01X-1466240Y790956D02*
G01X-1469288Y790956D01*
G01X-1475638Y794004D01*
G01X-1478686Y797052D01*
G01X-1481734Y803148D01*
G01X-1481734Y815594D01*
G01X-1478686Y821944D01*
G01X-1475638Y824992D01*
G01X-1469288Y828040D01*
G01X-1463192Y828040D01*
G01X-1457096Y824992D01*
G01X-1447698Y818642D01*
G01X-1416710Y787908D01*
G01X-1416710Y831088D01*
G01X-1139088Y617220D02*
G01X-1142390Y623316D01*
G01X-1151534Y632714D01*
G01X-1086510Y632714D01*
G01X-1151534Y681482D02*
G01X-1148486Y672084D01*
G01X-1139088Y665988D01*
G01X-1123848Y662940D01*
G01X-1114450Y662940D01*
G01X-1098956Y665988D01*
G01X-1089558Y672084D01*
G01X-1086510Y681482D01*
G01X-1086510Y687578D01*
G01X-1089558Y696976D01*
G01X-1098956Y703072D01*
G01X-1114450Y706120D01*
G01X-1123848Y706120D01*
G01X-1139088Y703072D01*
G01X-1148486Y696976D01*
G01X-1151534Y687578D01*
G01X-1151534Y681482D01*
G01X-1151534Y736346D02*
G01X-1086510Y736346D01*
G01X-1129944Y767080D02*
G01X-1098956Y736346D01*
G01X-1111402Y748538D02*
G01X-1086510Y770382D01*
G01X-1139088Y800608D02*
G01X-1142390Y806704D01*
G01X-1151534Y815848D01*
G01X-1086510Y815848D01*
G01X-1557934Y1514094D02*
G01X-1523898Y1514094D01*
G01X-1542440Y1489456D01*
G01X-1533042Y1489456D01*
G01X-1526946Y1486408D01*
G01X-1523898Y1483106D01*
G01X-1520596Y1473962D01*
G01X-1520596Y1467612D01*
G01X-1523898Y1458468D01*
G01X-1529994Y1452118D01*
G01X-1539138Y1449070D01*
G01X-1548536Y1449070D01*
G01X-1557934Y1452118D01*
G01X-1560982Y1455420D01*
G01X-1564030Y1461516D01*
G01X-1487322Y1464564D02*
G01X-1490370Y1461516D01*
G01X-1487322Y1458468D01*
G01X-1484274Y1461516D01*
G01X-1487322Y1464564D01*
G01X-1447952Y1514094D02*
G01X-1413916Y1514094D01*
G01X-1432458Y1489456D01*
G01X-1423314Y1489456D01*
G01X-1416964Y1486408D01*
G01X-1413916Y1483106D01*
G01X-1410868Y1473962D01*
G01X-1410868Y1467612D01*
G01X-1413916Y1458468D01*
G01X-1420012Y1452118D01*
G01X-1429410Y1449070D01*
G01X-1438808Y1449070D01*
G01X-1447952Y1452118D01*
G01X-1451000Y1455420D01*
G01X-1454048Y1461516D01*
G01X-1380642Y1514094D02*
G01X-1380642Y1449070D01*
G01X-1349908Y1492504D02*
G01X-1380642Y1461516D01*
G01X-1368450Y1473962D02*
G01X-1346606Y1449070D01*
G01X-1316380Y1501648D02*
G01X-1310284Y1504950D01*
G01X-1301140Y1514094D01*
G01X-1301140Y1449070D01*
G01X-783488Y639318D02*
G01X-786790Y645414D01*
G01X-795934Y654812D01*
G01X-730910Y654812D01*
G01X-795934Y685038D02*
G01X-730910Y685038D01*
G01X-774344Y715772D02*
G01X-743356Y685038D01*
G01X-755802Y697230D02*
G01X-730910Y719074D01*
G01X-780440Y752348D02*
G01X-783488Y752348D01*
G01X-789838Y755396D01*
G01X-792886Y758444D01*
G01X-795934Y764540D01*
G01X-795934Y776986D01*
G01X-792886Y783336D01*
G01X-789838Y786384D01*
G01X-783488Y789432D01*
G01X-777392Y789432D01*
G01X-771296Y786384D01*
G01X-761898Y780034D01*
G01X-730910Y749300D01*
G01X-730910Y792480D01*
G01X-1850288Y642620D02*
G01X-1853590Y648716D01*
G01X-1862734Y658114D01*
G01X-1797710Y658114D01*
G01X-1862734Y688340D02*
G01X-1797710Y688340D01*
G01X-1841144Y719074D02*
G01X-1810156Y688340D01*
G01X-1822602Y700532D02*
G01X-1797710Y722376D01*
G01X-1850288Y752602D02*
G01X-1853590Y758698D01*
G01X-1862734Y767842D01*
G01X-1797710Y767842D01*
G01X-332697Y536324D02*
G01X-327363Y539118D01*
G01X-319489Y546992D01*
G01X-319489Y491366D01*
G01X-275547Y546992D02*
G01X-283675Y544452D01*
G01X-289009Y536324D01*
G01X-291549Y523116D01*
G01X-291549Y515242D01*
G01X-289009Y502034D01*
G01X-283675Y493906D01*
G01X-275547Y491366D01*
G01X-270467Y491366D01*
G01X-262339Y493906D01*
G01X-257005Y502034D01*
G01X-254465Y515242D01*
G01X-254465Y523116D01*
G01X-257005Y536324D01*
G01X-262339Y544452D01*
G01X-270467Y546992D01*
G01X-275547Y546992D01*
G01X-226525Y528450D02*
G01X-210523Y491366D01*
G01X-194775Y528450D02*
G01X-210523Y491366D01*
G01X-316695Y446916D02*
G01X-322029Y444376D01*
G01X-327363Y439042D01*
G01X-330157Y433708D01*
G01X-332697Y425834D01*
G01X-332697Y412626D01*
G01X-330157Y404498D01*
G01X-327363Y399418D01*
G01X-322029Y394084D01*
G01X-316695Y391290D01*
G01X-306281Y391290D01*
G01X-300947Y394084D01*
G01X-295613Y399418D01*
G01X-293073Y404498D01*
G01X-290279Y412626D01*
G01X-290279Y425834D01*
G01X-293073Y433708D01*
G01X-295613Y439042D01*
G01X-300947Y444376D01*
G01X-306281Y446916D01*
G01X-316695Y446916D01*
G01X-262339Y428374D02*
G01X-262339Y401958D01*
G01X-259799Y394084D01*
G01X-254465Y391290D01*
G01X-246337Y391290D01*
G01X-241257Y394084D01*
G01X-233129Y401958D01*
G01X-233129Y428374D02*
G01X-233129Y391290D01*
G01X-197315Y446916D02*
G01X-197315Y401958D01*
G01X-194521Y394084D01*
G01X-189187Y391290D01*
G01X-184107Y391290D01*
G01X-205189Y428374D02*
G01X-186647Y428374D01*
G01X-2366352Y544955D02*
G01X-2368892Y550289D01*
G01X-2374226Y555623D01*
G01X-2379560Y558163D01*
G01X-2389974Y558163D01*
G01X-2395308Y555623D01*
G01X-2400642Y550289D01*
G01X-2403436Y544955D01*
G01X-2405976Y537081D01*
G01X-2405976Y523619D01*
G01X-2403436Y515745D01*
G01X-2400642Y510411D01*
G01X-2395308Y505077D01*
G01X-2389974Y502537D01*
G01X-2379560Y502537D01*
G01X-2374226Y505077D01*
G01X-2368892Y510411D01*
G01X-2366352Y515745D01*
G01X-2366352Y523619D01*
G01X-2379560Y523619D02*
G01X-2366352Y523619D01*
G01X-2338412Y558163D02*
G01X-2338412Y502537D01*
G01X-2338412Y558163D02*
G01X-2301328Y502537D01*
G01X-2301328Y558163D02*
G01X-2301328Y502537D01*
G01X-2273388Y558163D02*
G01X-2273388Y502537D01*
G01X-2273388Y558163D02*
G01X-2254846Y558163D01*
G01X-2246972Y555623D01*
G01X-2241638Y550289D01*
G01X-2238844Y544955D01*
G01X-2236304Y537081D01*
G01X-2236304Y523619D01*
G01X-2238844Y515745D01*
G01X-2241638Y510411D01*
G01X-2246972Y505077D01*
G01X-2254846Y502537D01*
G01X-2273388Y502537D01*
G01X-2389974Y458087D02*
G01X-2395308Y455547D01*
G01X-2400642Y450213D01*
G01X-2403436Y444879D01*
G01X-2405976Y437005D01*
G01X-2405976Y423797D01*
G01X-2403436Y415669D01*
G01X-2400642Y410589D01*
G01X-2395308Y405255D01*
G01X-2389974Y402461D01*
G01X-2379560Y402461D01*
G01X-2374226Y405255D01*
G01X-2368892Y410589D01*
G01X-2366352Y415669D01*
G01X-2363558Y423797D01*
G01X-2363558Y437005D01*
G01X-2366352Y444879D01*
G01X-2368892Y450213D01*
G01X-2374226Y455547D01*
G01X-2379560Y458087D01*
G01X-2389974Y458087D01*
G01X-2335618Y439545D02*
G01X-2335618Y413129D01*
G01X-2333078Y405255D01*
G01X-2327744Y402461D01*
G01X-2319616Y402461D01*
G01X-2314536Y405255D01*
G01X-2306408Y413129D01*
G01X-2306408Y439545D02*
G01X-2306408Y402461D01*
G01X-2270594Y458087D02*
G01X-2270594Y413129D01*
G01X-2267800Y405255D01*
G01X-2262466Y402461D01*
G01X-2257386Y402461D01*
G01X-2278468Y439545D02*
G01X-2259926Y439545D01*
G01X-2200958Y1833142D02*
G01X-2200958Y1768118D01*
G01X-2222548Y1833142D02*
G01X-2179114Y1833142D01*
G01X-2148888Y1820696D02*
G01X-2142792Y1823998D01*
G01X-2133648Y1833142D01*
G01X-2133648Y1768118D01*
G01X-398298Y1789834D02*
G01X-398298Y1724810D01*
G01X-419888Y1789834D02*
G01X-376454Y1789834D01*
G01X-343180Y1774340D02*
G01X-343180Y1777388D01*
G01X-340132Y1783738D01*
G01X-337084Y1786786D01*
G01X-330988Y1789834D01*
G01X-318542Y1789834D01*
G01X-312192Y1786786D01*
G01X-309144Y1783738D01*
G01X-306096Y1777388D01*
G01X-306096Y1771292D01*
G01X-309144Y1765196D01*
G01X-315494Y1755798D01*
G01X-346228Y1724810D01*
G01X-303048Y1724810D01*
G04 Text End*

G04 PolygonModel Start*
G54D12*
G01X-1583080Y1013460D02*
G01X-1344320Y1013460D01*
G01X-1344320Y1013460D02*
G01X-1344320Y383540D01*
G01X-1344320Y383540D02*
G01X-1583080Y383540D01*
G01X-1583080Y383540D02*
G01X-1583080Y1013460D01*
G01X-1227480Y1013460D02*
G01X-988720Y1013460D01*
G01X-988720Y1013460D02*
G01X-988720Y383540D01*
G01X-988720Y383540D02*
G01X-1227480Y383540D01*
G01X-1227480Y383540D02*
G01X-1227480Y1013460D01*
G01X-1118260Y1602740D02*
G01X-1118260Y1363980D01*
G01X-1118260Y1363980D02*
G01X-1748180Y1363980D01*
G01X-1748180Y1363980D02*
G01X-1748180Y1602740D01*
G01X-1748180Y1602740D02*
G01X-1118260Y1602740D01*
G01X-871880Y1013460D02*
G01X-633120Y1013460D01*
G01X-633120Y1013460D02*
G01X-633120Y383540D01*
G01X-633120Y383540D02*
G01X-871880Y383540D01*
G01X-871880Y383540D02*
G01X-871880Y1013460D01*
G01X-1699920Y383540D02*
G01X-1938680Y383540D01*
G01X-1938680Y383540D02*
G01X-1938680Y1013460D01*
G01X-1938680Y1013460D02*
G01X-1699920Y1013460D01*
G01X-1699920Y1013460D02*
G01X-1699920Y383540D01*
G01X-2436493Y888222D02*
G01X-2436493Y1647870D01*
G01X-2436493Y1647870D02*
G01X-2182493Y1647870D01*
G01X-2182493Y1647870D02*
G01X-2182493Y631870D01*
G01X-2182493Y631870D02*
G01X-2436493Y631870D01*
G01X-2436493Y631870D02*
G01X-2436493Y888222D01*
G01X-2436493Y888222D02*
G01X-2182493Y888222D01*
G01X-489526Y606897D02*
G01X-489526Y1606900D01*
G01X-9524Y606897D02*
G01X-9524Y1606900D01*
G01X-9524Y606900D02*
G01X-489526Y606900D01*
G01X-9524Y1606898D02*
G01X-489526Y1606900D01*
G01X-439518Y656897D02*
G01X-439518Y1556900D01*
G01X-9524Y1005995D02*
G01X-49522Y1005995D01*
G01X-49522Y1005995D02*
G01X-49522Y656900D01*
G01X-49522Y656900D02*
G01X-69522Y656900D01*
G01X-169758Y656900D02*
G01X-169758Y606900D01*
G01X-118958Y656900D02*
G01X-118958Y606900D01*
G01X-169758Y656900D02*
G01X-439521Y656900D01*
G01X-118958Y656900D02*
G01X-69522Y656900D01*
G01X-439521Y1556900D02*
G01X-169524Y1556900D01*
G01X-169524Y1556900D02*
G01X-169524Y1606898D01*
G01X-119521Y1606903D02*
G01X-119521Y1557119D01*
G01X-119521Y1557119D02*
G01X-48655Y1557119D01*
G01X-48655Y1557119D02*
G01X-48655Y1255113D01*
G01X-48655Y1255113D02*
G01X-48655Y1207107D01*
G01X-48655Y1207107D02*
G01X-8777Y1207107D01*
G54D13*
G01X-2087329Y2107931D02*
G02X-1667380Y1977102I165099J-209460D01*
G01X-1667390Y1819842D02*
G02X-2087329Y1689022I-254841J78630D01*
G01X-2087329Y2107921D02*
G01X-2087329Y1689022D01*
G01X-1947630Y2163961D02*
G01X-1947630Y2123841D01*
G01X-1947630Y1927102D02*
G01X-1947630Y1869842D01*
G01X-1947630Y1673102D02*
G01X-1947630Y1632982D01*
G01X-880897Y2105123D02*
G02X-460948Y1974293I165099J-209460D01*
G01X-460958Y1817033D02*
G02X-880897Y1686214I-254841J78630D01*
G01X-880897Y2105113D02*
G01X-880897Y1686214D01*
G01X-741197Y2161153D02*
G01X-741197Y2121033D01*
G01X-741197Y1924293D02*
G01X-741197Y1867033D01*
G01X-741197Y1670294D02*
G01X-741197Y1630174D01*

M02*

