G04 Layer: TopLayer*
G04 EasyEDA Pro v2.2.40.8, 2025-10-31 20:04:37*
G04 Gerber Generator version 0.3*
G04 Scale: 100 percent, Rotated: No, Reflected: No*
G04 Dimensions in millimeters*
G04 Leading zeros omitted, absolute positions, 4 integers and 5 decimals*
G04 Generated by one-click*
%FSLAX45Y45*%
%MOMM*%
%ADD10C,0.2032*%
%ADD11C,0.254*%
%ADD12C,2.0*%
%ADD13C,1.8796*%
%ADD14R,1.7X1.7*%
%ADD15C,1.7*%
%ADD16C,1.88*%
%ADD17O,1.8031X1.5*%
%ADD18O,1.8X1.5*%
G75*


G04 Copper Start*
G36*
G01X-61894Y2185973D02*
G01X-61894Y1448701D01*
G01X-70395Y1465381D01*
G01X-81583Y1480391D01*
G01X-95138Y1493304D01*
G01X-110673Y1503751D01*
G01X-127745Y1511434D01*
G01X-145867Y1516133D01*
G01X-164521Y1517715D01*
G01X-194521Y1517715D01*
G01X-214332Y1515929D01*
G01X-233505Y1510631D01*
G01X-251421Y1501991D01*
G01X-267504Y1490286D01*
G01X-281236Y1475896D01*
G01X-292174Y1459282D01*
G01X-299965Y1440980D01*
G01X-304359Y1421580D01*
G01X-305213Y1401707D01*
G01X-302502Y1382002D01*
G01X-296311Y1363099D01*
G01X-286840Y1345607D01*
G01X-274395Y1330090D01*
G01X-259376Y1317048D01*
G01X-242268Y1306901D01*
G01X-260077Y1296244D01*
G01X-275586Y1282454D01*
G01X-288252Y1266014D01*
G01X-297630Y1247501D01*
G01X-303392Y1227563D01*
G01X-305335Y1206901D01*
G01X-303392Y1186239D01*
G01X-297630Y1166301D01*
G01X-288252Y1147788D01*
G01X-275586Y1131348D01*
G01X-260077Y1117558D01*
G01X-242268Y1106901D01*
G01X-260077Y1096245D01*
G01X-275586Y1082455D01*
G01X-288252Y1066015D01*
G01X-297630Y1047501D01*
G01X-303392Y1027564D01*
G01X-305335Y1006901D01*
G01X-303392Y986239D01*
G01X-297630Y966302D01*
G01X-288252Y947788D01*
G01X-275586Y931348D01*
G01X-260077Y917558D01*
G01X-242268Y906902D01*
G01X-259376Y896755D01*
G01X-274395Y883713D01*
G01X-286840Y868196D01*
G01X-296311Y850704D01*
G01X-302502Y831801D01*
G01X-305213Y812095D01*
G01X-304359Y792223D01*
G01X-299965Y772823D01*
G01X-292174Y754521D01*
G01X-281236Y737907D01*
G01X-267504Y723516D01*
G01X-251421Y711812D01*
G01X-233505Y703171D01*
G01X-214332Y697873D01*
G01X-194521Y696088D01*
G01X-164521Y696088D01*
G01X-145867Y697669D01*
G01X-127745Y702369D01*
G01X-110673Y710051D01*
G01X-95138Y720498D01*
G01X-81583Y733411D01*
G01X-70395Y748422D01*
G01X-61894Y765102D01*
G01X-61894Y48514D01*
G01X-2468443Y48514D01*
G01X-2468443Y254000D01*
G01X-2421361Y254000D01*
G01X-2419508Y231646D01*
G01X-2414002Y209901D01*
G01X-2404992Y189360D01*
G01X-2392723Y170581D01*
G01X-2377531Y154078D01*
G01X-2359830Y140301D01*
G01X-2340102Y129625D01*
G01X-2318887Y122342D01*
G01X-2296762Y118650D01*
G01X-2274331Y118650D01*
G01X-2252206Y122342D01*
G01X-2230991Y129625D01*
G01X-2211263Y140301D01*
G01X-2193562Y154078D01*
G01X-2178370Y170581D01*
G01X-2166102Y189360D01*
G01X-2157091Y209901D01*
G01X-2151585Y231646D01*
G01X-2149733Y254000D01*
G01X-2149733Y254000D01*
G01X-2151585Y276354D01*
G01X-2157091Y298099D01*
G01X-2166102Y318640D01*
G01X-2178370Y337419D01*
G01X-2193562Y353922D01*
G01X-2211263Y367699D01*
G01X-2230991Y378375D01*
G01X-2252206Y385658D01*
G01X-2274331Y389350D01*
G01X-2296762Y389350D01*
G01X-2318887Y385658D01*
G01X-2340102Y378375D01*
G01X-2359830Y367699D01*
G01X-2377531Y353922D01*
G01X-2392723Y337419D01*
G01X-2404992Y318640D01*
G01X-2414002Y298099D01*
G01X-2419508Y276354D01*
G01X-2421361Y254000D01*
G01X-2468443Y254000D01*
G01X-2468443Y843870D01*
G01X-2430307Y843870D01*
G01X-2430307Y673870D01*
G01X-2428554Y662803D01*
G01X-2423467Y652819D01*
G01X-2415544Y644896D01*
G01X-2405560Y639809D01*
G01X-2394493Y638056D01*
G01X-2224494Y638056D01*
G01X-2213427Y639809D01*
G01X-2203443Y644896D01*
G01X-2195520Y652819D01*
G01X-2190433Y662803D01*
G01X-2188680Y673870D01*
G01X-2188680Y710356D01*
G01X-2179165Y710356D01*
G01X-2080944Y612135D01*
G01X-2103379Y611692D01*
G01X-2125402Y607393D01*
G01X-2146356Y599365D01*
G01X-2165614Y587848D01*
G01X-2182602Y573188D01*
G01X-2196811Y555820D01*
G01X-2207816Y536266D01*
G01X-2215290Y515108D01*
G01X-2219009Y492979D01*
G01X-2218862Y470541D01*
G01X-2214852Y448463D01*
G01X-2207101Y427405D01*
G01X-2195838Y407997D01*
G01X-2181402Y390818D01*
G01X-2164224Y376382D01*
G01X-2144815Y365120D01*
G01X-2123758Y357368D01*
G01X-2101680Y353359D01*
G01X-2079241Y353211D01*
G01X-2057112Y356930D01*
G01X-2035955Y364404D01*
G01X-2016400Y375410D01*
G01X-1999033Y389619D01*
G01X-1984372Y406606D01*
G01X-1972856Y425865D01*
G01X-1964828Y446819D01*
G01X-1960528Y468842D01*
G01X-1960086Y491277D01*
G01X-1867814Y399005D01*
G01X-1867814Y399005D01*
G01X-1867814Y310886D01*
G01X-1887747Y300779D01*
G01X-1905652Y287401D01*
G01X-1920995Y271151D01*
G01X-1933323Y252509D01*
G01X-1942271Y232028D01*
G01X-1947572Y210316D01*
G01X-1949070Y188017D01*
G01X-1946720Y165791D01*
G01X-1940592Y144298D01*
G01X-1930868Y124175D01*
G01X-1917836Y106018D01*
G01X-1901881Y90366D01*
G01X-1883479Y77684D01*
G01X-1863173Y68346D01*
G01X-1841567Y62630D01*
G01X-1819300Y60706D01*
G01X-1797033Y62630D01*
G01X-1775427Y68346D01*
G01X-1755121Y77684D01*
G01X-1736718Y90366D01*
G01X-1720764Y106018D01*
G01X-1707732Y124175D01*
G01X-1698007Y144298D01*
G01X-1691880Y165791D01*
G01X-1689530Y188017D01*
G01X-1690364Y200437D01*
G01X-1593113Y200437D01*
G01X-1592899Y178089D01*
G01X-1588854Y156108D01*
G01X-1581099Y135147D01*
G01X-1569862Y115827D01*
G01X-1555478Y98722D01*
G01X-1538373Y84337D01*
G01X-1519053Y73101D01*
G01X-1498092Y65345D01*
G01X-1476111Y61301D01*
G01X-1453763Y61087D01*
G01X-1431708Y64710D01*
G01X-1410603Y72064D01*
G01X-1391072Y82928D01*
G01X-1373694Y96983D01*
G01X-1358985Y113810D01*
G01X-1347381Y132911D01*
G01X-1339226Y153720D01*
G01X-1334762Y175619D01*
G01X-1334335Y190500D01*
G01X-1237894Y190500D01*
G01X-1235922Y167962D01*
G01X-1230066Y146108D01*
G01X-1220505Y125603D01*
G01X-1207528Y107070D01*
G01X-1191530Y91072D01*
G01X-1172997Y78095D01*
G01X-1152492Y68534D01*
G01X-1130638Y62678D01*
G01X-1108100Y60706D01*
G01X-1085561Y62678D01*
G01X-1063708Y68534D01*
G01X-1043203Y78095D01*
G01X-1024670Y91072D01*
G01X-1008672Y107070D01*
G01X-995695Y125603D01*
G01X-986133Y146108D01*
G01X-980278Y167962D01*
G01X-978306Y190500D01*
G01X-882294Y190500D01*
G01X-880322Y167962D01*
G01X-874466Y146108D01*
G01X-864905Y125603D01*
G01X-851928Y107070D01*
G01X-835930Y91072D01*
G01X-817397Y78095D01*
G01X-796892Y68534D01*
G01X-775038Y62678D01*
G01X-752500Y60706D01*
G01X-729961Y62678D01*
G01X-708108Y68534D01*
G01X-687603Y78095D01*
G01X-669070Y91072D01*
G01X-653072Y107070D01*
G01X-640095Y125603D01*
G01X-630533Y146108D01*
G01X-624678Y167962D01*
G01X-622706Y190500D01*
G01X-624678Y213038D01*
G01X-630533Y234892D01*
G01X-635890Y246380D01*
G01X-393014Y246380D01*
G01X-391162Y224026D01*
G01X-385655Y202281D01*
G01X-376645Y181740D01*
G01X-364376Y162961D01*
G01X-349184Y146458D01*
G01X-331483Y132681D01*
G01X-311756Y122005D01*
G01X-290540Y114722D01*
G01X-268415Y111030D01*
G01X-245984Y111030D01*
G01X-223860Y114722D01*
G01X-202644Y122005D01*
G01X-182917Y132681D01*
G01X-165216Y146458D01*
G01X-150024Y162961D01*
G01X-137755Y181740D01*
G01X-128745Y202281D01*
G01X-123238Y224026D01*
G01X-121386Y246380D01*
G01X-121386Y246380D01*
G01X-123238Y268734D01*
G01X-128745Y290479D01*
G01X-137755Y311020D01*
G01X-150024Y329799D01*
G01X-165216Y346302D01*
G01X-182917Y360079D01*
G01X-202644Y370755D01*
G01X-223860Y378038D01*
G01X-245984Y381730D01*
G01X-268415Y381730D01*
G01X-290540Y378038D01*
G01X-311756Y370755D01*
G01X-331483Y360079D01*
G01X-349184Y346302D01*
G01X-364376Y329799D01*
G01X-376645Y311020D01*
G01X-385655Y290479D01*
G01X-391162Y268734D01*
G01X-393014Y246380D01*
G01X-635890Y246380D01*
G01X-640095Y255397D01*
G01X-653072Y273930D01*
G01X-669070Y289928D01*
G01X-687603Y302905D01*
G01X-708108Y312466D01*
G01X-729961Y318322D01*
G01X-752500Y320294D01*
G01X-752500Y320294D01*
G01X-775038Y318322D01*
G01X-796892Y312466D01*
G01X-817397Y302905D01*
G01X-835930Y289928D01*
G01X-851928Y273930D01*
G01X-864905Y255397D01*
G01X-874466Y234892D01*
G01X-880322Y213038D01*
G01X-882294Y190500D01*
G01X-978306Y190500D01*
G01X-978306Y190500D01*
G01X-980278Y213038D01*
G01X-986133Y234892D01*
G01X-995695Y255397D01*
G01X-1008672Y273930D01*
G01X-1024670Y289928D01*
G01X-1043203Y302905D01*
G01X-1063708Y312466D01*
G01X-1085561Y318322D01*
G01X-1108100Y320294D01*
G01X-1108100Y320294D01*
G01X-1130638Y318322D01*
G01X-1152492Y312466D01*
G01X-1172997Y302905D01*
G01X-1191530Y289928D01*
G01X-1207528Y273930D01*
G01X-1220505Y255397D01*
G01X-1230066Y234892D01*
G01X-1235922Y213038D01*
G01X-1237894Y190500D01*
G01X-1334335Y190500D01*
G01X-1334120Y197960D01*
G01X-1337321Y220079D01*
G01X-1344269Y241321D01*
G01X-1129961Y455629D01*
G01X-617982Y455629D01*
G01X-616010Y433087D01*
G01X-610153Y411230D01*
G01X-600590Y390722D01*
G01X-587611Y372186D01*
G01X-571611Y356186D01*
G01X-553075Y343207D01*
G01X-532567Y333644D01*
G01X-510710Y327787D01*
G01X-488168Y325815D01*
G01X-465626Y327787D01*
G01X-443769Y333644D01*
G01X-423261Y343207D01*
G01X-404725Y356186D01*
G01X-388725Y372186D01*
G01X-375746Y390722D01*
G01X-366183Y411230D01*
G01X-360326Y433087D01*
G01X-358354Y455629D01*
G01X-360326Y478171D01*
G01X-366183Y500028D01*
G01X-375746Y520536D01*
G01X-388725Y539072D01*
G01X-404725Y555073D01*
G01X-423261Y568051D01*
G01X-443769Y577614D01*
G01X-465626Y583471D01*
G01X-488168Y585443D01*
G01X-510710Y583471D01*
G01X-532567Y577614D01*
G01X-553075Y568051D01*
G01X-571611Y555073D01*
G01X-587611Y539072D01*
G01X-600590Y520536D01*
G01X-610153Y500028D01*
G01X-616010Y478171D01*
G01X-617982Y455629D01*
G01X-617982Y455629D01*
G01X-1129961Y455629D01*
G01X-490993Y1094598D01*
G01X-483283Y1104645D01*
G01X-478437Y1116346D01*
G01X-476784Y1128902D01*
G01X-476784Y1775277D01*
G01X-457943Y1784714D01*
G01X-440877Y1797075D01*
G01X-426037Y1812035D01*
G01X-413813Y1829198D01*
G01X-404527Y1848114D01*
G01X-398425Y1868283D01*
G01X-395666Y1889174D01*
G01X-396325Y1910235D01*
G01X-400382Y1930913D01*
G01X-407732Y1950662D01*
G01X-418181Y1968960D01*
G01X-431453Y1985327D01*
G01X-447199Y1999331D01*
G01X-465003Y2010602D01*
G01X-484396Y2018844D01*
G01X-504868Y2023839D01*
G01X-525878Y2025456D01*
G01X-546872Y2023651D01*
G01X-567298Y2018474D01*
G01X-586617Y2010059D01*
G01X-586425Y2032000D01*
G01X-380314Y2032000D01*
G01X-378462Y2009646D01*
G01X-372955Y1987901D01*
G01X-363945Y1967360D01*
G01X-351676Y1948581D01*
G01X-336484Y1932078D01*
G01X-318783Y1918301D01*
G01X-299056Y1907625D01*
G01X-277840Y1900342D01*
G01X-255715Y1896650D01*
G01X-233284Y1896650D01*
G01X-211160Y1900342D01*
G01X-189944Y1907625D01*
G01X-170217Y1918301D01*
G01X-152516Y1932078D01*
G01X-137324Y1948581D01*
G01X-125055Y1967360D01*
G01X-116045Y1987901D01*
G01X-110538Y2009646D01*
G01X-108686Y2032000D01*
G01X-108686Y2032000D01*
G01X-110538Y2054354D01*
G01X-116045Y2076099D01*
G01X-125055Y2096640D01*
G01X-137324Y2115419D01*
G01X-152516Y2131922D01*
G01X-170217Y2145699D01*
G01X-189944Y2156375D01*
G01X-211160Y2163658D01*
G01X-233284Y2167350D01*
G01X-255715Y2167350D01*
G01X-277840Y2163658D01*
G01X-299056Y2156375D01*
G01X-318783Y2145699D01*
G01X-336484Y2131922D01*
G01X-351676Y2115419D01*
G01X-363945Y2096640D01*
G01X-372955Y2076099D01*
G01X-378462Y2054354D01*
G01X-380314Y2032000D01*
G01X-586425Y2032000D01*
G01X-586416Y2033001D01*
G01X-590257Y2055619D01*
G01X-598021Y2077208D01*
G01X-609465Y2097093D01*
G01X-624231Y2114652D01*
G01X-641857Y2129337D01*
G01X-661794Y2140689D01*
G01X-683419Y2148353D01*
G01X-706055Y2152091D01*
G01X-728995Y2151784D01*
G01X-751523Y2147443D01*
G01X-772935Y2139204D01*
G01X-792562Y2127323D01*
G01X-809790Y2112172D01*
G01X-824081Y2094225D01*
G01X-834989Y2074041D01*
G01X-842173Y2052253D01*
G01X-845409Y2029539D01*
G01X-844595Y2006611D01*
G01X-839757Y1984185D01*
G01X-831045Y1962961D01*
G01X-818733Y1943602D01*
G01X-803205Y1926713D01*
G01X-784946Y1912822D01*
G01X-764526Y1902363D01*
G01X-742584Y1895663D01*
G01X-764526Y1888963D01*
G01X-784946Y1878504D01*
G01X-803205Y1864613D01*
G01X-818733Y1847725D01*
G01X-831045Y1828366D01*
G01X-839757Y1807141D01*
G01X-844595Y1784715D01*
G01X-845409Y1761787D01*
G01X-842173Y1739074D01*
G01X-834989Y1717285D01*
G01X-824081Y1697102D01*
G01X-809790Y1679154D01*
G01X-792562Y1664004D01*
G01X-772935Y1652123D01*
G01X-751523Y1643883D01*
G01X-728995Y1639542D01*
G01X-706055Y1639236D01*
G01X-683419Y1642973D01*
G01X-661794Y1650638D01*
G01X-641857Y1661990D01*
G01X-624231Y1676675D01*
G01X-609465Y1694234D01*
G01X-598021Y1714118D01*
G01X-590257Y1735707D01*
G01X-586416Y1758326D01*
G01X-586617Y1781267D01*
G01X-573812Y1775277D01*
G01X-573812Y1148997D01*
G01X-1412878Y309931D01*
G01X-1412878Y309931D01*
G01X-1434121Y316879D01*
G01X-1456240Y320079D01*
G01X-1478581Y319438D01*
G01X-1500480Y314974D01*
G01X-1521289Y306819D01*
G01X-1540390Y295215D01*
G01X-1557217Y280506D01*
G01X-1571272Y263128D01*
G01X-1582136Y243597D01*
G01X-1589490Y222491D01*
G01X-1593113Y200437D01*
G01X-1690364Y200437D01*
G01X-1691028Y210316D01*
G01X-1696329Y232028D01*
G01X-1705276Y252509D01*
G01X-1717605Y271151D01*
G01X-1732948Y287401D01*
G01X-1750852Y300779D01*
G01X-1770786Y310886D01*
G01X-1770786Y419100D01*
G01X-1772439Y431656D01*
G01X-1777286Y443357D01*
G01X-1784995Y453405D01*
G01X-2124766Y793175D01*
G01X-2134813Y800885D01*
G01X-2146514Y805731D01*
G01X-2159070Y807384D01*
G01X-2188680Y807384D01*
G01X-2188680Y843870D01*
G01X-2190433Y854937D01*
G01X-2195520Y864921D01*
G01X-2203443Y872844D01*
G01X-2213427Y877931D01*
G01X-2224494Y879684D01*
G01X-2394493Y879684D01*
G01X-2405560Y877931D01*
G01X-2415544Y872844D01*
G01X-2423467Y864921D01*
G01X-2428554Y854937D01*
G01X-2430307Y843870D01*
G01X-2468443Y843870D01*
G01X-2468443Y1012870D01*
G01X-2430307Y1012870D01*
G01X-2428472Y991891D01*
G01X-2423021Y971549D01*
G01X-2414121Y952463D01*
G01X-2402042Y935213D01*
G01X-2387151Y920321D01*
G01X-2369900Y908242D01*
G01X-2350814Y899342D01*
G01X-2330473Y893892D01*
G01X-2309493Y892056D01*
G01X-2309493Y892056D01*
G01X-2288514Y893892D01*
G01X-2268173Y899342D01*
G01X-2249087Y908242D01*
G01X-2231836Y920321D01*
G01X-2216945Y935213D01*
G01X-2204866Y952463D01*
G01X-2195966Y971549D01*
G01X-2190515Y991891D01*
G01X-2188680Y1012870D01*
G01X-2190515Y1033849D01*
G01X-2195966Y1054191D01*
G01X-2204866Y1073277D01*
G01X-2216945Y1090528D01*
G01X-2231836Y1105419D01*
G01X-2249087Y1117498D01*
G01X-2268173Y1126398D01*
G01X-2288514Y1131849D01*
G01X-2309493Y1133684D01*
G01X-2330473Y1131849D01*
G01X-2350814Y1126398D01*
G01X-2369900Y1117498D01*
G01X-2387151Y1105419D01*
G01X-2402042Y1090528D01*
G01X-2414121Y1073277D01*
G01X-2423021Y1054191D01*
G01X-2428472Y1033849D01*
G01X-2430307Y1012870D01*
G01X-2468443Y1012870D01*
G01X-2468443Y1518143D01*
G01X-2430277Y1518143D01*
G01X-2427794Y1496358D01*
G01X-2421416Y1475379D01*
G01X-2411350Y1455899D01*
G01X-2397929Y1438559D01*
G01X-2381596Y1423931D01*
G01X-2362887Y1412495D01*
G01X-2342419Y1404630D01*
G01X-2320867Y1400593D01*
G01X-2298941Y1400518D01*
G01X-2277362Y1404408D01*
G01X-2234713Y1361759D01*
G01X-2252680Y1373492D01*
G01X-2272441Y1381862D01*
G01X-2293370Y1386603D01*
G01X-2314808Y1387567D01*
G01X-2336078Y1384723D01*
G01X-2356510Y1378160D01*
G01X-2375458Y1368086D01*
G01X-2392325Y1354818D01*
G01X-2406579Y1338776D01*
G01X-2417769Y1320465D01*
G01X-2425543Y1300463D01*
G01X-2429656Y1279401D01*
G01X-2429977Y1257944D01*
G01X-2426497Y1236768D01*
G01X-2419325Y1216542D01*
G01X-2408688Y1197904D01*
G01X-2394922Y1181442D01*
G01X-2378460Y1167675D01*
G01X-2359822Y1157038D01*
G01X-2339596Y1149867D01*
G01X-2318420Y1146387D01*
G01X-2296963Y1146708D01*
G01X-2275901Y1150821D01*
G01X-2255899Y1158595D01*
G01X-2237588Y1169785D01*
G01X-2221545Y1184039D01*
G01X-2208278Y1200905D01*
G01X-2198204Y1219854D01*
G01X-2191641Y1240285D01*
G01X-2188797Y1261556D01*
G01X-2189760Y1282994D01*
G01X-2194502Y1303923D01*
G01X-2202872Y1323683D01*
G01X-2214605Y1341651D01*
G01X-1905449Y1032495D01*
G01X-1895402Y1024786D01*
G01X-1883701Y1019939D01*
G01X-1871145Y1018286D01*
G01X-1780986Y1018286D01*
G01X-1780986Y1018286D01*
G01X-1768429Y1019939D01*
G01X-1756729Y1024786D01*
G01X-1746681Y1032495D01*
G01X-1592041Y1187135D01*
G01X-1586926Y1165735D01*
G01X-1578270Y1145506D01*
G01X-1566321Y1127031D01*
G01X-1551423Y1110839D01*
G01X-1534004Y1097396D01*
G01X-1514565Y1087088D01*
G01X-1493664Y1080212D01*
G01X-1471902Y1076965D01*
G01X-1449904Y1077441D01*
G01X-1428302Y1081626D01*
G01X-1407718Y1089399D01*
G01X-1388743Y1100538D01*
G01X-1371922Y1114722D01*
G01X-1357738Y1131543D01*
G01X-1346599Y1150518D01*
G01X-1338826Y1171103D01*
G01X-1334641Y1192704D01*
G01X-1334343Y1206500D01*
G01X-1237894Y1206500D01*
G01X-1235922Y1183962D01*
G01X-1230066Y1162108D01*
G01X-1220505Y1141603D01*
G01X-1207528Y1123070D01*
G01X-1191530Y1107072D01*
G01X-1172997Y1094095D01*
G01X-1152492Y1084534D01*
G01X-1130638Y1078678D01*
G01X-1108100Y1076706D01*
G01X-1085561Y1078678D01*
G01X-1063708Y1084534D01*
G01X-1043203Y1094095D01*
G01X-1024670Y1107072D01*
G01X-1008672Y1123070D01*
G01X-995695Y1141603D01*
G01X-986133Y1162108D01*
G01X-980278Y1183962D01*
G01X-978306Y1206500D01*
G01X-882294Y1206500D01*
G01X-880322Y1183962D01*
G01X-874466Y1162108D01*
G01X-864905Y1141603D01*
G01X-851928Y1123070D01*
G01X-835930Y1107072D01*
G01X-817397Y1094095D01*
G01X-796892Y1084534D01*
G01X-775038Y1078678D01*
G01X-752500Y1076706D01*
G01X-729961Y1078678D01*
G01X-708108Y1084534D01*
G01X-687603Y1094095D01*
G01X-669070Y1107072D01*
G01X-653072Y1123070D01*
G01X-640095Y1141603D01*
G01X-630533Y1162108D01*
G01X-624678Y1183962D01*
G01X-622706Y1206500D01*
G01X-624678Y1229038D01*
G01X-630533Y1250892D01*
G01X-640095Y1271397D01*
G01X-653072Y1289930D01*
G01X-669070Y1305928D01*
G01X-687603Y1318905D01*
G01X-708108Y1328466D01*
G01X-729961Y1334322D01*
G01X-752500Y1336294D01*
G01X-752500Y1336294D01*
G01X-775038Y1334322D01*
G01X-796892Y1328466D01*
G01X-817397Y1318905D01*
G01X-835930Y1305928D01*
G01X-851928Y1289930D01*
G01X-864905Y1271397D01*
G01X-874466Y1250892D01*
G01X-880322Y1229038D01*
G01X-882294Y1206500D01*
G01X-978306Y1206500D01*
G01X-980278Y1229038D01*
G01X-986133Y1250892D01*
G01X-995695Y1271397D01*
G01X-1008672Y1289930D01*
G01X-1024670Y1305928D01*
G01X-1043203Y1318905D01*
G01X-1063708Y1328466D01*
G01X-1085561Y1334322D01*
G01X-1108100Y1336294D01*
G01X-1108100Y1336294D01*
G01X-1130638Y1334322D01*
G01X-1152492Y1328466D01*
G01X-1172997Y1318905D01*
G01X-1191530Y1305928D01*
G01X-1207528Y1289930D01*
G01X-1220505Y1271397D01*
G01X-1230066Y1250892D01*
G01X-1235922Y1229038D01*
G01X-1237894Y1206500D01*
G01X-1334343Y1206500D01*
G01X-1334165Y1214702D01*
G01X-1337412Y1236464D01*
G01X-1344288Y1257365D01*
G01X-1354595Y1276804D01*
G01X-1368038Y1294223D01*
G01X-1384230Y1309121D01*
G01X-1402706Y1321070D01*
G01X-1422935Y1329726D01*
G01X-1444335Y1334841D01*
G01X-1354491Y1424686D01*
G01X-1040995Y1424686D01*
G01X-1029220Y1405704D01*
G01X-1014364Y1389021D01*
G01X-996868Y1375133D01*
G01X-977250Y1364451D01*
G01X-956090Y1357291D01*
G01X-934017Y1353864D01*
G01X-911682Y1354274D01*
G01X-889749Y1358507D01*
G01X-868866Y1366438D01*
G01X-849653Y1377832D01*
G01X-832678Y1392352D01*
G01X-818444Y1409568D01*
G01X-807372Y1428969D01*
G01X-799791Y1449981D01*
G01X-795926Y1471982D01*
G01X-795889Y1494320D01*
G01X-799684Y1516334D01*
G01X-807197Y1537370D01*
G01X-818206Y1556807D01*
G01X-832385Y1574069D01*
G01X-849313Y1588643D01*
G01X-868489Y1600100D01*
G01X-889346Y1608098D01*
G01X-911266Y1612402D01*
G01X-933599Y1612883D01*
G01X-955683Y1609528D01*
G01X-976866Y1602436D01*
G01X-996518Y1591817D01*
G01X-1014059Y1577986D01*
G01X-1028969Y1561352D01*
G01X-1040805Y1542407D01*
G01X-1049218Y1521714D01*
G01X-1374586Y1521714D01*
G01X-1387142Y1520061D01*
G01X-1398843Y1515214D01*
G01X-1408890Y1507505D01*
G01X-1690903Y1225492D01*
G01X-1694368Y1241693D01*
G01X-1699869Y1257321D01*
G01X-1697425Y1259765D01*
G01X-1689715Y1269813D01*
G01X-1684869Y1281514D01*
G01X-1683216Y1294070D01*
G01X-1683216Y1778086D01*
G01X-1664375Y1787522D01*
G01X-1647310Y1799883D01*
G01X-1632469Y1814843D01*
G01X-1620245Y1832007D01*
G01X-1610959Y1850923D01*
G01X-1604857Y1871092D01*
G01X-1602098Y1891982D01*
G01X-1602757Y1913044D01*
G01X-1606814Y1933721D01*
G01X-1614165Y1953470D01*
G01X-1624613Y1971769D01*
G01X-1637886Y1988136D01*
G01X-1653631Y2002139D01*
G01X-1671435Y2013411D01*
G01X-1690829Y2021653D01*
G01X-1711300Y2026648D01*
G01X-1732310Y2028264D01*
G01X-1753304Y2026460D01*
G01X-1773730Y2021282D01*
G01X-1793049Y2012867D01*
G01X-1792848Y2035809D01*
G01X-1796689Y2058428D01*
G01X-1804453Y2080016D01*
G01X-1815897Y2099901D01*
G01X-1830663Y2117460D01*
G01X-1848290Y2132145D01*
G01X-1868227Y2143497D01*
G01X-1889851Y2151162D01*
G01X-1912487Y2154899D01*
G01X-1935427Y2154593D01*
G01X-1957955Y2150252D01*
G01X-1979367Y2142012D01*
G01X-1998994Y2130131D01*
G01X-2016222Y2114981D01*
G01X-2030513Y2097033D01*
G01X-2041421Y2076850D01*
G01X-2048606Y2055061D01*
G01X-2051841Y2032348D01*
G01X-2051027Y2009420D01*
G01X-2046189Y1986993D01*
G01X-2037477Y1965769D01*
G01X-2025165Y1946410D01*
G01X-2009637Y1929522D01*
G01X-1991378Y1915631D01*
G01X-1970958Y1905172D01*
G01X-1949016Y1898472D01*
G01X-1970958Y1891771D01*
G01X-1991378Y1881313D01*
G01X-2009637Y1867422D01*
G01X-2025165Y1850533D01*
G01X-2037477Y1831174D01*
G01X-2046189Y1809950D01*
G01X-2051027Y1787523D01*
G01X-2051841Y1764595D01*
G01X-2048606Y1741882D01*
G01X-2041421Y1720094D01*
G01X-2030513Y1699910D01*
G01X-2016222Y1681963D01*
G01X-1998994Y1666812D01*
G01X-1979367Y1654931D01*
G01X-1957955Y1646692D01*
G01X-1935427Y1642351D01*
G01X-1912487Y1642044D01*
G01X-1889851Y1645782D01*
G01X-1868227Y1653446D01*
G01X-1848290Y1664798D01*
G01X-1830663Y1679483D01*
G01X-1815897Y1697042D01*
G01X-1804453Y1716927D01*
G01X-1796689Y1738516D01*
G01X-1792848Y1761134D01*
G01X-1793049Y1784076D01*
G01X-1780244Y1778085D01*
G01X-1780244Y1330278D01*
G01X-1799446Y1334767D01*
G01X-1819106Y1336294D01*
G01X-1838771Y1334825D01*
G01X-1857986Y1330395D01*
G01X-1876308Y1323104D01*
G01X-1893315Y1313122D01*
G01X-1908613Y1300679D01*
G01X-1921849Y1286062D01*
G01X-1932718Y1269609D01*
G01X-1940970Y1251699D01*
G01X-1946413Y1232745D01*
G01X-1948922Y1213186D01*
G01X-2201817Y1466082D01*
G01X-2194920Y1483360D01*
G01X-2071014Y1483360D01*
G01X-2069042Y1460822D01*
G01X-2063186Y1438968D01*
G01X-2053625Y1418463D01*
G01X-2040648Y1399930D01*
G01X-2024650Y1383932D01*
G01X-2006117Y1370955D01*
G01X-1985612Y1361394D01*
G01X-1963758Y1355538D01*
G01X-1941220Y1353566D01*
G01X-1918681Y1355538D01*
G01X-1896828Y1361394D01*
G01X-1876323Y1370955D01*
G01X-1857790Y1383932D01*
G01X-1841792Y1399930D01*
G01X-1828815Y1418463D01*
G01X-1819253Y1438968D01*
G01X-1813398Y1460822D01*
G01X-1811426Y1483360D01*
G01X-1811426Y1483360D01*
G01X-1813398Y1505898D01*
G01X-1819253Y1527752D01*
G01X-1828815Y1548257D01*
G01X-1841792Y1566790D01*
G01X-1857790Y1582788D01*
G01X-1876323Y1595765D01*
G01X-1896828Y1605326D01*
G01X-1918681Y1611182D01*
G01X-1941220Y1613154D01*
G01X-1963758Y1611182D01*
G01X-1985612Y1605326D01*
G01X-2006117Y1595765D01*
G01X-2024650Y1582788D01*
G01X-2040648Y1566790D01*
G01X-2053625Y1548257D01*
G01X-2063186Y1527752D01*
G01X-2069042Y1505898D01*
G01X-2071014Y1483360D01*
G01X-2194920Y1483360D01*
G01X-2193688Y1486446D01*
G01X-2189373Y1507944D01*
G01X-2189015Y1529868D01*
G01X-2192626Y1551495D01*
G01X-2200086Y1572114D01*
G01X-2211150Y1591045D01*
G01X-2225453Y1607664D01*
G01X-2242524Y1621424D01*
G01X-2261802Y1631872D01*
G01X-2282650Y1638664D01*
G01X-2304383Y1641576D01*
G01X-2326284Y1640512D01*
G01X-2347632Y1635506D01*
G01X-2367723Y1626725D01*
G01X-2385897Y1614457D01*
G01X-2401554Y1599106D01*
G01X-2414178Y1581178D01*
G01X-2423354Y1561264D01*
G01X-2428780Y1540019D01*
G01X-2430277Y1518143D01*
G01X-2468443Y1518143D01*
G01X-2468443Y2032000D01*
G01X-2425014Y2032000D01*
G01X-2423162Y2009646D01*
G01X-2417655Y1987901D01*
G01X-2408645Y1967360D01*
G01X-2396376Y1948581D01*
G01X-2381184Y1932078D01*
G01X-2363483Y1918301D01*
G01X-2343756Y1907625D01*
G01X-2322540Y1900342D01*
G01X-2300415Y1896650D01*
G01X-2277984Y1896650D01*
G01X-2255860Y1900342D01*
G01X-2234644Y1907625D01*
G01X-2214917Y1918301D01*
G01X-2197216Y1932078D01*
G01X-2182024Y1948581D01*
G01X-2169755Y1967360D01*
G01X-2160745Y1987901D01*
G01X-2155238Y2009646D01*
G01X-2153386Y2032000D01*
G01X-2153386Y2032000D01*
G01X-2155238Y2054354D01*
G01X-2160745Y2076099D01*
G01X-2169755Y2096640D01*
G01X-2182024Y2115419D01*
G01X-2197216Y2131922D01*
G01X-2214917Y2145699D01*
G01X-2234644Y2156375D01*
G01X-2255860Y2163658D01*
G01X-2277984Y2167350D01*
G01X-2300415Y2167350D01*
G01X-2322540Y2163658D01*
G01X-2343756Y2156375D01*
G01X-2363483Y2145699D01*
G01X-2381184Y2131922D01*
G01X-2396376Y2115419D01*
G01X-2408645Y2096640D01*
G01X-2417655Y2076099D01*
G01X-2423162Y2054354D01*
G01X-2425014Y2032000D01*
G01X-2468443Y2032000D01*
G01X-2468443Y2185973D01*
G01X-61894Y2185973D01*
G37*
G54D10*
G01X-61894Y2185973D02*
G01X-61894Y1448701D01*
G03X-164521Y1517715I-102628J-41800D01*
G01X-194521Y1517715D01*
G03X-242268Y1306901I0J-110814D01*
G03X-242268Y1106901I47747J-100000D01*
G03X-242268Y906902I47747J-100000D01*
G03X-194521Y696088I47747J-100000D01*
G01X-164521Y696088D01*
G03X-61894Y765102I0J110814D01*
G01X-61894Y48514D01*
G01X-2468443Y48514D01*
G01X-2468443Y2185973D01*
G01X-61894Y2185973D01*
G01X-1867814Y399005D02*
G01X-1867814Y310886D01*
G03X-1819300Y60706I48514J-120386D01*
G03X-1770786Y310886I0J129794D01*
G01X-1770786Y419100D01*
G03X-1784995Y453405I-48514J0D01*
G01X-2124766Y793175D01*
G03X-2159070Y807384I-34305J-34305D01*
G01X-2188680Y807384D01*
G01X-2188680Y843870D01*
G03X-2224494Y879684I-35814J0D01*
G01X-2394493Y879684D01*
G03X-2430307Y843870I0J-35814D01*
G01X-2430307Y673870D01*
G03X-2394493Y638056I35814J0D01*
G01X-2224494Y638056D01*
G03X-2188680Y673870I0J35814D01*
G01X-2188680Y710356D01*
G01X-2179165Y710356D01*
G01X-2080944Y612135D01*
G03X-2181402Y390818I-8666J-129524D01*
G03X-1960086Y491277I91792J91792D01*
G01X-1867814Y399005D01*
G01X-1780986Y1018286D02*
G03X-1746681Y1032495I0J48514D01*
G01X-1592041Y1187135D01*
G03X-1371922Y1114722I128341J19365D01*
G03X-1444335Y1334841I-91778J91778D01*
G01X-1354491Y1424686D01*
G01X-1040995Y1424686D01*
G03X-795889Y1494320I115775J58674D01*
G03X-1049218Y1521714I-129330J-10960D01*
G01X-1374586Y1521714D01*
G03X-1408890Y1507505I0J-48514D01*
G01X-1690903Y1225492D01*
G03X-1699869Y1257321I-128397J-18992D01*
G01X-1697425Y1259765D01*
G03X-1683216Y1294070I-34305J34305D01*
G01X-1683216Y1778086D01*
G03X-1614165Y1953470I-48514J120386D01*
G03X-1793049Y2012867I-117565J-54998D01*
G03X-1998994Y2130131I-129180J12604D01*
G03X-1949016Y1898472I76764J-104660D01*
G03X-1998994Y1666812I26786J-127000D01*
G03X-1793049Y1784076I76764J104660D01*
G03X-1780244Y1778085I61319J114396D01*
G01X-1780244Y1330278D01*
G03X-1893315Y1313122I-39056J-123778D01*
G03X-1948922Y1213186I74015J-106622D01*
G01X-2201817Y1466082D01*
G03X-2385897Y1614457I-107676J54789D01*
G03X-2277362Y1404408I76403J-93587D01*
G01X-2234713Y1361759D01*
G03X-2394922Y1181442I-74781J-94888D01*
G03X-2214605Y1341651I85428J85428D01*
G01X-1905449Y1032495D01*
G03X-1871145Y1018286I34305J34305D01*
G01X-1780986Y1018286D01*
G01X-2309493Y892056D02*
G03X-2309493Y1133684I0J120814D01*
G03X-2309493Y892056I0J-120814D01*
G01X-2153386Y2032000D02*
G03X-2425014Y2032000I-135814J0D01*
G03X-2153386Y2032000I135814J0D01*
G01X-2149733Y254000D02*
G03X-2421361Y254000I-135814J0D01*
G03X-2149733Y254000I135814J0D01*
G01X-1811426Y1483360D02*
G03X-2071014Y1483360I-129794J0D01*
G03X-1811426Y1483360I129794J0D01*
G01X-1412878Y309931D02*
G03X-1555478Y98722I-50821J-119431D01*
G03X-1344269Y241321I91778J91778D01*
G01X-490993Y1094598D01*
G03X-476784Y1128902I-34305J34305D01*
G01X-476784Y1775277D01*
G03X-407732Y1950662I-48514J120386D01*
G03X-586617Y2010059I-117565J-54998D01*
G03X-792562Y2127323I-129180J12604D01*
G03X-742584Y1895663I76764J-104660D01*
G03X-792562Y1664004I26786J-127000D01*
G03X-586617Y1781267I76764J104660D01*
G03X-573812Y1775277I61319J114396D01*
G01X-573812Y1148997D01*
G01X-1412878Y309931D01*
G01X-1108100Y320294D02*
G03X-1108100Y60706I0J-129794D01*
G03X-1108100Y320294I0J129794D01*
G01X-1108100Y1336294D02*
G03X-1108100Y1076706I0J-129794D01*
G03X-1108100Y1336294I0J129794D01*
G01X-752500Y320294D02*
G03X-752500Y60706I0J-129794D01*
G03X-752500Y320294I0J129794D01*
G01X-752500Y1336294D02*
G03X-752500Y1076706I0J-129794D01*
G03X-752500Y1336294I0J129794D01*
G01X-617982Y455629D02*
G03X-358354Y455629I129814J0D01*
G03X-617982Y455629I-129814J0D01*
G01X-121386Y246380D02*
G03X-393014Y246380I-135814J0D01*
G03X-121386Y246380I135814J0D01*
G01X-108686Y2032000D02*
G03X-380314Y2032000I-135814J0D01*
G03X-108686Y2032000I135814J0D01*
G54D11*
G01X-2309493Y928124D02*
G01X-2309493Y902216D01*
G01X-2309493Y1097616D02*
G01X-2309493Y1123524D01*
G01X-2394239Y1012870D02*
G01X-2420147Y1012870D01*
G01X-2224748Y1012870D02*
G01X-2198840Y1012870D01*
G01X-2183356Y482610D02*
G01X-2209264Y482610D01*
G01X-1995864Y482610D02*
G01X-1969956Y482610D01*
G01X-2089610Y576356D02*
G01X-2089610Y602264D01*
G01X-2089610Y388864D02*
G01X-2089610Y362956D01*
G01X-1922230Y2119197D02*
G01X-1922230Y2145105D01*
G01X-1828504Y2025471D02*
G01X-1802596Y2025471D01*
G01X-2015955Y2025471D02*
G01X-2041863Y2025471D01*
G01X-715797Y2116389D02*
G01X-715797Y2142297D01*
G01X-622072Y2022663D02*
G01X-596164Y2022663D01*
G01X-809523Y2022663D02*
G01X-835431Y2022663D01*
G01X-179521Y1481647D02*
G01X-179521Y1507555D01*
G01X-269267Y1406901D02*
G01X-295175Y1406901D01*
G04 Copper End*

G04 Pad Start*
G54D12*
G01X-2285547Y254000D03*
G01X-257200Y246380D03*
G01X-244500Y2032000D03*
G01X-2289200Y2032000D03*
G54D13*
G01X-1463700Y1206500D03*
G01X-1463700Y190500D03*
G01X-1108100Y1206500D03*
G01X-1108100Y190500D03*
G01X-925220Y1483360D03*
G01X-1941220Y1483360D03*
G01X-752500Y1206500D03*
G01X-752500Y190500D03*
G01X-1819300Y190500D03*
G01X-1819300Y1206500D03*
G54D14*
G01X-2309493Y758870D03*
G54D15*
G01X-2309493Y1012870D03*
G01X-2309493Y1266870D03*
G01X-2309493Y1520870D03*
G54D16*
G01X-488168Y455629D03*
G01X-2089610Y482610D03*
G54D18*
G01X-179521Y806902D03*
G01X-179521Y1006901D03*
G01X-179521Y1206901D03*
G01X-179521Y1406901D03*
G54D13*
G01X-1922230Y1771472D03*
G01X-1731730Y1898472D03*
G01X-1922230Y2025471D03*
G01X-715797Y1768663D03*
G01X-525298Y1895663D03*
G01X-715797Y2022663D03*
G04 Pad End*

G04 Track Start*
G54D11*
G01X-1463700Y190500D02*
G01X-525298Y1128902D01*
G01X-525298Y1895663D01*
G01X-1819300Y1206500D02*
G01X-1731730Y1294070D01*
G01X-1731730Y1898472D01*
G01X-1819300Y190500D02*
G01X-1819300Y419100D01*
G01X-2159070Y758870D01*
G01X-2309493Y758870D01*
G01X-925220Y1473200D02*
G01X-1374586Y1473200D01*
G01X-1780986Y1066800D01*
G01X-1871145Y1066800D01*
G01X-2305563Y1501218D01*
G01X-2305563Y1516940D01*
G01X-2309493Y1520870D01*
G04 Track End*

M02*

