;TYPE=PLATED
;Layer: PTH_Through
;EasyEDA Pro v2.2.40.8, 2025-10-31 20:07:01
;Gerber Generator version 0.3
M48
METRIC,LZ,0000.00000
;Hole size 1 = 0.30500 METRIC
T01C0.30500
;Hole size 2 = 0.81280 METRIC
T02C0.81280
;Hole size 3 = 0.89916 METRIC
T03C0.89916
;Hole size 4 = 1.00000 METRIC
T04C1.00000
;Hole size 5 = 1.10002 METRIC
T05C1.10002
%
G05
G90
T01
X-18.97202Y15.71668
X-18.97202Y5.55668
X-13.89202Y15.71668
X-13.89202Y5.55668
X-8.81202Y10.63668
X-8.81202Y15.71668
X-8.81202Y5.55668
X-1.70504Y19.56666
X-5.06536Y5.67399
T02
X-18.85586Y17.70519
X-20.12586Y19.61019
X-21.39586Y17.70519
X-3.79093Y17.61164
X-5.06093Y19.51663
X-6.33093Y17.61164
T03
X-18.288Y1.651
X-18.288Y11.811
X-6.731Y11.811
X-6.731Y1.651
X-6.79343Y14.51729
X-16.95343Y14.51729
X-10.414Y11.811
X-10.414Y1.651
X-14.351Y11.811
X-14.351Y1.651
T04
X-2.50203Y2.1632
X-22.54708Y2.14264
T05
X-22.733Y6.477
X-22.733Y9.017
X-22.733Y11.557
X-22.733Y14.097
X-2.54Y13.97
X-2.54Y11.43
X-2.54Y8.89
X-2.54Y6.35
M30