;TYPE=PLATED
;Layer: PTH_Through
;EasyEDA Pro v2.2.40.8, 2025-10-31 20:06:03
;Gerber Generator version 0.3
M48
METRIC,LZ,0000.00000
;Hole size 1 = 0.30500 METRIC
T01C0.30500
;Hole size 2 = 0.81280 METRIC
T02C0.81280
;Hole size 3 = 0.89916 METRIC
T03C0.89916
;Hole size 4 = 1.10000 METRIC
T04C1.10000
;Hole size 5 = 1.10002 METRIC
T05C1.10002
%
G05
G90
T01
X-18.81232Y6.78564
X-18.81232Y11.86564
X-13.73232Y22.02564
X-13.73232Y6.78564
X-13.73232Y11.86564
X-8.65232Y6.78564
X-3.57232Y6.78564
X-6.16346Y16.21321
X-1.85159Y6.96354
T02
X-15.8862Y21.03573
X-17.1562Y22.94073
X-18.4262Y21.03573
X-8.45429Y21.1217
X-9.72429Y23.0267
X-10.99429Y21.1217
T03
X-17.70196Y3.69799
X-17.70196Y13.85799
X-7.57284Y13.90375
X-7.57284Y3.74375
X-17.72371Y17.13625
X-7.56371Y17.13625
X-10.84418Y3.7539
X-10.84418Y13.9139
X-14.2426Y3.74879
X-14.2426Y13.90879
T04
X-2.56008Y3.77128
X-22.75596Y3.88554
T05
X-22.94622Y8.91776
X-22.94622Y11.45776
X-22.94622Y13.99776
X-22.94622Y16.53776
X-2.48985Y21.62724
X-2.48985Y19.08724
X-2.48985Y16.54724
X-2.48985Y14.00724
X-2.48985Y11.46724
X-2.48985Y8.92724
M30