;TYPE=PLATED
;Layer: PTH_Through
;EasyEDA Pro v2.2.40.8, 2025-10-31 20:04:37
;Gerber Generator version 0.3
M48
METRIC,LZ,0000.00000
;Hole size 1 = 0.81280 METRIC
T01C0.81280
;Hole size 2 = 0.89900 METRIC
T02C0.89900
;Hole size 3 = 0.89916 METRIC
T03C0.89916
;Hole size 4 = 0.90002 METRIC
T04C0.90002
;Hole size 5 = 1.10002 METRIC
T05C1.10002
;Hole size 6 = 2.00000 METRIC
T06C2.00000
%
G05
G90
T01
X-19.2223Y17.71472
X-17.3173Y18.98472
X-19.2223Y20.25471
X-7.15797Y17.68663
X-5.25298Y18.95663
X-7.15797Y20.22663
T02
X-4.88168Y4.55629
X-20.8961Y4.8261
T03
X-14.637Y12.065
X-14.637Y1.905
X-11.081Y12.065
X-11.081Y1.905
X-9.2522Y14.8336
X-19.4122Y14.8336
X-7.525Y12.065
X-7.525Y1.905
X-18.193Y1.905
X-18.193Y12.065
T04
X-1.79521Y8.06902
X-1.79521Y10.06901
X-1.79521Y12.06901
X-1.79521Y14.06901
T05
X-23.09493Y7.5887
X-23.09493Y10.1287
X-23.09493Y12.6687
X-23.09493Y15.2087
T06
X-22.85547Y2.54
X-2.572Y2.4638
X-2.445Y20.32
X-22.892Y20.32
M30