G04 Layer: BottomLayer*
G04 EasyEDA Pro v2.2.40.8, 2025-10-31 20:04:37*
G04 Gerber Generator version 0.3*
G04 Scale: 100 percent, Rotated: No, Reflected: No*
G04 Dimensions in millimeters*
G04 Leading zeros omitted, absolute positions, 4 integers and 5 decimals*
G04 Generated by one-click*
%FSLAX45Y45*%
%MOMM*%
%ADD10C,0.2032*%
%ADD11C,0.254*%
%ADD12C,2.0*%
%ADD13C,1.8796*%
%ADD14R,1.7X1.7*%
%ADD15C,1.7*%
%ADD16C,1.88*%
%ADD17O,1.8022X1.5*%
%ADD18O,1.8X1.5*%
G75*


G04 Copper Start*
G36*
G01X-58340Y2185710D02*
G01X-58340Y1438606D01*
G01X-65880Y1457394D01*
G01X-76712Y1474497D01*
G01X-90475Y1489344D01*
G01X-106710Y1501439D01*
G01X-124874Y1510379D01*
G01X-144361Y1515865D01*
G01X-164521Y1517715D01*
G01X-194521Y1517715D01*
G01X-214332Y1515929D01*
G01X-233505Y1510631D01*
G01X-251421Y1501991D01*
G01X-267504Y1490286D01*
G01X-281236Y1475896D01*
G01X-292174Y1459282D01*
G01X-299965Y1440980D01*
G01X-304359Y1421580D01*
G01X-305213Y1401707D01*
G01X-302502Y1382002D01*
G01X-296311Y1363099D01*
G01X-286840Y1345607D01*
G01X-274395Y1330090D01*
G01X-259376Y1317048D01*
G01X-242268Y1306901D01*
G01X-255138Y1299666D01*
G01X-266932Y1290785D01*
G01X-277440Y1280414D01*
G01X-645808Y1280414D01*
G01X-655397Y1292625D01*
G01X-666375Y1303603D01*
G01X-678586Y1313192D01*
G01X-678586Y1644318D01*
G01X-657834Y1652531D01*
G01X-638796Y1664178D01*
G01X-622035Y1678913D01*
G01X-608046Y1696303D01*
G01X-597243Y1715831D01*
G01X-589945Y1736922D01*
G01X-586367Y1758951D01*
G01X-586617Y1781267D01*
G01X-566145Y1772464D01*
G01X-544469Y1767293D01*
G01X-522227Y1765906D01*
G01X-500076Y1768344D01*
G01X-478669Y1774534D01*
G01X-458636Y1784296D01*
G01X-440568Y1797341D01*
G01X-424998Y1813283D01*
G01X-412385Y1831655D01*
G01X-403100Y1851913D01*
G01X-397417Y1873461D01*
G01X-395504Y1895663D01*
G01X-397417Y1917866D01*
G01X-403100Y1939413D01*
G01X-412385Y1959672D01*
G01X-424998Y1978043D01*
G01X-440568Y1993986D01*
G01X-458636Y2007030D01*
G01X-478669Y2016792D01*
G01X-500076Y2022983D01*
G01X-522227Y2025421D01*
G01X-544469Y2024033D01*
G01X-566145Y2018862D01*
G01X-586617Y2010059D01*
G01X-586425Y2032000D01*
G01X-380314Y2032000D01*
G01X-378462Y2009646D01*
G01X-372955Y1987901D01*
G01X-363945Y1967360D01*
G01X-351676Y1948581D01*
G01X-336484Y1932078D01*
G01X-318783Y1918301D01*
G01X-299056Y1907625D01*
G01X-277840Y1900342D01*
G01X-255715Y1896650D01*
G01X-233284Y1896650D01*
G01X-211160Y1900342D01*
G01X-189944Y1907625D01*
G01X-170217Y1918301D01*
G01X-152516Y1932078D01*
G01X-137324Y1948581D01*
G01X-125055Y1967360D01*
G01X-116045Y1987901D01*
G01X-110538Y2009646D01*
G01X-108686Y2032000D01*
G01X-108686Y2032000D01*
G01X-110538Y2054354D01*
G01X-116045Y2076099D01*
G01X-125055Y2096640D01*
G01X-137324Y2115419D01*
G01X-152516Y2131922D01*
G01X-170217Y2145699D01*
G01X-189944Y2156375D01*
G01X-211160Y2163658D01*
G01X-233284Y2167350D01*
G01X-255715Y2167350D01*
G01X-277840Y2163658D01*
G01X-299056Y2156375D01*
G01X-318783Y2145699D01*
G01X-336484Y2131922D01*
G01X-351676Y2115419D01*
G01X-363945Y2096640D01*
G01X-372955Y2076099D01*
G01X-378462Y2054354D01*
G01X-380314Y2032000D01*
G01X-586425Y2032000D01*
G01X-586416Y2033001D01*
G01X-590257Y2055619D01*
G01X-598021Y2077208D01*
G01X-609465Y2097093D01*
G01X-624231Y2114652D01*
G01X-641857Y2129337D01*
G01X-661794Y2140689D01*
G01X-683419Y2148353D01*
G01X-706055Y2152091D01*
G01X-728995Y2151784D01*
G01X-751523Y2147443D01*
G01X-772935Y2139204D01*
G01X-792562Y2127323D01*
G01X-809790Y2112172D01*
G01X-824081Y2094225D01*
G01X-834989Y2074041D01*
G01X-842173Y2052253D01*
G01X-845409Y2029539D01*
G01X-844595Y2006611D01*
G01X-839757Y1984185D01*
G01X-831045Y1962961D01*
G01X-818733Y1943602D01*
G01X-803205Y1926713D01*
G01X-784946Y1912822D01*
G01X-764526Y1902363D01*
G01X-742584Y1895663D01*
G01X-764327Y1889043D01*
G01X-784582Y1878732D01*
G01X-802728Y1865045D01*
G01X-818209Y1848403D01*
G01X-830548Y1829315D01*
G01X-839369Y1808368D01*
G01X-844401Y1786203D01*
G01X-845488Y1763500D01*
G01X-842599Y1740955D01*
G01X-835821Y1719260D01*
G01X-825363Y1699081D01*
G01X-811545Y1681034D01*
G01X-794791Y1665676D01*
G01X-775614Y1653475D01*
G01X-775614Y1334219D01*
G01X-796580Y1328579D01*
G01X-816313Y1319524D01*
G01X-834261Y1307305D01*
G01X-849920Y1292266D01*
G01X-862854Y1274827D01*
G01X-872699Y1255476D01*
G01X-879181Y1234754D01*
G01X-882119Y1213242D01*
G01X-881429Y1191542D01*
G01X-877132Y1170259D01*
G01X-869347Y1149991D01*
G01X-858293Y1131305D01*
G01X-844278Y1114722D01*
G01X-827695Y1100707D01*
G01X-809008Y1089653D01*
G01X-788740Y1081868D01*
G01X-767458Y1077571D01*
G01X-745758Y1076881D01*
G01X-724245Y1079819D01*
G01X-703524Y1086301D01*
G01X-684173Y1096146D01*
G01X-666734Y1109080D01*
G01X-651695Y1124739D01*
G01X-639476Y1142687D01*
G01X-630420Y1162420D01*
G01X-624781Y1183386D01*
G01X-302811Y1183386D01*
G01X-296754Y1164143D01*
G01X-287308Y1146318D01*
G01X-274787Y1130500D01*
G01X-259606Y1117215D01*
G01X-242268Y1106901D01*
G01X-258321Y1097507D01*
G01X-272577Y1085559D01*
G01X-284633Y1071396D01*
G01X-294151Y1055415D01*
G01X-1418678Y1055415D01*
G01X-1441825Y1078563D01*
G01X-1420529Y1084096D01*
G01X-1400473Y1093147D01*
G01X-1382235Y1105456D01*
G01X-1366337Y1120669D01*
G01X-1353238Y1138348D01*
G01X-1343314Y1157986D01*
G01X-1228486Y1157986D01*
G01X-1218379Y1138052D01*
G01X-1205001Y1120148D01*
G01X-1188751Y1104805D01*
G01X-1170109Y1092476D01*
G01X-1149628Y1083529D01*
G01X-1127916Y1078228D01*
G01X-1105617Y1076730D01*
G01X-1083391Y1079080D01*
G01X-1061898Y1085208D01*
G01X-1041775Y1094932D01*
G01X-1023618Y1107964D01*
G01X-1007966Y1123918D01*
G01X-995283Y1142321D01*
G01X-985946Y1162627D01*
G01X-980230Y1184233D01*
G01X-978306Y1206500D01*
G01X-980230Y1228767D01*
G01X-985946Y1250373D01*
G01X-995283Y1270679D01*
G01X-1007966Y1289082D01*
G01X-1023618Y1305036D01*
G01X-1041775Y1318068D01*
G01X-1061898Y1327792D01*
G01X-1083391Y1333920D01*
G01X-1105617Y1336270D01*
G01X-1127916Y1334772D01*
G01X-1149628Y1329471D01*
G01X-1170109Y1320524D01*
G01X-1188751Y1308195D01*
G01X-1205001Y1292852D01*
G01X-1218379Y1274948D01*
G01X-1228486Y1255014D01*
G01X-1343314Y1255014D01*
G01X-1352903Y1274105D01*
G01X-1365494Y1291365D01*
G01X-1380745Y1306325D01*
G01X-1398244Y1318581D01*
G01X-1417517Y1327800D01*
G01X-1422298Y1338231D01*
G01X-1429395Y1347247D01*
G01X-1565508Y1483360D01*
G01X-1055014Y1483360D01*
G01X-1053042Y1460822D01*
G01X-1047186Y1438968D01*
G01X-1037625Y1418463D01*
G01X-1024648Y1399930D01*
G01X-1008650Y1383932D01*
G01X-990117Y1370955D01*
G01X-969612Y1361394D01*
G01X-947758Y1355538D01*
G01X-925220Y1353566D01*
G01X-902681Y1355538D01*
G01X-880828Y1361394D01*
G01X-860323Y1370955D01*
G01X-841790Y1383932D01*
G01X-825792Y1399930D01*
G01X-812815Y1418463D01*
G01X-803253Y1438968D01*
G01X-797398Y1460822D01*
G01X-795426Y1483360D01*
G01X-795426Y1483360D01*
G01X-797398Y1505898D01*
G01X-803253Y1527752D01*
G01X-812815Y1548257D01*
G01X-825792Y1566790D01*
G01X-841790Y1582788D01*
G01X-860323Y1595765D01*
G01X-880828Y1605326D01*
G01X-902681Y1611182D01*
G01X-925220Y1613154D01*
G01X-947758Y1611182D01*
G01X-969612Y1605326D01*
G01X-990117Y1595765D01*
G01X-1008650Y1582788D01*
G01X-1024648Y1566790D01*
G01X-1037625Y1548257D01*
G01X-1047186Y1527752D01*
G01X-1053042Y1505898D01*
G01X-1055014Y1483360D01*
G01X-1565508Y1483360D01*
G01X-1802799Y1720651D01*
G01X-1796027Y1741150D01*
G01X-1792747Y1762489D01*
G01X-1793049Y1784076D01*
G01X-1772577Y1775273D01*
G01X-1750901Y1770101D01*
G01X-1728659Y1768714D01*
G01X-1706508Y1771152D01*
G01X-1685101Y1777343D01*
G01X-1665068Y1787105D01*
G01X-1647000Y1800149D01*
G01X-1631430Y1816092D01*
G01X-1618817Y1834463D01*
G01X-1609532Y1854721D01*
G01X-1603849Y1876269D01*
G01X-1601936Y1898472D01*
G01X-1603849Y1920674D01*
G01X-1609532Y1942222D01*
G01X-1618817Y1962480D01*
G01X-1631430Y1980851D01*
G01X-1647000Y1996794D01*
G01X-1665068Y2009839D01*
G01X-1685101Y2019600D01*
G01X-1706508Y2025791D01*
G01X-1728659Y2028229D01*
G01X-1750901Y2026842D01*
G01X-1772577Y2021671D01*
G01X-1793049Y2012867D01*
G01X-1792848Y2035809D01*
G01X-1796689Y2058428D01*
G01X-1804453Y2080016D01*
G01X-1815897Y2099901D01*
G01X-1830663Y2117460D01*
G01X-1848290Y2132145D01*
G01X-1868227Y2143497D01*
G01X-1889851Y2151162D01*
G01X-1912487Y2154899D01*
G01X-1935427Y2154593D01*
G01X-1957955Y2150252D01*
G01X-1979367Y2142012D01*
G01X-1998994Y2130131D01*
G01X-2016222Y2114981D01*
G01X-2030513Y2097033D01*
G01X-2041421Y2076850D01*
G01X-2048606Y2055061D01*
G01X-2051841Y2032348D01*
G01X-2051027Y2009420D01*
G01X-2046189Y1986993D01*
G01X-2037477Y1965769D01*
G01X-2025165Y1946410D01*
G01X-2009637Y1929522D01*
G01X-1991378Y1915631D01*
G01X-1970958Y1905172D01*
G01X-1949016Y1898472D01*
G01X-1969730Y1892262D01*
G01X-1989125Y1882699D01*
G01X-2006664Y1870048D01*
G01X-2021858Y1854662D01*
G01X-2034288Y1836966D01*
G01X-2043606Y1817452D01*
G01X-2049556Y1796661D01*
G01X-2051971Y1775172D01*
G01X-2050784Y1753580D01*
G01X-2046029Y1732484D01*
G01X-2037838Y1712471D01*
G01X-2026437Y1694095D01*
G01X-2012144Y1677868D01*
G01X-1995355Y1664238D01*
G01X-1976536Y1653585D01*
G01X-1956210Y1646205D01*
G01X-1934940Y1642302D01*
G01X-1913318Y1641984D01*
G01X-1891943Y1645261D01*
G01X-1871408Y1652042D01*
G01X-1534591Y1315224D01*
G01X-1551461Y1302127D01*
G01X-1565954Y1286441D01*
G01X-1577679Y1268590D01*
G01X-1586318Y1249059D01*
G01X-1591637Y1228375D01*
G01X-1815270Y1452007D01*
G01X-1811767Y1473951D01*
G01X-1812060Y1496172D01*
G01X-1816138Y1518017D01*
G01X-1823883Y1538845D01*
G01X-1835068Y1558048D01*
G01X-1849364Y1575061D01*
G01X-1866353Y1589386D01*
G01X-1885537Y1600603D01*
G01X-1906353Y1608383D01*
G01X-1928191Y1612498D01*
G01X-1950410Y1612828D01*
G01X-1972361Y1609363D01*
G01X-1993398Y1602204D01*
G01X-2012906Y1591561D01*
G01X-2030313Y1577747D01*
G01X-2045108Y1561166D01*
G01X-2056858Y1542304D01*
G01X-2065218Y1521714D01*
G01X-2103164Y1521714D01*
G01X-2115720Y1520061D01*
G01X-2127421Y1515214D01*
G01X-2137468Y1507505D01*
G01X-2265560Y1379413D01*
G01X-2286643Y1385503D01*
G01X-2308479Y1387680D01*
G01X-2330349Y1385870D01*
G01X-2351531Y1380135D01*
G01X-2371326Y1370662D01*
G01X-2389081Y1357765D01*
G01X-2404210Y1341869D01*
G01X-2416214Y1323498D01*
G01X-2424697Y1303259D01*
G01X-2429379Y1281820D01*
G01X-2430105Y1259887D01*
G01X-2426852Y1238185D01*
G01X-2419728Y1217429D01*
G01X-2408966Y1198304D01*
G01X-2394922Y1181442D01*
G01X-2378059Y1167398D01*
G01X-2358935Y1156636D01*
G01X-2338179Y1149511D01*
G01X-2316476Y1146258D01*
G01X-2294544Y1146985D01*
G01X-2273104Y1151667D01*
G01X-2252865Y1160150D01*
G01X-2234495Y1172154D01*
G01X-2218599Y1187283D01*
G01X-2205702Y1205038D01*
G01X-2196229Y1224833D01*
G01X-2190493Y1246014D01*
G01X-2188684Y1267884D01*
G01X-2190860Y1289721D01*
G01X-2196951Y1310804D01*
G01X-2083069Y1424686D01*
G01X-2056995Y1424686D01*
G01X-2045764Y1406437D01*
G01X-2031683Y1390285D01*
G01X-2015137Y1376670D01*
G01X-1996576Y1365963D01*
G01X-1976507Y1358455D01*
G01X-1955475Y1354351D01*
G01X-1934056Y1353764D01*
G01X-1912831Y1356709D01*
G01X-1892380Y1363105D01*
G01X-1873261Y1372780D01*
G01X-1835731Y1335250D01*
G01X-1857460Y1330558D01*
G01X-1878070Y1322226D01*
G01X-1896956Y1310500D01*
G01X-1913564Y1295724D01*
G01X-1927406Y1278330D01*
G01X-1938078Y1258828D01*
G01X-1945265Y1237792D01*
G01X-1948758Y1215838D01*
G01X-1948452Y1193610D01*
G01X-1944359Y1171761D01*
G01X-1936596Y1150930D01*
G01X-1925393Y1131729D01*
G01X-1911078Y1114722D01*
G01X-1894071Y1100407D01*
G01X-1874870Y1089204D01*
G01X-1854039Y1081441D01*
G01X-1832189Y1077348D01*
G01X-1809961Y1077042D01*
G01X-1788007Y1080535D01*
G01X-1766971Y1087722D01*
G01X-1747470Y1098394D01*
G01X-1730076Y1112236D01*
G01X-1715300Y1128844D01*
G01X-1703574Y1147730D01*
G01X-1695242Y1168340D01*
G01X-1690550Y1190069D01*
G01X-1473078Y972597D01*
G01X-1463030Y964887D01*
G01X-1451330Y960041D01*
G01X-1438773Y958387D01*
G01X-294151Y958387D01*
G01X-284633Y942407D01*
G01X-272577Y928244D01*
G01X-258321Y916296D01*
G01X-242268Y906902D01*
G01X-258815Y897157D01*
G01X-273432Y884702D01*
G01X-285678Y869911D01*
G01X-295188Y853227D01*
G01X-301674Y835152D01*
G01X-304942Y816229D01*
G01X-304894Y797026D01*
G01X-301532Y778119D01*
G01X-294956Y760077D01*
G01X-470761Y584271D01*
G01X-492855Y585359D01*
G01X-514811Y582680D01*
G01X-535995Y576312D01*
G01X-555790Y566440D01*
G01X-573621Y553351D01*
G01X-588971Y537424D01*
G01X-601395Y519123D01*
G01X-610531Y498978D01*
G01X-616114Y477574D01*
G01X-617982Y455533D01*
G01X-616081Y433495D01*
G01X-610466Y412100D01*
G01X-709576Y312991D01*
G01X-730844Y318475D01*
G01X-752731Y320294D01*
G01X-774613Y318396D01*
G01X-795861Y312837D01*
G01X-815867Y303774D01*
G01X-834059Y291468D01*
G01X-849916Y276271D01*
G01X-862983Y258618D01*
G01X-872886Y239014D01*
G01X-987714Y239014D01*
G01X-997821Y258948D01*
G01X-1011198Y276852D01*
G01X-1027449Y292195D01*
G01X-1046091Y304524D01*
G01X-1066572Y313471D01*
G01X-1088283Y318772D01*
G01X-1110583Y320270D01*
G01X-1132809Y317920D01*
G01X-1154302Y311792D01*
G01X-1174425Y302068D01*
G01X-1192582Y289036D01*
G01X-1208234Y273082D01*
G01X-1220916Y254679D01*
G01X-1230254Y234373D01*
G01X-1235970Y212767D01*
G01X-1237894Y190500D01*
G01X-1235970Y168233D01*
G01X-1230254Y146627D01*
G01X-1220916Y126321D01*
G01X-1208234Y107918D01*
G01X-1192582Y91964D01*
G01X-1174425Y78932D01*
G01X-1154302Y69208D01*
G01X-1132809Y63080D01*
G01X-1110583Y60730D01*
G01X-1088283Y62228D01*
G01X-1066572Y67529D01*
G01X-1046091Y76476D01*
G01X-1027449Y88805D01*
G01X-1011198Y104148D01*
G01X-997821Y122052D01*
G01X-987714Y141986D01*
G01X-872886Y141986D01*
G01X-863537Y123290D01*
G01X-851309Y106338D01*
G01X-836517Y91568D01*
G01X-819547Y79364D01*
G01X-800837Y70043D01*
G01X-780874Y63845D01*
G01X-760175Y60933D01*
G01X-739277Y61381D01*
G01X-718722Y65178D01*
G01X-699043Y72226D01*
G01X-680750Y82340D01*
G01X-664319Y95261D01*
G01X-650174Y110651D01*
G01X-638683Y128112D01*
G01X-630145Y147191D01*
G01X-624779Y167394D01*
G01X-622726Y188196D01*
G01X-624039Y209057D01*
G01X-628684Y229438D01*
G01X-635555Y246380D01*
G01X-393014Y246380D01*
G01X-391162Y224026D01*
G01X-385655Y202281D01*
G01X-376645Y181740D01*
G01X-364376Y162961D01*
G01X-349184Y146458D01*
G01X-331483Y132681D01*
G01X-311756Y122005D01*
G01X-290540Y114722D01*
G01X-268415Y111030D01*
G01X-245984Y111030D01*
G01X-223860Y114722D01*
G01X-202644Y122005D01*
G01X-182917Y132681D01*
G01X-165216Y146458D01*
G01X-150024Y162961D01*
G01X-137755Y181740D01*
G01X-128745Y202281D01*
G01X-123238Y224026D01*
G01X-121386Y246380D01*
G01X-121386Y246380D01*
G01X-123238Y268734D01*
G01X-128745Y290479D01*
G01X-137755Y311020D01*
G01X-150024Y329799D01*
G01X-165216Y346302D01*
G01X-182917Y360079D01*
G01X-202644Y370755D01*
G01X-223860Y378038D01*
G01X-245984Y381730D01*
G01X-268415Y381730D01*
G01X-290540Y378038D01*
G01X-311756Y370755D01*
G01X-331483Y360079D01*
G01X-349184Y346302D01*
G01X-364376Y329799D01*
G01X-376645Y311020D01*
G01X-385655Y290479D01*
G01X-391162Y268734D01*
G01X-393014Y246380D01*
G01X-635555Y246380D01*
G01X-636540Y248808D01*
G01X-545959Y339389D01*
G01X-525806Y331391D01*
G01X-504602Y326860D01*
G01X-482940Y325921D01*
G01X-461423Y328600D01*
G01X-440653Y334824D01*
G01X-421209Y344417D01*
G01X-403632Y357114D01*
G01X-388414Y372559D01*
G01X-375979Y390321D01*
G01X-366673Y409905D01*
G01X-360758Y430765D01*
G01X-358396Y452319D01*
G01X-359656Y473965D01*
G01X-364500Y495099D01*
G01X-372795Y515133D01*
G01X-384308Y533506D01*
G01X-218991Y698823D01*
G01X-206832Y696774D01*
G01X-194521Y696088D01*
G01X-164521Y696088D01*
G01X-144361Y697937D01*
G01X-124874Y703423D01*
G01X-106710Y712363D01*
G01X-90475Y724458D01*
G01X-76712Y739305D01*
G01X-65880Y756408D01*
G01X-58340Y775197D01*
G01X-58340Y48514D01*
G01X-2465250Y48514D01*
G01X-2465250Y254000D01*
G01X-2421361Y254000D01*
G01X-2419508Y231646D01*
G01X-2414002Y209901D01*
G01X-2404992Y189360D01*
G01X-2392723Y170581D01*
G01X-2377531Y154078D01*
G01X-2359830Y140301D01*
G01X-2340102Y129625D01*
G01X-2318887Y122342D01*
G01X-2296762Y118650D01*
G01X-2274331Y118650D01*
G01X-2252206Y122342D01*
G01X-2230991Y129625D01*
G01X-2211263Y140301D01*
G01X-2193562Y154078D01*
G01X-2178370Y170581D01*
G01X-2166102Y189360D01*
G01X-2165602Y190500D01*
G01X-1949094Y190500D01*
G01X-1947122Y167962D01*
G01X-1941266Y146108D01*
G01X-1931705Y125603D01*
G01X-1918728Y107070D01*
G01X-1902730Y91072D01*
G01X-1884197Y78095D01*
G01X-1863692Y68534D01*
G01X-1841838Y62678D01*
G01X-1819300Y60706D01*
G01X-1819300Y60706D01*
G01X-1796761Y62678D01*
G01X-1774908Y68534D01*
G01X-1754403Y78095D01*
G01X-1735870Y91072D01*
G01X-1719872Y107070D01*
G01X-1706895Y125603D01*
G01X-1697333Y146108D01*
G01X-1691478Y167962D01*
G01X-1689506Y190500D01*
G01X-1593494Y190500D01*
G01X-1591522Y167962D01*
G01X-1585666Y146108D01*
G01X-1576105Y125603D01*
G01X-1563128Y107070D01*
G01X-1547130Y91072D01*
G01X-1528597Y78095D01*
G01X-1508092Y68534D01*
G01X-1486238Y62678D01*
G01X-1463700Y60706D01*
G01X-1441161Y62678D01*
G01X-1419308Y68534D01*
G01X-1398803Y78095D01*
G01X-1380270Y91072D01*
G01X-1364272Y107070D01*
G01X-1351295Y125603D01*
G01X-1341733Y146108D01*
G01X-1335878Y167962D01*
G01X-1333906Y190500D01*
G01X-1335878Y213038D01*
G01X-1341733Y234892D01*
G01X-1351295Y255397D01*
G01X-1364272Y273930D01*
G01X-1380270Y289928D01*
G01X-1398803Y302905D01*
G01X-1419308Y312466D01*
G01X-1441161Y318322D01*
G01X-1463700Y320294D01*
G01X-1463700Y320294D01*
G01X-1486238Y318322D01*
G01X-1508092Y312466D01*
G01X-1528597Y302905D01*
G01X-1547130Y289928D01*
G01X-1563128Y273930D01*
G01X-1576105Y255397D01*
G01X-1585666Y234892D01*
G01X-1591522Y213038D01*
G01X-1593494Y190500D01*
G01X-1689506Y190500D01*
G01X-1689506Y190500D01*
G01X-1691478Y213038D01*
G01X-1697333Y234892D01*
G01X-1706895Y255397D01*
G01X-1719872Y273930D01*
G01X-1735870Y289928D01*
G01X-1754403Y302905D01*
G01X-1774908Y312466D01*
G01X-1796761Y318322D01*
G01X-1819300Y320294D01*
G01X-1841838Y318322D01*
G01X-1863692Y312466D01*
G01X-1884197Y302905D01*
G01X-1902730Y289928D01*
G01X-1918728Y273930D01*
G01X-1931705Y255397D01*
G01X-1941266Y234892D01*
G01X-1947122Y213038D01*
G01X-1949094Y190500D01*
G01X-2165602Y190500D01*
G01X-2157091Y209901D01*
G01X-2151585Y231646D01*
G01X-2149733Y254000D01*
G01X-2149733Y254000D01*
G01X-2151585Y276354D01*
G01X-2157091Y298099D01*
G01X-2166102Y318640D01*
G01X-2178370Y337419D01*
G01X-2193562Y353922D01*
G01X-2211263Y367699D01*
G01X-2230991Y378375D01*
G01X-2252206Y385658D01*
G01X-2274331Y389350D01*
G01X-2296762Y389350D01*
G01X-2318887Y385658D01*
G01X-2340102Y378375D01*
G01X-2359830Y367699D01*
G01X-2377531Y353922D01*
G01X-2392723Y337419D01*
G01X-2404992Y318640D01*
G01X-2414002Y298099D01*
G01X-2419508Y276354D01*
G01X-2421361Y254000D01*
G01X-2465250Y254000D01*
G01X-2465250Y482610D01*
G01X-2219424Y482610D01*
G01X-2217452Y460068D01*
G01X-2211595Y438211D01*
G01X-2202032Y417703D01*
G01X-2189053Y399168D01*
G01X-2173053Y383167D01*
G01X-2154517Y370188D01*
G01X-2134009Y360625D01*
G01X-2112152Y354769D01*
G01X-2089610Y352796D01*
G01X-2067068Y354769D01*
G01X-2045211Y360625D01*
G01X-2024703Y370188D01*
G01X-2006167Y383167D01*
G01X-1990167Y399168D01*
G01X-1977188Y417703D01*
G01X-1967625Y438211D01*
G01X-1961768Y460068D01*
G01X-1959796Y482610D01*
G01X-1961768Y505152D01*
G01X-1967625Y527009D01*
G01X-1977188Y547517D01*
G01X-1990167Y566053D01*
G01X-2006167Y582054D01*
G01X-2024703Y595033D01*
G01X-2045211Y604596D01*
G01X-2067068Y610452D01*
G01X-2089610Y612424D01*
G01X-2112152Y610452D01*
G01X-2134009Y604596D01*
G01X-2154517Y595033D01*
G01X-2173053Y582054D01*
G01X-2189053Y566053D01*
G01X-2202032Y547517D01*
G01X-2211595Y527009D01*
G01X-2217452Y505152D01*
G01X-2219424Y482610D01*
G01X-2219424Y482610D01*
G01X-2465250Y482610D01*
G01X-2465250Y843870D01*
G01X-2430307Y843870D01*
G01X-2430307Y673870D01*
G01X-2428554Y662803D01*
G01X-2423467Y652819D01*
G01X-2415544Y644896D01*
G01X-2405560Y639809D01*
G01X-2394493Y638056D01*
G01X-2224494Y638056D01*
G01X-2213427Y639809D01*
G01X-2203443Y644896D01*
G01X-2195520Y652819D01*
G01X-2190433Y662803D01*
G01X-2188680Y673870D01*
G01X-2188680Y843870D01*
G01X-2188680Y843870D01*
G01X-2190433Y854937D01*
G01X-2195520Y864921D01*
G01X-2203443Y872844D01*
G01X-2213427Y877931D01*
G01X-2224494Y879684D01*
G01X-2394493Y879684D01*
G01X-2405560Y877931D01*
G01X-2415544Y872844D01*
G01X-2423467Y864921D01*
G01X-2428554Y854937D01*
G01X-2430307Y843870D01*
G01X-2465250Y843870D01*
G01X-2465250Y1012870D01*
G01X-2430307Y1012870D01*
G01X-2428472Y991891D01*
G01X-2423021Y971549D01*
G01X-2414121Y952463D01*
G01X-2402042Y935213D01*
G01X-2387151Y920321D01*
G01X-2369900Y908242D01*
G01X-2350814Y899342D01*
G01X-2330473Y893892D01*
G01X-2309493Y892056D01*
G01X-2309493Y892056D01*
G01X-2288514Y893892D01*
G01X-2268173Y899342D01*
G01X-2249087Y908242D01*
G01X-2231836Y920321D01*
G01X-2216945Y935213D01*
G01X-2204866Y952463D01*
G01X-2195966Y971549D01*
G01X-2190515Y991891D01*
G01X-2188680Y1012870D01*
G01X-2190515Y1033849D01*
G01X-2195966Y1054191D01*
G01X-2204866Y1073277D01*
G01X-2216945Y1090528D01*
G01X-2231836Y1105419D01*
G01X-2249087Y1117498D01*
G01X-2268173Y1126398D01*
G01X-2288514Y1131849D01*
G01X-2309493Y1133684D01*
G01X-2330473Y1131849D01*
G01X-2350814Y1126398D01*
G01X-2369900Y1117498D01*
G01X-2387151Y1105419D01*
G01X-2402042Y1090528D01*
G01X-2414121Y1073277D01*
G01X-2423021Y1054191D01*
G01X-2428472Y1033849D01*
G01X-2430307Y1012870D01*
G01X-2465250Y1012870D01*
G01X-2465250Y1520870D01*
G01X-2430307Y1520870D01*
G01X-2428472Y1499891D01*
G01X-2423021Y1479549D01*
G01X-2414121Y1460463D01*
G01X-2402042Y1443213D01*
G01X-2387151Y1428321D01*
G01X-2369900Y1416242D01*
G01X-2350814Y1407342D01*
G01X-2330473Y1401892D01*
G01X-2309493Y1400056D01*
G01X-2309493Y1400056D01*
G01X-2288514Y1401892D01*
G01X-2268173Y1407342D01*
G01X-2249087Y1416242D01*
G01X-2231836Y1428321D01*
G01X-2216945Y1443213D01*
G01X-2204866Y1460463D01*
G01X-2195966Y1479549D01*
G01X-2190515Y1499891D01*
G01X-2188680Y1520870D01*
G01X-2190515Y1541849D01*
G01X-2195966Y1562191D01*
G01X-2204866Y1581277D01*
G01X-2216945Y1598528D01*
G01X-2231836Y1613419D01*
G01X-2249087Y1625498D01*
G01X-2268173Y1634398D01*
G01X-2288514Y1639849D01*
G01X-2309493Y1641684D01*
G01X-2330473Y1639849D01*
G01X-2350814Y1634398D01*
G01X-2369900Y1625498D01*
G01X-2387151Y1613419D01*
G01X-2402042Y1598528D01*
G01X-2414121Y1581277D01*
G01X-2423021Y1562191D01*
G01X-2428472Y1541849D01*
G01X-2430307Y1520870D01*
G01X-2465250Y1520870D01*
G01X-2465250Y2032000D01*
G01X-2425014Y2032000D01*
G01X-2423162Y2009646D01*
G01X-2417655Y1987901D01*
G01X-2408645Y1967360D01*
G01X-2396376Y1948581D01*
G01X-2381184Y1932078D01*
G01X-2363483Y1918301D01*
G01X-2343756Y1907625D01*
G01X-2322540Y1900342D01*
G01X-2300415Y1896650D01*
G01X-2277984Y1896650D01*
G01X-2255860Y1900342D01*
G01X-2234644Y1907625D01*
G01X-2214917Y1918301D01*
G01X-2197216Y1932078D01*
G01X-2182024Y1948581D01*
G01X-2169755Y1967360D01*
G01X-2160745Y1987901D01*
G01X-2155238Y2009646D01*
G01X-2153386Y2032000D01*
G01X-2153386Y2032000D01*
G01X-2155238Y2054354D01*
G01X-2160745Y2076099D01*
G01X-2169755Y2096640D01*
G01X-2182024Y2115419D01*
G01X-2197216Y2131922D01*
G01X-2214917Y2145699D01*
G01X-2234644Y2156375D01*
G01X-2255860Y2163658D01*
G01X-2277984Y2167350D01*
G01X-2300415Y2167350D01*
G01X-2322540Y2163658D01*
G01X-2343756Y2156375D01*
G01X-2363483Y2145699D01*
G01X-2381184Y2131922D01*
G01X-2396376Y2115419D01*
G01X-2408645Y2096640D01*
G01X-2417655Y2076099D01*
G01X-2423162Y2054354D01*
G01X-2425014Y2032000D01*
G01X-2465250Y2032000D01*
G01X-2465250Y2185710D01*
G01X-58340Y2185710D01*
G37*
G54D10*
G01X-58340Y2185710D02*
G01X-58340Y1438606D01*
G03X-164521Y1517715I-106181J-31705D01*
G01X-194521Y1517715D01*
G03X-242268Y1306901I0J-110814D01*
G03X-277440Y1280414I47747J-100000D01*
G01X-645808Y1280414D01*
G03X-678586Y1313192I-106692J-73914D01*
G01X-678586Y1644318D01*
G03X-586617Y1781267I-37212J124345D01*
G03X-395504Y1895663I61319J114396D01*
G03X-586617Y2010059I-129794J0D01*
G03X-792562Y2127323I-129180J12604D01*
G03X-742584Y1895663I76764J-104660D01*
G03X-775614Y1653475I26786J-127000D01*
G01X-775614Y1334219D01*
G03X-844278Y1114722I23114J-127719D01*
G03X-624781Y1183386I91778J91778D01*
G01X-302811Y1183386D01*
G03X-242268Y1106901I108290J23515D01*
G03X-294151Y1055415I47747J-100000D01*
G01X-1418678Y1055415D01*
G01X-1441825Y1078563D01*
G03X-1343314Y1157986I-21875J127937D01*
G01X-1228486Y1157986D01*
G03X-978306Y1206500I120386J48514D01*
G03X-1228486Y1255014I-129794J0D01*
G01X-1343314Y1255014D01*
G03X-1417517Y1327800I-120386J-48514D01*
G03X-1429395Y1347247I-46183J-14857D01*
G01X-1802799Y1720651D01*
G03X-1793049Y1784076I-119430J50821D01*
G03X-1601936Y1898472I61319J114396D01*
G03X-1793049Y2012867I-129794J0D01*
G03X-1998994Y2130131I-129180J12604D01*
G03X-1949016Y1898472I76764J-104660D01*
G03X-2046029Y1732484I26786J-127000D01*
G03X-1871408Y1652042I123800J38988D01*
G01X-1534591Y1315224D01*
G03X-1591637Y1228375I70891J-108724D01*
G01X-1815270Y1452007D01*
G03X-1906353Y1608383I-125950J31353D01*
G03X-2065218Y1521714I-34867J-125023D01*
G01X-2103164Y1521714D01*
G03X-2137468Y1507505I0J-48514D01*
G01X-2265560Y1379413D01*
G03X-2394922Y1181442I-43933J-112543D01*
G03X-2196951Y1310804I85428J85428D01*
G01X-2083069Y1424686D01*
G01X-2056995Y1424686D01*
G03X-1873261Y1372780I115775J58674D01*
G01X-1835731Y1335250D01*
G03X-1911078Y1114722I16431J-128750D01*
G03X-1690550Y1190069I91778J91778D01*
G01X-1473078Y972597D01*
G03X-1438773Y958387I34305J34305D01*
G01X-294151Y958387D01*
G03X-242268Y906902I99630J48514D01*
G03X-294956Y760077I47747J-100000D01*
G01X-470761Y584271D01*
G03X-610466Y412100I-17407J-128642D01*
G01X-709576Y312991D01*
G03X-872886Y239014I-42924J-122491D01*
G01X-987714Y239014D01*
G03X-1237894Y190500I-120386J-48514D01*
G03X-987714Y141986I129794J0D01*
G01X-872886Y141986D01*
G03X-699043Y72226I120386J48514D01*
G03X-636540Y248808I-53457J118274D01*
G01X-545959Y339389D01*
G03X-384308Y533506I57791J116240D01*
G01X-218991Y698823D01*
G03X-194521Y696088I24469J108078D01*
G01X-164521Y696088D01*
G03X-58340Y775197I0J110814D01*
G01X-58340Y48514D01*
G01X-2465250Y48514D01*
G01X-2465250Y2185710D01*
G01X-58340Y2185710D01*
G01X-2188680Y843870D02*
G03X-2224494Y879684I-35814J0D01*
G01X-2394493Y879684D01*
G03X-2430307Y843870I0J-35814D01*
G01X-2430307Y673870D01*
G03X-2394493Y638056I35814J0D01*
G01X-2224494Y638056D01*
G03X-2188680Y673870I0J35814D01*
G01X-2188680Y843870D01*
G01X-2309493Y1400056D02*
G03X-2309493Y1641684I0J120814D01*
G03X-2309493Y1400056I0J-120814D01*
G01X-2309493Y892056D02*
G03X-2309493Y1133684I0J120814D01*
G03X-2309493Y892056I0J-120814D01*
G01X-2153386Y2032000D02*
G03X-2425014Y2032000I-135814J0D01*
G03X-2153386Y2032000I135814J0D01*
G01X-2149733Y254000D02*
G03X-2421361Y254000I-135814J0D01*
G03X-2149733Y254000I135814J0D01*
G01X-2219424Y482610D02*
G03X-1959796Y482610I129814J0D01*
G03X-2219424Y482610I-129814J0D01*
G01X-1819300Y60706D02*
G03X-1819300Y320294I0J129794D01*
G03X-1819300Y60706I0J-129794D01*
G01X-1463700Y320294D02*
G03X-1463700Y60706I0J-129794D01*
G03X-1463700Y320294I0J129794D01*
G01X-795426Y1483360D02*
G03X-1055014Y1483360I-129794J0D01*
G03X-795426Y1483360I129794J0D01*
G01X-121386Y246380D02*
G03X-393014Y246380I-135814J0D01*
G03X-121386Y246380I135814J0D01*
G01X-108686Y2032000D02*
G03X-380314Y2032000I-135814J0D01*
G03X-108686Y2032000I135814J0D01*
G54D11*
G01X-2309493Y928124D02*
G01X-2309493Y902216D01*
G01X-2309493Y1097616D02*
G01X-2309493Y1123524D01*
G01X-2394239Y1012870D02*
G01X-2420147Y1012870D01*
G01X-2224748Y1012870D02*
G01X-2198840Y1012870D01*
G01X-2183356Y482610D02*
G01X-2209264Y482610D01*
G01X-1995864Y482610D02*
G01X-1969956Y482610D01*
G01X-2089610Y576356D02*
G01X-2089610Y602264D01*
G01X-2089610Y388864D02*
G01X-2089610Y362956D01*
G01X-1922230Y2119197D02*
G01X-1922230Y2145105D01*
G01X-1828504Y2025471D02*
G01X-1802596Y2025471D01*
G01X-2015955Y2025471D02*
G01X-2041863Y2025471D01*
G01X-715797Y2116389D02*
G01X-715797Y2142297D01*
G01X-622072Y2022663D02*
G01X-596164Y2022663D01*
G01X-809523Y2022663D02*
G01X-835431Y2022663D01*
G01X-179521Y1481647D02*
G01X-179521Y1507555D01*
G01X-269267Y1406901D02*
G01X-295175Y1406901D01*
G04 Copper End*

G04 Pad Start*
G54D12*
G01X-2285547Y254000D03*
G01X-257200Y246380D03*
G01X-244500Y2032000D03*
G01X-2289200Y2032000D03*
G54D13*
G01X-1463700Y1206500D03*
G01X-1463700Y190500D03*
G01X-1108100Y1206500D03*
G01X-1108100Y190500D03*
G01X-925220Y1483360D03*
G01X-1941220Y1483360D03*
G01X-752500Y1206500D03*
G01X-752500Y190500D03*
G01X-1819300Y190500D03*
G01X-1819300Y1206500D03*
G54D14*
G01X-2309493Y758870D03*
G54D15*
G01X-2309493Y1012870D03*
G01X-2309493Y1266870D03*
G01X-2309493Y1520870D03*
G54D16*
G01X-488168Y455629D03*
G01X-2089610Y482610D03*
G54D18*
G01X-179521Y806902D03*
G01X-179521Y1006901D03*
G01X-179521Y1206901D03*
G01X-179521Y1406901D03*
G54D13*
G01X-1922230Y1771472D03*
G01X-1731730Y1898472D03*
G01X-1922230Y2025471D03*
G01X-715797Y1768663D03*
G01X-525298Y1895663D03*
G01X-715797Y2022663D03*
G04 Pad End*

G04 Track Start*
G54D11*
G01X-1463700Y1206500D02*
G01X-1108100Y1206500D01*
G01X-1463700Y1206500D02*
G01X-1463700Y1312942D01*
G01X-1922230Y1771472D01*
G01X-1941220Y1473200D02*
G01X-2103164Y1473200D01*
G01X-2309493Y1266870D01*
G01X-1941220Y1473200D02*
G01X-1905072Y1473200D01*
G01X-1438773Y1006901D01*
G01X-179521Y1006901D01*
G01X-1108100Y190500D02*
G01X-752500Y190500D01*
G01X-752500Y201458D01*
G01X-488168Y465789D01*
G01X-488168Y498255D01*
G01X-179521Y806902D01*
G01X-752500Y1206500D02*
G01X-727100Y1231900D01*
G01X-727100Y1757361D01*
G01X-715797Y1768663D01*
G01X-727100Y1231900D02*
G01X-204520Y1231900D01*
G01X-179521Y1206901D01*
G01X-2309493Y1012870D02*
G01X-2099770Y803147D01*
G01X-2099770Y502930D01*
G01X-2309493Y1012870D02*
G01X-2436493Y1139870D01*
G01X-2436493Y1571670D01*
G01X-1982692Y2025471D01*
G01X-1922230Y2025471D01*
G01X-718606Y2025471D01*
G01X-715797Y2022663D01*
G01X-461797Y2022663D01*
G01X-179521Y1740387D01*
G01X-179521Y1406901D01*
G04 Track End*

M02*

